<svg id="圖層_1" data-name="圖層 1" xmlns="http://www.w3.org/2000/svg" viewBox="0 0 369.6 144.64"><defs><style>.cls-1{fill:#fff;}.cls-2{fill:#25a476;}</style></defs><rect class="cls-1" x="3.54" y="31.12" width="94.72" height="82.55"/><ellipse class="cls-1" cx="50.91" cy="30.9" rx="47.36" ry="27.52"/><ellipse class="cls-1" cx="50.91" cy="113.58" rx="47.36" ry="27.52"/><path class="cls-2" d="M37.49,95.71l-3.64,10.72q-2.06,5.92-7.19,5.93a8,8,0,0,1-5.42-2.06,6.33,6.33,0,0,1-2.33-4.9,11,11,0,0,1,.17-1.77,9.82,9.82,0,0,1,.51-2l20.64-62q2.85-8.2,10.49-8.21T61.1,39.6l20.64,62c.15.61.3,1.27.46,2a9.37,9.37,0,0,1,.22,1.88,6.22,6.22,0,0,1-2.33,4.79,8,8,0,0,1-5.42,2.06q-5.13,0-7.18-5.93L64,95.71Zm21.1-15.85-7.87-26-8,26Z"/><path class="cls-1" d="M114.13,63.32a8.12,8.12,0,0,1,1.93-5.81,7.19,7.19,0,0,1,5.48-2.06q4.9,0,6.73,3.88A13.32,13.32,0,0,1,137.39,56a17,17,0,0,1,5,.74,14.74,14.74,0,0,1,4.16,2,10.11,10.11,0,0,1,2.79,2.91,6.63,6.63,0,0,1,1,3.59,6.79,6.79,0,0,1-2.17,5.07,7.08,7.08,0,0,1-5.13,2.11A9.61,9.61,0,0,1,138.53,71a7.14,7.14,0,0,0-3.19-.8,7,7,0,0,0-7.07,7.07v27a8.47,8.47,0,0,1-1.89,5.87,7.43,7.43,0,0,1-10.37,0,8.47,8.47,0,0,1-1.88-5.87Z"/><path class="cls-1" d="M174.68,39.49a8.28,8.28,0,0,1,1.88-5.82,7.59,7.59,0,0,1,10.38,0,8.33,8.33,0,0,1,1.88,5.82V56h5.47a8.52,8.52,0,0,1,5.87,1.88,6.61,6.61,0,0,1,2.12,5.19,6.58,6.58,0,0,1-2.12,5.19,8.47,8.47,0,0,1-5.87,1.88h-5.47V89.43q0,7.3,6.5,8,7,.67,7,7.07a6.77,6.77,0,0,1-2.06,5.07,7.21,7.21,0,0,1-5.24,2,18.06,18.06,0,0,1-7.76-1.71,21.5,21.5,0,0,1-6.44-4.62,22.15,22.15,0,0,1-4.45-6.79,20.43,20.43,0,0,1-1.65-8.09V70.16h-1.6a8.33,8.33,0,0,1-5.76-1.88,6.57,6.57,0,0,1-2.11-5.19,6.6,6.6,0,0,1,2.11-5.19A8.38,8.38,0,0,1,173.08,56h1.6Z"/><path class="cls-1" d="M227.48,31.62a7.15,7.15,0,0,1,5.3,2.28A7.44,7.44,0,0,1,235,39.26,7.59,7.59,0,0,1,227.25,47a7.28,7.28,0,0,1-5.42-2.28,7.56,7.56,0,0,1-2.22-5.47,7.28,7.28,0,0,1,2.28-5.42A7.7,7.7,0,0,1,227.48,31.62Zm-7.19,31.59a8.31,8.31,0,0,1,1.89-5.76,7.43,7.43,0,0,1,10.37,0,8.36,8.36,0,0,1,1.88,5.76v41.05a8.52,8.52,0,0,1-1.88,5.87,7.43,7.43,0,0,1-10.37,0,8.47,8.47,0,0,1-1.89-5.87Z"/><path class="cls-1" d="M287.69,38.12q1.37-6.73,7.52-6.73a7.73,7.73,0,0,1,5.54,2.11A6.76,6.76,0,0,1,303,38.57c0,.61,0,1.14-.06,1.6a8,8,0,0,1-.28,1.48L288,104.26a10.87,10.87,0,0,1-3.48,5.93,9.33,9.33,0,0,1-6.21,2.17,9.11,9.11,0,0,1-6.16-2.17,11,11,0,0,1-3.42-5.93L254.05,41.65a14.52,14.52,0,0,1-.34-3.08A6.67,6.67,0,0,1,256,33.5a7.94,7.94,0,0,1,5.59-2.11q6,0,7.42,6.73l9.35,44.13Z"/><path class="cls-1" d="M326.46,85.9a10,10,0,0,0,.85,4.1A10.74,10.74,0,0,0,333,95.65a10,10,0,0,0,4.1.85q7.65,0,10.49-8.55,2.06-6,7.65-6a7.79,7.79,0,0,1,5.64,2.28,7.36,7.36,0,0,1,2.34,5.47,14.75,14.75,0,0,1-.91,4.51,25.28,25.28,0,0,1-2.29,5,26.12,26.12,0,0,1-22.92,13.23,25.29,25.29,0,0,1-10.26-2.11,27.17,27.17,0,0,1-14.08-14.09,25.09,25.09,0,0,1-2.11-10.26V57.85a25.51,25.51,0,0,1,2.11-10.32,27,27,0,0,1,5.7-8.44,26.41,26.41,0,0,1,8.38-5.65,25.75,25.75,0,0,1,10.26-2A26.12,26.12,0,0,1,360,44.62a25.28,25.28,0,0,1,2.29,5,14.7,14.7,0,0,1,.91,4.5,7.38,7.38,0,0,1-2.34,5.48,7.79,7.79,0,0,1-5.64,2.28q-5.59,0-7.65-6.05-2.85-8.55-10.49-8.55a10,10,0,0,0-4.1.86,10.77,10.77,0,0,0-5.65,5.64,10.05,10.05,0,0,0-.85,4.11Z"/></svg>