<svg version="1.1" viewBox="0.0 0.0 708.0 438.0" fill="none" stroke="none" stroke-linecap="square" stroke-miterlimit="10" width="708" height="438" xmlns:xlink="http://www.w3.org/1999/xlink" xmlns="http://www.w3.org/2000/svg"><path fill="#fbfbfb" d="M0 0L708.0 0L708.0 438.0L0 438.0L0 0Z" fill-rule="nonzero"/><path stroke="#2f2f2f" stroke-width="1.0" stroke-linecap="butt" d="M80.5 396.5L686.5 396.5" fill-rule="nonzero"/><path stroke="#c8c8c8" stroke-width="1.0" stroke-linecap="butt" d="M80.5 296.5L686.5 296.5" fill-rule="nonzero"/><path stroke="#c8c8c8" stroke-width="1.0" stroke-linecap="butt" d="M80.5 196.5L686.5 196.5" fill-rule="nonzero"/><path stroke="#c8c8c8" stroke-width="1.0" stroke-linecap="butt" d="M80.5 96.5L686.5 96.5" fill-rule="nonzero"/><clipPath id="id_0"><path d="M80.9 96.1L686.1 96.1L686.1 396.1L80.9 396.1L80.9 96.1Z" clip-rule="nonzero"/></clipPath><path stroke="#000000" stroke-width="2.0" stroke-linecap="butt" stroke-opacity="0.0" clip-path="url(#id_0)" d="M151.0 396.0L130.0 396.0L130.0 192.0C130.0 190.89543 130.89543 190.0 132.0 190.0L149.0 190.0C150.10457 190.0 151.0 190.89543 151.0 192.0Z" fill-rule="nonzero"/><path fill="#6fa8dc" clip-path="url(#id_0)" d="M151.0 396.0L130.0 396.0L130.0 192.0C130.0 190.89543 130.89543 190.0 132.0 190.0L149.0 190.0C150.10457 190.0 151.0 190.89543 151.0 192.0Z" fill-rule="nonzero"/><path stroke="#000000" stroke-width="2.0" stroke-linecap="butt" stroke-opacity="0.0" clip-path="url(#id_0)" d="M290.0 396.0L269.0 396.0L269.0 160.0C269.0 158.89543 269.89542 158.0 271.0 158.0L288.0 158.0C289.10458 158.0 290.0 158.89543 290.0 160.0Z" fill-rule="nonzero"/><path fill="#6fa8dc" clip-path="url(#id_0)" d="M290.0 396.0L269.0 396.0L269.0 160.0C269.0 158.89543 269.89542 158.0 271.0 158.0L288.0 158.0C289.10458 158.0 290.0 158.89543 290.0 160.0Z" fill-rule="nonzero"/><path stroke="#000000" stroke-width="2.0" stroke-linecap="butt" stroke-opacity="0.0" clip-path="url(#id_0)" d="M429.0 396.0L408.0 396.0L408.0 190.0C408.0 188.89543 408.89542 188.0 410.0 188.0L427.0 188.0C428.10458 188.0 429.0 188.89543 429.0 190.0Z" fill-rule="nonzero"/><path fill="#6fa8dc" clip-path="url(#id_0)" d="M429.0 396.0L408.0 396.0L408.0 190.0C408.0 188.89543 408.89542 188.0 410.0 188.0L427.0 188.0C428.10458 188.0 429.0 188.89543 429.0 190.0Z" fill-rule="nonzero"/><path stroke="#000000" stroke-width="2.0" stroke-linecap="butt" stroke-opacity="0.0" clip-path="url(#id_0)" d="M568.0 396.0L547.0 396.0L547.0 192.0C547.0 190.89543 547.89545 190.0 549.0 190.0L566.0 190.0C567.10455 190.0 568.0 190.89543 568.0 192.0Z" fill-rule="nonzero"/><path fill="#6fa8dc" clip-path="url(#id_0)" d="M568.0 396.0L547.0 396.0L547.0 192.0C547.0 190.89543 547.89545 190.0 549.0 190.0L566.0 190.0C567.10455 190.0 568.0 190.89543 568.0 192.0Z" fill-rule="nonzero"/><path stroke="#000000" stroke-width="2.0" stroke-linecap="butt" stroke-opacity="0.0" clip-path="url(#id_0)" d="M174.0 396.0L153.0 396.0L153.0 192.0C153.0 190.89543 153.89543 190.0 155.0 190.0L172.0 190.0C173.10457 190.0 174.0 190.89543 174.0 192.0Z" fill-rule="nonzero"/><path fill="#e06666" clip-path="url(#id_0)" d="M174.0 396.0L153.0 396.0L153.0 192.0C153.0 190.89543 153.89543 190.0 155.0 190.0L172.0 190.0C173.10457 190.0 174.0 190.89543 174.0 192.0Z" fill-rule="nonzero"/><path stroke="#000000" stroke-width="2.0" stroke-linecap="butt" stroke-opacity="0.0" clip-path="url(#id_0)" d="M313.0 396.0L292.0 396.0L292.0 393.0C292.0 391.89542 292.89542 391.0 294.0 391.0L311.0 391.0C312.10458 391.0 313.0 391.89542 313.0 393.0Z" fill-rule="nonzero"/><path fill="#e06666" clip-path="url(#id_0)" d="M313.0 396.0L292.0 396.0L292.0 393.0C292.0 391.89542 292.89542 391.0 294.0 391.0L311.0 391.0C312.10458 391.0 313.0 391.89542 313.0 393.0Z" fill-rule="nonzero"/><path stroke="#000000" stroke-width="2.0" stroke-linecap="butt" stroke-opacity="0.0" clip-path="url(#id_0)" d="M452.0 396.0L431.0 396.0L431.0 395.0C431.0 394.44772 431.44772 394.0 432.0 394.0L451.0 394.0C451.55228 394.0 452.0 394.44772 452.0 395.0Z" fill-rule="nonzero"/><path fill="#e06666" clip-path="url(#id_0)" d="M452.0 396.0L431.0 396.0L431.0 395.0C431.0 394.44772 431.44772 394.0 432.0 394.0L451.0 394.0C451.55228 394.0 452.0 394.44772 452.0 395.0Z" fill-rule="nonzero"/><path stroke="#000000" stroke-width="2.0" stroke-linecap="butt" stroke-opacity="0.0" clip-path="url(#id_0)" d="M591.0 396.0L570.0 396.0L570.0 395.0C570.0 394.44772 570.4477 394.0 571.0 394.0L590.0 394.0C590.5523 394.0 591.0 394.44772 591.0 395.0Z" fill-rule="nonzero"/><path fill="#e06666" clip-path="url(#id_0)" d="M591.0 396.0L570.0 396.0L570.0 395.0C570.0 394.44772 570.4477 394.0 571.0 394.0L590.0 394.0C590.5523 394.0 591.0 394.44772 591.0 395.0Z" fill-rule="nonzero"/><path stroke="#000000" stroke-width="2.0" stroke-linecap="butt" stroke-opacity="0.0" clip-path="url(#id_0)" d="M197.0 396.0L176.0 396.0L176.0 172.0C176.0 170.89543 176.89543 170.0 178.0 170.0L195.0 170.0C196.10457 170.0 197.0 170.89543 197.0 172.0Z" fill-rule="nonzero"/><path fill="#ffd966" clip-path="url(#id_0)" d="M197.0 396.0L176.0 396.0L176.0 172.0C176.0 170.89543 176.89543 170.0 178.0 170.0L195.0 170.0C196.10457 170.0 197.0 170.89543 197.0 172.0Z" fill-rule="nonzero"/><path stroke="#000000" stroke-width="2.0" stroke-linecap="butt" stroke-opacity="0.0" clip-path="url(#id_0)" d="M336.0 396.0L315.0 396.0L315.0 114.0C315.0 112.89543 315.89542 112.0 317.0 112.0L334.0 112.0C335.10458 112.0 336.0 112.89543 336.0 114.0Z" fill-rule="nonzero"/><path fill="#ffd966" clip-path="url(#id_0)" d="M336.0 396.0L315.0 396.0L315.0 114.0C315.0 112.89543 315.89542 112.0 317.0 112.0L334.0 112.0C335.10458 112.0 336.0 112.89543 336.0 114.0Z" fill-rule="nonzero"/><path stroke="#000000" stroke-width="2.0" stroke-linecap="butt" stroke-opacity="0.0" clip-path="url(#id_0)" d="M475.0 396.0L454.0 396.0L454.0 224.0C454.0 222.89543 454.89542 222.0 456.0 222.0L473.0 222.0C474.10458 222.0 475.0 222.89543 475.0 224.0Z" fill-rule="nonzero"/><path fill="#ffd966" clip-path="url(#id_0)" d="M475.0 396.0L454.0 396.0L454.0 224.0C454.0 222.89543 454.89542 222.0 456.0 222.0L473.0 222.0C474.10458 222.0 475.0 222.89543 475.0 224.0Z" fill-rule="nonzero"/><path stroke="#000000" stroke-width="2.0" stroke-linecap="butt" stroke-opacity="0.0" clip-path="url(#id_0)" d="M614.0 396.0L593.0 396.0L593.0 218.0C593.0 216.89543 593.89545 216.0 595.0 216.0L612.0 216.0C613.10455 216.0 614.0 216.89543 614.0 218.0Z" fill-rule="nonzero"/><path fill="#ffd966" clip-path="url(#id_0)" d="M614.0 396.0L593.0 396.0L593.0 218.0C593.0 216.89543 593.89545 216.0 595.0 216.0L612.0 216.0C613.10455 216.0 614.0 216.89543 614.0 218.0Z" fill-rule="nonzero"/><path stroke="#000000" stroke-width="2.0" stroke-linecap="butt" stroke-opacity="0.0" clip-path="url(#id_0)" d="M220.0 396.0L199.0 396.0L199.0 172.0C199.0 170.89543 199.89543 170.0 201.0 170.0L218.0 170.0C219.10457 170.0 220.0 170.89543 220.0 172.0Z" fill-rule="nonzero"/><path fill="#93c47d" clip-path="url(#id_0)" d="M220.0 396.0L199.0 396.0L199.0 172.0C199.0 170.89543 199.89543 170.0 201.0 170.0L218.0 170.0C219.10457 170.0 220.0 170.89543 220.0 172.0Z" fill-rule="nonzero"/><path stroke="#000000" stroke-width="2.0" stroke-linecap="butt" stroke-opacity="0.0" clip-path="url(#id_0)" d="M359.0 396.0L338.0 396.0L338.0 393.0C338.0 391.89542 338.89542 391.0 340.0 391.0L357.0 391.0C358.10458 391.0 359.0 391.89542 359.0 393.0Z" fill-rule="nonzero"/><path fill="#93c47d" clip-path="url(#id_0)" d="M359.0 396.0L338.0 396.0L338.0 393.0C338.0 391.89542 338.89542 391.0 340.0 391.0L357.0 391.0C358.10458 391.0 359.0 391.89542 359.0 393.0Z" fill-rule="nonzero"/><path stroke="#000000" stroke-width="2.0" stroke-linecap="butt" stroke-opacity="0.0" clip-path="url(#id_0)" d="M498.0 396.0L477.0 396.0L477.0 395.0C477.0 394.44772 477.44772 394.0 478.0 394.0L497.0 394.0C497.55228 394.0 498.0 394.44772 498.0 395.0Z" fill-rule="nonzero"/><path fill="#93c47d" clip-path="url(#id_0)" d="M498.0 396.0L477.0 396.0L477.0 395.0C477.0 394.44772 477.44772 394.0 478.0 394.0L497.0 394.0C497.55228 394.0 498.0 394.44772 498.0 395.0Z" fill-rule="nonzero"/><path stroke="#000000" stroke-width="2.0" stroke-linecap="butt" stroke-opacity="0.0" clip-path="url(#id_0)" d="M637.0 396.0L616.0 396.0L616.0 395.0C616.0 394.44772 616.4477 394.0 617.0 394.0L636.0 394.0C636.5523 394.0 637.0 394.44772 637.0 395.0Z" fill-rule="nonzero"/><path fill="#93c47d" clip-path="url(#id_0)" d="M637.0 396.0L616.0 396.0L616.0 395.0C616.0 394.44772 616.4477 394.0 617.0 394.0L636.0 394.0C636.5523 394.0 637.0 394.44772 637.0 395.0Z" fill-rule="nonzero"/><path fill="#000000" d="M31.04063 276.225L30.88438 275.19376Q31.50938 275.1 31.837505 274.70938Q32.16563 274.30313 32.16563 273.56876Q32.16563 272.85 31.88438 272.50626Q31.587505 272.14688 31.181255 272.14688Q30.82188 272.14688 30.618755 272.45938Q30.47813 272.67813 30.25938 273.5375Q29.962505 274.69376 29.75938 275.14688Q29.54063 275.58438 29.16563 275.81876Q28.79063 276.05313 28.32188 276.05313Q27.91563 276.05313 27.556255 275.86563Q27.19688 275.67813 26.962505 275.35Q26.79063 275.1 26.66563 274.67813Q26.54063 274.25626 26.54063 273.75626Q26.54063 273.0375 26.75938 272.49063Q26.962505 271.92813 27.32188 271.6625Q27.681255 271.39688 28.275005 271.30313L28.41563 272.33438Q27.94688 272.39688 27.681255 272.74063Q27.400005 273.06876 27.400005 273.69376Q27.400005 274.4125 27.650005 274.725Q27.88438 275.0375 28.212505 275.0375Q28.41563 275.0375 28.57188 274.9125Q28.743755 274.77188 28.85313 274.50626Q28.91563 274.35 29.118755 273.56876Q29.431255 272.44376 29.618755 272.00626Q29.806255 271.56876 30.16563 271.31876Q30.525005 271.06876 31.07188 271.06876Q31.60313 271.06876 32.07188 271.38126Q32.525005 271.67813 32.79063 272.25626Q33.04063 272.83438 33.04063 273.56876Q33.04063 274.7875 32.54063 275.42813Q32.025005 276.05313 31.04063 276.225ZM30.900005 264.55313L31.025005 263.45938Q31.97813 263.70938 32.50938 264.4125Q33.04063 265.11563 33.04063 266.19376Q33.04063 267.55313 32.19688 268.36563Q31.35313 269.1625 29.837505 269.1625Q28.275005 269.1625 27.41563 268.35Q26.54063 267.5375 26.54063 266.25626Q26.54063 265.00626 27.38438 264.225Q28.22813 263.42813 29.775005 263.42813Q29.868755 263.42813 30.056255 263.42813L30.056255 268.06876Q31.087505 268.00626 31.63438 267.49063Q32.16563 266.975 32.16563 266.19376Q32.16563 265.61563 31.868755 265.20938Q31.556255 264.7875 30.900005 264.55313ZM29.19688 268.00626L29.19688 264.5375Q28.400005 264.6 28.00938 264.92813Q27.400005 265.44376 27.400005 266.24063Q27.400005 266.975 27.88438 267.475Q28.368755 267.95938 29.19688 268.00626ZM30.618755 257.74063L30.75938 256.70938Q31.82188 256.88126 32.431255 257.58438Q33.04063 258.2875 33.04063 259.30313Q33.04063 260.58438 32.212505 261.36563Q31.368755 262.13126 29.806255 262.13126Q28.806255 262.13126 28.056255 261.80313Q27.29063 261.45938 26.91563 260.7875Q26.54063 260.1 26.54063 259.2875Q26.54063 258.2875 27.056255 257.64688Q27.556255 256.99063 28.50938 256.80313L28.66563 257.83438Q28.04063 257.975 27.72813 258.35Q27.400005 258.725 27.400005 259.25626Q27.400005 260.05313 27.97813 260.55313Q28.54063 261.05313 29.775005 261.05313Q31.04063 261.05313 31.60313 260.56876Q32.16563 260.08438 32.16563 259.31876Q32.16563 258.69376 31.79063 258.2875Q31.41563 257.86563 30.618755 257.74063ZM29.79063 256.19376Q28.056255 256.19376 27.22813 255.24063Q26.54063 254.44376 26.54063 253.2875Q26.54063 252.00626 27.38438 251.19376Q28.212505 250.36563 29.69688 250.36563Q30.900005 250.36563 31.587505 250.725Q32.275005 251.08438 32.66563 251.7875Q33.04063 252.475 33.04063 253.2875Q33.04063 254.58438 32.212505 255.39688Q31.368755 256.19376 29.79063 256.19376ZM29.79063 255.11563Q30.97813 255.11563 31.57188 254.6Q32.16563 254.06876 32.16563 253.2875Q32.16563 252.49063 31.57188 251.975Q30.97813 251.45938 29.75938 251.45938Q28.60313 251.45938 28.00938 251.99063Q27.41563 252.50626 27.41563 253.2875Q27.41563 254.06876 28.00938 254.6Q28.587505 255.11563 29.79063 255.11563ZM32.900005 248.80313L26.681255 248.80313L26.681255 247.86563L27.556255 247.86563Q26.54063 247.17813 26.54063 245.88126Q26.54063 245.31876 26.743755 244.85Q26.94688 244.36563 27.275005 244.13126Q27.60313 243.89688 28.04063 243.80313Q28.337505 243.75626 29.07188 243.75626L32.900005 243.75626L32.900005 244.80313L29.118755 244.80313Q28.462505 244.80313 28.150005 244.92813Q27.837505 245.05313 27.650005 245.36563Q27.44688 245.67813 27.44688 246.1Q27.44688 246.77188 27.88438 247.27188Q28.306255 247.75626 29.493755 247.75626L32.900005 247.75626L32.900005 248.80313ZM32.900005 237.77188L32.118755 237.77188Q33.04063 238.36563 33.04063 239.50626Q33.04063 240.25626 32.63438 240.88126Q32.212505 241.50626 31.47813 241.85Q30.743755 242.19376 29.79063 242.19376Q28.868755 242.19376 28.10313 241.88126Q27.337505 241.56876 26.94688 240.94376Q26.54063 240.31876 26.54063 239.55313Q26.54063 238.99063 26.775005 238.55313Q27.00938 238.11563 27.38438 237.83438L24.306255 237.83438L24.306255 236.7875L32.900005 236.7875L32.900005 237.77188ZM29.79063 241.1Q30.993755 241.1 31.587505 240.6Q32.16563 240.1 32.16563 239.4125Q32.16563 238.725 31.60313 238.24063Q31.04063 237.75626 29.88438 237.75626Q28.60313 237.75626 28.00938 238.25626Q27.41563 238.74063 27.41563 239.45938Q27.41563 240.1625 27.993755 240.63126Q28.556255 241.1 29.79063 241.1ZM31.04063 235.225L30.88438 234.19376Q31.50938 234.1 31.837505 233.70938Q32.16563 233.30313 32.16563 232.56876Q32.16563 231.85 31.88438 231.50626Q31.587505 231.14688 31.181255 231.14688Q30.82188 231.14688 30.618755 231.45938Q30.47813 231.67813 30.25938 232.5375Q29.962505 233.69376 29.75938 234.14688Q29.54063 234.58438 29.16563 234.81876Q28.79063 235.05313 28.32188 235.05313Q27.91563 235.05313 27.556255 234.86563Q27.19688 234.67813 26.962505 234.35Q26.79063 234.1 26.66563 233.67813Q26.54063 233.25626 26.54063 232.75626Q26.54063 232.0375 26.75938 231.49063Q26.962505 230.92813 27.32188 230.6625Q27.681255 230.39688 28.275005 230.30313L28.41563 231.33438Q27.94688 231.39688 27.681255 231.74063Q27.400005 232.06876 27.400005 232.69376Q27.400005 233.4125 27.650005 233.725Q27.88438 234.0375 28.212505 234.0375Q28.41563 234.0375 28.57188 233.9125Q28.743755 233.77188 28.85313 233.50626Q28.91563 233.35 29.118755 232.56876Q29.431255 231.44376 29.618755 231.00626Q29.806255 230.56876 30.16563 230.31876Q30.525005 230.06876 31.07188 230.06876Q31.60313 230.06876 32.07188 230.38126Q32.525005 230.67813 32.79063 231.25626Q33.04063 231.83438 33.04063 232.56876Q33.04063 233.7875 32.54063 234.42813Q32.025005 235.05313 31.04063 235.225Z" fill-rule="nonzero"/><path fill="#000000" d="M68.4 395.86563Q68.4 394.33438 68.7125 393.4125Q69.025 392.475 69.63438 391.975Q70.25938 391.475 71.19688 391.475Q71.88438 391.475 72.4 391.75626Q72.93125 392.0375 73.275 392.56876Q73.61875 393.08438 73.80625 393.83438Q73.99375 394.58438 73.99375 395.86563Q73.99375 397.38126 73.68125 398.30313Q73.38438 399.225 72.75938 399.74063Q72.15 400.24063 71.19688 400.24063Q69.9625 400.24063 69.24375 399.35Q68.4 398.2875 68.4 395.86563ZM69.47813 395.86563Q69.47813 397.975 69.97813 398.67813Q70.47813 399.38126 71.19688 399.38126Q71.93125 399.38126 72.41563 398.67813Q72.91563 397.975 72.91563 395.86563Q72.91563 393.74063 72.41563 393.05313Q71.93125 392.35 71.18125 392.35Q70.4625 392.35 70.025 392.95938Q69.47813 393.74063 69.47813 395.86563Z" fill-rule="nonzero"/><path fill="#000000" d="M61.4 297.85L62.509377 297.75626Q62.634377 298.56876 63.071877 298.975Q63.525 299.38126 64.16563 299.38126Q64.91563 299.38126 65.44688 298.80313Q65.97813 298.225 65.97813 297.2875Q65.97813 296.38126 65.4625 295.86563Q64.9625 295.33438 64.13438 295.33438Q63.634377 295.33438 63.2125 295.56876Q62.80625 295.80313 62.571877 296.1625L61.5875 296.0375L62.415627 291.63126L66.69688 291.63126L66.69688 292.63126L63.259377 292.63126L62.80625 294.94376Q63.571877 294.39688 64.41563 294.39688Q65.54063 294.39688 66.30625 295.17813Q67.0875 295.95938 67.0875 297.19376Q67.0875 298.35 66.41563 299.20938Q65.5875 300.24063 64.16563 300.24063Q62.99375 300.24063 62.24375 299.58438Q61.509377 298.92813 61.4 297.85ZM68.4 295.86563Q68.4 294.33438 68.7125 293.4125Q69.025 292.475 69.63438 291.975Q70.25938 291.475 71.19688 291.475Q71.88438 291.475 72.4 291.75626Q72.93125 292.0375 73.275 292.56876Q73.61875 293.08438 73.80625 293.83438Q73.99375 294.58438 73.99375 295.86563Q73.99375 297.38126 73.68125 298.30313Q73.38438 299.225 72.75938 299.74063Q72.15 300.24063 71.19688 300.24063Q69.9625 300.24063 69.24375 299.35Q68.4 298.2875 68.4 295.86563ZM69.47813 295.86563Q69.47813 297.975 69.97813 298.67813Q70.47813 299.38126 71.19688 299.38126Q71.93125 299.38126 72.41563 298.67813Q72.91563 297.975 72.91563 295.86563Q72.91563 293.74063 72.41563 293.05313Q71.93125 292.35 71.18125 292.35Q70.4625 292.35 70.025 292.95938Q69.47813 293.74063 69.47813 295.86563Z" fill-rule="nonzero"/><path fill="#000000" d="M58.36875 200.1L57.321877 200.1L57.321877 193.38126Q56.93125 193.74063 56.30625 194.11563Q55.696877 194.475 55.2125 194.64688L55.2125 193.63126Q56.0875 193.20938 56.74375 192.63126Q57.415627 192.0375 57.696877 191.475L58.36875 191.475L58.36875 200.1ZM61.4 195.86563Q61.4 194.33438 61.7125 193.4125Q62.025 192.475 62.634377 191.975Q63.259377 191.475 64.19688 191.475Q64.88438 191.475 65.4 191.75626Q65.93125 192.0375 66.275 192.56876Q66.61875 193.08438 66.80625 193.83438Q66.99375 194.58438 66.99375 195.86563Q66.99375 197.38126 66.68125 198.30313Q66.38438 199.225 65.75938 199.74063Q65.15 200.24063 64.19688 200.24063Q62.9625 200.24063 62.24375 199.35Q61.4 198.2875 61.4 195.86563ZM62.478127 195.86563Q62.478127 197.975 62.978127 198.67813Q63.478127 199.38126 64.19688 199.38126Q64.93125 199.38126 65.41563 198.67813Q65.91563 197.975 65.91563 195.86563Q65.91563 193.74063 65.41563 193.05313Q64.93125 192.35 64.18125 192.35Q63.4625 192.35 63.025 192.95938Q62.478127 193.74063 62.478127 195.86563ZM68.4 195.86563Q68.4 194.33438 68.7125 193.4125Q69.025 192.475 69.63438 191.975Q70.25938 191.475 71.19688 191.475Q71.88438 191.475 72.4 191.75626Q72.93125 192.0375 73.275 192.56876Q73.61875 193.08438 73.80625 193.83438Q73.99375 194.58438 73.99375 195.86563Q73.99375 197.38126 73.68125 198.30313Q73.38438 199.225 72.75938 199.74063Q72.15 200.24063 71.19688 200.24063Q69.9625 200.24063 69.24375 199.35Q68.4 198.2875 68.4 195.86563ZM69.47813 195.86563Q69.47813 197.975 69.97813 198.67813Q70.47813 199.38126 71.19688 199.38126Q71.93125 199.38126 72.41563 198.67813Q72.91563 197.975 72.91563 195.86563Q72.91563 193.74063 72.41563 193.05313Q71.93125 192.35 71.18125 192.35Q70.4625 192.35 70.025 192.95938Q69.47813 193.74063 69.47813 195.86563Z" fill-rule="nonzero"/><path fill="#000000" d="M58.36875 100.1L57.321877 100.1L57.321877 93.38125Q56.93125 93.74062 56.30625 94.11562Q55.696877 94.475 55.2125 94.64687L55.2125 93.63125Q56.0875 93.20937 56.74375 92.63125Q57.415627 92.0375 57.696877 91.475L58.36875 91.475L58.36875 100.1ZM61.4 97.85L62.509377 97.75625Q62.634377 98.56875 63.071877 98.975Q63.525 99.38125 64.16563 99.38125Q64.91563 99.38125 65.44688 98.80312Q65.97813 98.225 65.97813 97.2875Q65.97813 96.38125 65.4625 95.86562Q64.9625 95.33437 64.13438 95.33437Q63.634377 95.33437 63.2125 95.56875Q62.80625 95.80312 62.571877 96.1625L61.5875 96.0375L62.415627 91.63125L66.69688 91.63125L66.69688 92.63125L63.259377 92.63125L62.80625 94.94375Q63.571877 94.39687 64.41563 94.39687Q65.54063 94.39687 66.30625 95.17812Q67.0875 95.95937 67.0875 97.19375Q67.0875 98.35 66.41563 99.20937Q65.5875 100.24062 64.16563 100.24062Q62.99375 100.24062 62.24375 99.58437Q61.509377 98.92812 61.4 97.85ZM68.4 95.86562Q68.4 94.33437 68.7125 93.4125Q69.025 92.475 69.63438 91.975Q70.25938 91.475 71.19688 91.475Q71.88438 91.475 72.4 91.75625Q72.93125 92.0375 73.275 92.56875Q73.61875 93.08437 73.80625 93.83437Q73.99375 94.58437 73.99375 95.86562Q73.99375 97.38125 73.68125 98.30312Q73.38438 99.225 72.75938 99.74062Q72.15 100.24062 71.19688 100.24062Q69.9625 100.24062 69.24375 99.35Q68.4 98.2875 68.4 95.86562ZM69.47813 95.86562Q69.47813 97.975 69.97813 98.67812Q70.47813 99.38125 71.19688 99.38125Q71.93125 99.38125 72.41563 98.67812Q72.91563 97.975 72.91563 95.86562Q72.91563 93.74062 72.41563 93.05312Q71.93125 92.35 71.18125 92.35Q70.4625 92.35 70.025 92.95937Q69.47813 93.74062 69.47813 95.86562Z" fill-rule="nonzero"/><path fill="#000000" d="M150.79472 413.1L154.0916 404.50626L155.31035 404.50626L158.82597 413.1L157.54472 413.1L156.5291 410.49063L152.95097 410.49063L151.99785 413.1L150.79472 413.1ZM153.2791 409.56876L156.18535 409.56876L155.29472 407.19376Q154.87285 406.11563 154.68535 405.4125Q154.51347 406.24063 154.2166 407.05313L153.2791 409.56876ZM160.23222 413.1L157.95097 404.50626L159.12285 404.50626L160.43535 410.14688Q160.63847 411.02188 160.79472 411.89688Q161.12285 410.52188 161.18535 410.30313L162.81035 404.50626L164.18535 404.50626L165.41972 408.85Q165.87285 410.475 166.0916 411.89688Q166.24785 411.08438 166.51347 410.02188L167.85722 404.50626L168.99785 404.50626L166.6541 413.1L165.54472 413.1L163.74785 406.55313Q163.51347 405.74063 163.4666 405.55313Q163.3416 406.13126 163.2166 406.55313L161.4041 413.1L160.23222 413.1ZM169.35722 410.33438L170.41972 410.24063Q170.49785 410.89688 170.7791 411.30313Q171.06035 411.70938 171.63847 411.975Q172.23222 412.225 172.9666 412.225Q173.60722 412.225 174.10722 412.0375Q174.60722 411.83438 174.8416 411.50626Q175.0916 411.1625 175.0916 410.77188Q175.0916 410.36563 174.85722 410.06876Q174.62285 409.75626 174.0916 409.55313Q173.73222 409.4125 172.54472 409.13126Q171.37285 408.85 170.9041 408.6Q170.2791 408.27188 169.98222 407.80313Q169.68535 407.31876 169.68535 406.725Q169.68535 406.08438 170.04472 405.52188Q170.41972 404.94376 171.12285 404.6625Q171.8416 404.36563 172.70097 404.36563Q173.6541 404.36563 174.38847 404.67813Q175.12285 404.975 175.51347 405.58438Q175.9041 406.17813 175.93535 406.92813L174.8416 407.00626Q174.74785 406.19376 174.23222 405.7875Q173.73222 405.36563 172.74785 405.36563Q171.7166 405.36563 171.24785 405.74063Q170.7791 406.11563 170.7791 406.64688Q170.7791 407.11563 171.10722 407.4125Q171.43535 407.70938 172.81035 408.02188Q174.20097 408.33438 174.7166 408.56876Q175.4666 408.92813 175.82597 409.45938Q176.18535 409.975 176.18535 410.67813Q176.18535 411.36563 175.79472 411.975Q175.4041 412.56876 174.66972 412.9125Q173.93535 413.24063 173.01347 413.24063Q171.8416 413.24063 171.04472 412.9125Q170.26347 412.56876 169.81035 411.88126Q169.37285 411.19376 169.35722 410.33438ZM186.87285 410.08438L187.99785 410.38126Q187.63847 411.77188 186.7166 412.50626Q185.79472 413.24063 184.45097 413.24063Q183.06035 413.24063 182.18535 412.67813Q181.31035 412.11563 180.85722 411.05313Q180.4041 409.975 180.4041 408.74063Q180.4041 407.39688 180.91972 406.39688Q181.43535 405.39688 182.37285 404.88126Q183.32597 404.36563 184.4666 404.36563Q185.74785 404.36563 186.62285 405.02188Q187.51347 405.67813 187.85722 406.86563L186.73222 407.13126Q186.43535 406.19376 185.85722 405.77188Q185.29472 405.33438 184.43535 405.33438Q183.45097 405.33438 182.7791 405.81876Q182.12285 406.2875 181.8416 407.08438Q181.57597 407.88126 181.57597 408.74063Q181.57597 409.83438 181.88847 410.64688Q182.2166 411.45938 182.88847 411.86563Q183.56035 412.27188 184.35722 412.27188Q185.31035 412.27188 185.9666 411.725Q186.63847 411.17813 186.87285 410.08438ZM189.68535 413.1L189.68535 404.50626L190.82597 404.50626L190.82597 412.08438L195.06035 412.08438L195.06035 413.1L189.68535 413.1ZM196.93535 413.1L196.93535 404.50626L198.06035 404.50626L198.06035 413.1L196.93535 413.1Z" fill-rule="nonzero"/><path fill="#000000" d="M295.37427 413.1L295.37427 404.50626L299.18677 404.50626Q300.34302 404.50626 300.93677 404.74063Q301.53052 404.975 301.8899 405.56876Q302.24927 406.14688 302.24927 406.85Q302.24927 407.77188 301.65552 408.39688Q301.06177 409.02188 299.8274 409.19376Q300.28052 409.4125 300.5149 409.61563Q301.0149 410.06876 301.4524 410.75626L302.9524 413.1L301.5149 413.1L300.3899 411.31876Q299.8899 410.5375 299.56177 410.13126Q299.24927 409.725 298.98364 409.56876Q298.73364 409.39688 298.46802 409.31876Q298.28052 409.2875 297.84302 409.2875L296.5149 409.2875L296.5149 413.1L295.37427 413.1ZM296.5149 408.30313L298.96802 408.30313Q299.73364 408.30313 300.17114 408.14688Q300.62427 407.975 300.84302 407.63126Q301.0774 407.27188 301.0774 406.85Q301.0774 406.24063 300.62427 405.85Q300.18677 405.45938 299.23364 405.45938L296.5149 405.45938L296.5149 408.30313ZM308.29614 410.81876L309.3274 410.95938Q309.15552 412.02188 308.4524 412.63126Q307.74927 413.24063 306.73364 413.24063Q305.4524 413.24063 304.67114 412.4125Q303.90552 411.56876 303.90552 410.00626Q303.90552 409.00626 304.23364 408.25626Q304.5774 407.49063 305.24927 407.11563Q305.93677 406.74063 306.74927 406.74063Q307.74927 406.74063 308.3899 407.25626Q309.04614 407.75626 309.23364 408.70938L308.2024 408.86563Q308.06177 408.24063 307.68677 407.92813Q307.31177 407.6 306.78052 407.6Q305.98364 407.6 305.48364 408.17813Q304.98364 408.74063 304.98364 409.975Q304.98364 411.24063 305.46802 411.80313Q305.9524 412.36563 306.71802 412.36563Q307.34302 412.36563 307.74927 411.99063Q308.17114 411.61563 308.29614 410.81876ZM310.2024 413.1L310.2024 404.50626L311.2649 404.50626L311.2649 413.1L310.2024 413.1ZM312.84302 409.99063Q312.84302 408.25626 313.79614 407.42813Q314.59302 406.74063 315.74927 406.74063Q317.03052 406.74063 317.84302 407.58438Q318.67114 408.4125 318.67114 409.89688Q318.67114 411.1 318.31177 411.7875Q317.9524 412.475 317.24927 412.86563Q316.56177 413.24063 315.74927 413.24063Q314.4524 413.24063 313.6399 412.4125Q312.84302 411.56876 312.84302 409.99063ZM313.92114 409.99063Q313.92114 411.17813 314.43677 411.77188Q314.96802 412.36563 315.74927 412.36563Q316.54614 412.36563 317.06177 411.77188Q317.5774 411.17813 317.5774 409.95938Q317.5774 408.80313 317.04614 408.20938Q316.53052 407.61563 315.74927 407.61563Q314.96802 407.61563 314.43677 408.20938Q313.92114 408.7875 313.92114 409.99063ZM320.23364 413.1L320.23364 406.88126L321.17114 406.88126L321.17114 407.75626Q321.85864 406.74063 323.15552 406.74063Q323.71802 406.74063 324.18677 406.94376Q324.67114 407.14688 324.90552 407.475Q325.1399 407.80313 325.23364 408.24063Q325.28052 408.5375 325.28052 409.27188L325.28052 413.1L324.23364 413.1L324.23364 409.31876Q324.23364 408.6625 324.10864 408.35Q323.98364 408.0375 323.67114 407.85Q323.35864 407.64688 322.93677 407.64688Q322.2649 407.64688 321.7649 408.08438Q321.28052 408.50626 321.28052 409.69376L321.28052 413.1L320.23364 413.1ZM331.48364 411.1L332.5774 411.225Q332.3274 412.17813 331.62427 412.70938Q330.92114 413.24063 329.84302 413.24063Q328.48364 413.24063 327.67114 412.39688Q326.87427 411.55313 326.87427 410.0375Q326.87427 408.475 327.68677 407.61563Q328.49927 406.74063 329.78052 406.74063Q331.03052 406.74063 331.81177 407.58438Q332.60864 408.42813 332.60864 409.975Q332.60864 410.06876 332.60864 410.25626L327.96802 410.25626Q328.03052 411.2875 328.54614 411.83438Q329.06177 412.36563 329.84302 412.36563Q330.42114 412.36563 330.8274 412.06876Q331.24927 411.75626 331.48364 411.1ZM328.03052 409.39688L331.49927 409.39688Q331.43677 408.6 331.10864 408.20938Q330.59302 407.6 329.79614 407.6Q329.06177 407.6 328.56177 408.08438Q328.0774 408.56876 328.03052 409.39688Z" fill-rule="nonzero"/><path fill="#000000" d="M441.4851 413.1L441.4851 404.50626L444.45386 404.50626Q445.45386 404.50626 445.9851 404.63126Q446.71948 404.80313 447.2351 405.24063Q447.9226 405.81876 448.25073 406.725Q448.59448 407.61563 448.59448 408.75626Q448.59448 409.74063 448.3601 410.49063Q448.14136 411.24063 447.78198 411.74063Q447.4226 412.24063 446.9851 412.52188Q446.56323 412.80313 445.96948 412.95938Q445.37573 413.1 444.59448 413.1L441.4851 413.1ZM442.62573 412.08438L444.45386 412.08438Q445.31323 412.08438 445.7976 411.92813Q446.28198 411.77188 446.56323 411.475Q446.96948 411.08438 447.18823 410.39688Q447.4226 409.70938 447.4226 408.74063Q447.4226 407.39688 446.96948 406.67813Q446.53198 405.94376 445.90698 405.69376Q445.43823 405.52188 444.43823 405.52188L442.62573 405.52188L442.62573 412.08438ZM452.93823 413.1L449.6101 404.50626L450.84448 404.50626L453.07886 410.75626Q453.34448 411.50626 453.53198 412.1625Q453.7351 411.45938 454.00073 410.75626L456.31323 404.50626L457.46948 404.50626L454.1101 413.1L452.93823 413.1ZM463.62573 410.08438L464.75073 410.38126Q464.39136 411.77188 463.46948 412.50626Q462.5476 413.24063 461.20386 413.24063Q459.81323 413.24063 458.93823 412.67813Q458.06323 412.11563 457.6101 411.05313Q457.15698 409.975 457.15698 408.74063Q457.15698 407.39688 457.6726 406.39688Q458.18823 405.39688 459.12573 404.88126Q460.07886 404.36563 461.21948 404.36563Q462.50073 404.36563 463.37573 405.02188Q464.26636 405.67813 464.6101 406.86563L463.4851 407.13126Q463.18823 406.19376 462.6101 405.77188Q462.0476 405.33438 461.18823 405.33438Q460.20386 405.33438 459.53198 405.81876Q458.87573 406.2875 458.59448 407.08438Q458.32886 407.88126 458.32886 408.74063Q458.32886 409.83438 458.64136 410.64688Q458.96948 411.45938 459.64136 411.86563Q460.31323 412.27188 461.1101 412.27188Q462.06323 412.27188 462.71948 411.725Q463.39136 411.17813 463.62573 410.08438Z" fill-rule="nonzero"/><path fill="#000000" d="M575.674 413.1L578.9709 404.50626L580.18964 404.50626L583.70526 413.1L582.424 413.1L581.4084 410.49063L577.83026 410.49063L576.87714 413.1L575.674 413.1ZM578.1584 409.56876L581.06464 409.56876L580.174 407.19376Q579.75214 406.11563 579.56464 405.4125Q579.39276 406.24063 579.0959 407.05313L578.1584 409.56876ZM583.4709 413.1L583.4709 406.88126L584.424 406.88126L584.424 407.81876Q584.7834 407.1625 585.08026 406.95938Q585.39276 406.74063 585.76776 406.74063Q586.299 406.74063 586.8459 407.06876L586.4865 408.05313Q586.0959 407.81876 585.7209 407.81876Q585.3615 407.81876 585.08026 408.0375Q584.81464 408.24063 584.70526 408.61563Q584.51776 409.17813 584.51776 409.83438L584.51776 413.1L583.4709 413.1ZM589.7834 412.1625L589.93964 413.08438Q589.4865 413.17813 589.14276 413.17813Q588.56464 413.17813 588.25214 413.00626Q587.93964 412.81876 587.799 412.52188Q587.674 412.225 587.674 411.27188L587.674 407.69376L586.9084 407.69376L586.9084 406.88126L587.674 406.88126L587.674 405.33438L588.7209 404.70938L588.7209 406.88126L589.7834 406.88126L589.7834 407.69376L588.7209 407.69376L588.7209 411.33438Q588.7209 411.7875 588.76776 411.9125Q588.83026 412.0375 588.95526 412.11563Q589.08026 412.19376 589.31464 412.19376Q589.50214 412.19376 589.7834 412.1625ZM590.4865 405.725L590.4865 404.50626L591.549 404.50626L591.549 405.725L590.4865 405.725ZM590.4865 413.1L590.4865 406.88126L591.549 406.88126L591.549 413.1L590.4865 413.1ZM596.06464 413.1L592.7365 404.50626L593.9709 404.50626L596.20526 410.75626Q596.4709 411.50626 596.6584 412.1625Q596.8615 411.45938 597.12714 410.75626L599.43964 404.50626L600.5959 404.50626L597.2365 413.1L596.06464 413.1ZM606.75214 410.08438L607.87714 410.38126Q607.51776 411.77188 606.5959 412.50626Q605.674 413.24063 604.33026 413.24063Q602.93964 413.24063 602.06464 412.67813Q601.18964 412.11563 600.7365 411.05313Q600.2834 409.975 600.2834 408.74063Q600.2834 407.39688 600.799 406.39688Q601.31464 405.39688 602.25214 404.88126Q603.20526 404.36563 604.3459 404.36563Q605.62714 404.36563 606.50214 405.02188Q607.39276 405.67813 607.7365 406.86563L606.6115 407.13126Q606.31464 406.19376 605.7365 405.77188Q605.174 405.33438 604.31464 405.33438Q603.33026 405.33438 602.6584 405.81876Q602.00214 406.2875 601.7209 407.08438Q601.45526 407.88126 601.45526 408.74063Q601.45526 409.83438 601.76776 410.64688Q602.0959 411.45938 602.76776 411.86563Q603.43964 412.27188 604.2365 412.27188Q605.18964 412.27188 605.8459 411.725Q606.51776 411.17813 606.75214 410.08438Z" fill-rule="nonzero"/><path fill="#6fa8dc" d="M198.0 62.5C198.0 61.947716 198.44771 61.5 199.0 61.5L209.0 61.5C209.55229 61.5 210.0 61.947716 210.0 62.5L210.0 72.5C210.0 73.052284 209.55229 73.5 209.0 73.5L199.0 73.5C198.44771 73.5 198.0 73.052284 198.0 72.5Z" fill-rule="nonzero"/><path fill="#1a1a1a" d="M222.46875 71.5L221.42188 71.5L221.42188 64.78125Q221.03125 65.140625 220.40625 65.515625Q219.79688 65.875 219.3125 66.046875L219.3125 65.03125Q220.1875 64.609375 220.84375 64.03125Q221.51562 63.4375 221.79688 62.875L222.46875 62.875L222.46875 71.5ZM225.375 69.640625L226.40625 69.484375Q226.5 70.109375 226.89062 70.4375Q227.29688 70.765625 228.03125 70.765625Q228.75 70.765625 229.09375 70.484375Q229.45312 70.1875 229.45312 69.78125Q229.45312 69.421875 229.14062 69.21875Q228.92188 69.078125 228.0625 68.859375Q226.90625 68.5625 226.45312 68.359375Q226.01562 68.140625 225.78125 67.765625Q225.54688 67.390625 225.54688 66.921875Q225.54688 66.515625 225.73438 66.15625Q225.92188 65.796875 226.25 65.5625Q226.5 65.390625 226.92188 65.265625Q227.34375 65.140625 227.84375 65.140625Q228.5625 65.140625 229.10938 65.359375Q229.67188 65.5625 229.9375 65.921875Q230.20312 66.28125 230.29688 66.875L229.26562 67.015625Q229.20312 66.546875 228.85938 66.28125Q228.53125 66.0 227.90625 66.0Q227.1875 66.0 226.875 66.25Q226.5625 66.484375 226.5625 66.8125Q226.5625 67.015625 226.6875 67.171875Q226.82812 67.34375 227.09375 67.453125Q227.25 67.515625 228.03125 67.71875Q229.15625 68.03125 229.59375 68.21875Q230.03125 68.40625 230.28125 68.765625Q230.53125 69.125 230.53125 69.671875Q230.53125 70.203125 230.21875 70.671875Q229.92188 71.125 229.34375 71.390625Q228.76562 71.640625 228.03125 71.640625Q226.8125 71.640625 226.17188 71.140625Q225.54688 70.625 225.375 69.640625ZM235.09375 70.5625L235.25 71.484375Q234.79688 71.578125 234.45312 71.578125Q233.875 71.578125 233.5625 71.40625Q233.25 71.21875 233.10938 70.921875Q232.98438 70.625 232.98438 69.671875L232.98438 66.09375L232.21875 66.09375L232.21875 65.28125L232.98438 65.28125L232.98438 63.734375L234.03125 63.109375L234.03125 65.28125L235.09375 65.28125L235.09375 66.09375L234.03125 66.09375L234.03125 69.734375Q234.03125 70.1875 234.07812 70.3125Q234.14062 70.4375 234.26562 70.515625Q234.39062 70.59375 234.625 70.59375Q234.8125 70.59375 235.09375 70.5625ZM238.79688 73.890625L238.79688 65.28125L239.75 65.28125L239.75 66.078125Q240.09375 65.609375 240.51562 65.375Q240.95312 65.140625 241.5625 65.140625Q242.35938 65.140625 242.96875 65.546875Q243.57812 65.953125 243.875 66.703125Q244.1875 67.453125 244.1875 68.34375Q244.1875 69.296875 243.84375 70.0625Q243.51562 70.828125 242.85938 71.234375Q242.20312 71.640625 241.48438 71.640625Q240.95312 71.640625 240.53125 71.421875Q240.10938 71.1875 239.84375 70.859375L239.84375 73.890625L238.79688 73.890625ZM239.75 68.421875Q239.75 69.625 240.23438 70.203125Q240.71875 70.765625 241.40625 70.765625Q242.10938 70.765625 242.60938 70.171875Q243.10938 69.578125 243.10938 68.328125Q243.10938 67.140625 242.625 66.5625Q242.14062 65.96875 241.45312 65.96875Q240.78125 65.96875 240.26562 66.59375Q239.75 67.21875 239.75 68.421875ZM249.875 71.5L249.875 70.578125Q249.14062 71.640625 247.89062 71.640625Q247.34375 71.640625 246.85938 71.4375Q246.39062 71.21875 246.15625 70.90625Q245.92188 70.578125 245.82812 70.109375Q245.76562 69.8125 245.76562 69.125L245.76562 65.28125L246.82812 65.28125L246.82812 68.734375Q246.82812 69.546875 246.89062 69.84375Q246.98438 70.25 247.29688 70.5Q247.625 70.734375 248.10938 70.734375Q248.57812 70.734375 248.98438 70.5Q249.40625 70.25 249.57812 69.828125Q249.76562 69.40625 249.76562 68.609375L249.76562 65.28125L250.8125 65.28125L250.8125 71.5L249.875 71.5ZM252.375 69.640625L253.40625 69.484375Q253.5 70.109375 253.89062 70.4375Q254.29688 70.765625 255.03125 70.765625Q255.75 70.765625 256.09375 70.484375Q256.45312 70.1875 256.45312 69.78125Q256.45312 69.421875 256.14062 69.21875Q255.92188 69.078125 255.0625 68.859375Q253.90625 68.5625 253.45312 68.359375Q253.01562 68.140625 252.78125 67.765625Q252.54688 67.390625 252.54688 66.921875Q252.54688 66.515625 252.73438 66.15625Q252.92188 65.796875 253.25 65.5625Q253.5 65.390625 253.92188 65.265625Q254.34375 65.140625 254.84375 65.140625Q255.5625 65.140625 256.10938 65.359375Q256.67188 65.5625 256.9375 65.921875Q257.20312 66.28125 257.29688 66.875L256.26562 67.015625Q256.20312 66.546875 255.85938 66.28125Q255.53125 66.0 254.90625 66.0Q254.1875 66.0 253.875 66.25Q253.5625 66.484375 253.5625 66.8125Q253.5625 67.015625 253.6875 67.171875Q253.82812 67.34375 254.09375 67.453125Q254.25 67.515625 255.03125 67.71875Q256.15625 68.03125 256.59375 68.21875Q257.03125 68.40625 257.28125 68.765625Q257.53125 69.125 257.53125 69.671875Q257.53125 70.203125 257.21875 70.671875Q256.92188 71.125 256.34375 71.390625Q255.76562 71.640625 255.03125 71.640625Q253.8125 71.640625 253.17188 71.140625Q252.54688 70.625 252.375 69.640625ZM259.79688 71.5L259.79688 62.90625L260.84375 62.90625L260.84375 65.984375Q261.57812 65.140625 262.70312 65.140625Q263.40625 65.140625 263.90625 65.421875Q264.42188 65.6875 264.64062 66.171875Q264.85938 66.640625 264.85938 67.5625L264.85938 71.5L263.8125 71.5L263.8125 67.5625Q263.8125 66.765625 263.46875 66.40625Q263.125 66.046875 262.5 66.046875Q262.03125 66.046875 261.60938 66.296875Q261.20312 66.53125 261.01562 66.953125Q260.84375 67.359375 260.84375 68.09375L260.84375 71.5L259.79688 71.5Z" fill-rule="nonzero"/><path fill="#e06666" d="M282.0 62.5C282.0 61.947716 282.44772 61.5 283.0 61.5L293.0 61.5C293.55228 61.5 294.0 61.947716 294.0 62.5L294.0 72.5C294.0 73.052284 293.55228 73.5 293.0 73.5L283.0 73.5C282.44772 73.5 282.0 73.052284 282.0 72.5Z" fill-rule="nonzero"/><path fill="#1a1a1a" d="M308.04688 70.484375L308.04688 71.5L302.35938 71.5Q302.35938 71.125 302.48438 70.765625Q302.70312 70.1875 303.17188 69.625Q303.65625 69.0625 304.5625 68.328125Q305.96875 67.171875 306.45312 66.5Q306.95312 65.828125 306.95312 65.234375Q306.95312 64.609375 306.5 64.1875Q306.04688 63.75 305.32812 63.75Q304.5625 63.75 304.10938 64.203125Q303.65625 64.65625 303.64062 65.46875L302.5625 65.359375Q302.67188 64.140625 303.39062 63.515625Q304.125 62.875 305.35938 62.875Q306.59375 62.875 307.3125 63.5625Q308.03125 64.25 308.03125 65.265625Q308.03125 65.78125 307.8125 66.28125Q307.60938 66.765625 307.10938 67.328125Q306.625 67.875 305.5 68.828125Q304.54688 69.625 304.26562 69.921875Q304.0 70.203125 303.82812 70.484375L308.04688 70.484375ZM309.79688 71.5L309.79688 65.28125L310.73438 65.28125L310.73438 66.15625Q311.42188 65.140625 312.71875 65.140625Q313.28125 65.140625 313.75 65.34375Q314.23438 65.546875 314.46875 65.875Q314.70312 66.203125 314.79688 66.640625Q314.84375 66.9375 314.84375 67.671875L314.84375 71.5L313.79688 71.5L313.79688 67.71875Q313.79688 67.0625 313.67188 66.75Q313.54688 66.4375 313.23438 66.25Q312.92188 66.046875 312.5 66.046875Q311.82812 66.046875 311.32812 66.484375Q310.84375 66.90625 310.84375 68.09375L310.84375 71.5L309.79688 71.5ZM320.82812 71.5L320.82812 70.71875Q320.23438 71.640625 319.09375 71.640625Q318.34375 71.640625 317.71875 71.234375Q317.09375 70.8125 316.75 70.078125Q316.40625 69.34375 316.40625 68.390625Q316.40625 67.46875 316.71875 66.703125Q317.03125 65.9375 317.65625 65.546875Q318.28125 65.140625 319.04688 65.140625Q319.60938 65.140625 320.04688 65.375Q320.48438 65.609375 320.76562 65.984375L320.76562 62.90625L321.8125 62.90625L321.8125 71.5L320.82812 71.5ZM317.5 68.390625Q317.5 69.59375 318.0 70.1875Q318.5 70.765625 319.1875 70.765625Q319.875 70.765625 320.35938 70.203125Q320.84375 69.640625 320.84375 68.484375Q320.84375 67.203125 320.34375 66.609375Q319.85938 66.015625 319.14062 66.015625Q318.4375 66.015625 317.96875 66.59375Q317.5 67.15625 317.5 68.390625ZM326.79688 73.890625L326.79688 65.28125L327.75 65.28125L327.75 66.078125Q328.09375 65.609375 328.51562 65.375Q328.95312 65.140625 329.5625 65.140625Q330.35938 65.140625 330.96875 65.546875Q331.57812 65.953125 331.875 66.703125Q332.1875 67.453125 332.1875 68.34375Q332.1875 69.296875 331.84375 70.0625Q331.51562 70.828125 330.85938 71.234375Q330.20312 71.640625 329.48438 71.640625Q328.95312 71.640625 328.53125 71.421875Q328.10938 71.1875 327.84375 70.859375L327.84375 73.890625L326.79688 73.890625ZM327.75 68.421875Q327.75 69.625 328.23438 70.203125Q328.71875 70.765625 329.40625 70.765625Q330.10938 70.765625 330.60938 70.171875Q331.10938 69.578125 331.10938 68.328125Q331.10938 67.140625 330.625 66.5625Q330.14062 65.96875 329.45312 65.96875Q328.78125 65.96875 328.26562 66.59375Q327.75 67.21875 327.75 68.421875ZM337.875 71.5L337.875 70.578125Q337.14062 71.640625 335.89062 71.640625Q335.34375 71.640625 334.85938 71.4375Q334.39062 71.21875 334.15625 70.90625Q333.92188 70.578125 333.82812 70.109375Q333.76562 69.8125 333.76562 69.125L333.76562 65.28125L334.82812 65.28125L334.82812 68.734375Q334.82812 69.546875 334.89062 69.84375Q334.98438 70.25 335.29688 70.5Q335.625 70.734375 336.10938 70.734375Q336.57812 70.734375 336.98438 70.5Q337.40625 70.25 337.57812 69.828125Q337.76562 69.40625 337.76562 68.609375L337.76562 65.28125L338.8125 65.28125L338.8125 71.5L337.875 71.5ZM340.375 69.640625L341.40625 69.484375Q341.5 70.109375 341.89062 70.4375Q342.29688 70.765625 343.03125 70.765625Q343.75 70.765625 344.09375 70.484375Q344.45312 70.1875 344.45312 69.78125Q344.45312 69.421875 344.14062 69.21875Q343.92188 69.078125 343.0625 68.859375Q341.90625 68.5625 341.45312 68.359375Q341.01562 68.140625 340.78125 67.765625Q340.54688 67.390625 340.54688 66.921875Q340.54688 66.515625 340.73438 66.15625Q340.92188 65.796875 341.25 65.5625Q341.5 65.390625 341.92188 65.265625Q342.34375 65.140625 342.84375 65.140625Q343.5625 65.140625 344.10938 65.359375Q344.67188 65.5625 344.9375 65.921875Q345.20312 66.28125 345.29688 66.875L344.26562 67.015625Q344.20312 66.546875 343.85938 66.28125Q343.53125 66.0 342.90625 66.0Q342.1875 66.0 341.875 66.25Q341.5625 66.484375 341.5625 66.8125Q341.5625 67.015625 341.6875 67.171875Q341.82812 67.34375 342.09375 67.453125Q342.25 67.515625 343.03125 67.71875Q344.15625 68.03125 344.59375 68.21875Q345.03125 68.40625 345.28125 68.765625Q345.53125 69.125 345.53125 69.671875Q345.53125 70.203125 345.21875 70.671875Q344.92188 71.125 344.34375 71.390625Q343.76562 71.640625 343.03125 71.640625Q341.8125 71.640625 341.17188 71.140625Q340.54688 70.625 340.375 69.640625ZM347.79688 71.5L347.79688 62.90625L348.84375 62.90625L348.84375 65.984375Q349.57812 65.140625 350.70312 65.140625Q351.40625 65.140625 351.90625 65.421875Q352.42188 65.6875 352.64062 66.171875Q352.85938 66.640625 352.85938 67.5625L352.85938 71.5L351.8125 71.5L351.8125 67.5625Q351.8125 66.765625 351.46875 66.40625Q351.125 66.046875 350.5 66.046875Q350.03125 66.046875 349.60938 66.296875Q349.20312 66.53125 349.01562 66.953125Q348.84375 67.359375 348.84375 68.09375L348.84375 71.5L347.79688 71.5Z" fill-rule="nonzero"/><path fill="#ffd966" d="M370.0 62.5C370.0 61.947716 370.44772 61.5 371.0 61.5L381.0 61.5C381.55228 61.5 382.0 61.947716 382.0 62.5L382.0 72.5C382.0 73.052284 381.55228 73.5 381.0 73.5L371.0 73.5C370.44772 73.5 370.0 73.052284 370.0 72.5Z" fill-rule="nonzero"/><path fill="#1a1a1a" d="M394.46875 71.5L393.42188 71.5L393.42188 64.78125Q393.03125 65.140625 392.40625 65.515625Q391.79688 65.875 391.3125 66.046875L391.3125 65.03125Q392.1875 64.609375 392.84375 64.03125Q393.51562 63.4375 393.79688 62.875L394.46875 62.875L394.46875 71.5ZM397.375 69.640625L398.40625 69.484375Q398.5 70.109375 398.89062 70.4375Q399.29688 70.765625 400.03125 70.765625Q400.75 70.765625 401.09375 70.484375Q401.45312 70.1875 401.45312 69.78125Q401.45312 69.421875 401.14062 69.21875Q400.92188 69.078125 400.0625 68.859375Q398.90625 68.5625 398.45312 68.359375Q398.01562 68.140625 397.78125 67.765625Q397.54688 67.390625 397.54688 66.921875Q397.54688 66.515625 397.73438 66.15625Q397.92188 65.796875 398.25 65.5625Q398.5 65.390625 398.92188 65.265625Q399.34375 65.140625 399.84375 65.140625Q400.5625 65.140625 401.10938 65.359375Q401.67188 65.5625 401.9375 65.921875Q402.20312 66.28125 402.29688 66.875L401.26562 67.015625Q401.20312 66.546875 400.85938 66.28125Q400.53125 66.0 399.90625 66.0Q399.1875 66.0 398.875 66.25Q398.5625 66.484375 398.5625 66.8125Q398.5625 67.015625 398.6875 67.171875Q398.82812 67.34375 399.09375 67.453125Q399.25 67.515625 400.03125 67.71875Q401.15625 68.03125 401.59375 68.21875Q402.03125 68.40625 402.28125 68.765625Q402.53125 69.125 402.53125 69.671875Q402.53125 70.203125 402.21875 70.671875Q401.92188 71.125 401.34375 71.390625Q400.76562 71.640625 400.03125 71.640625Q398.8125 71.640625 398.17188 71.140625Q397.54688 70.625 397.375 69.640625ZM407.09375 70.5625L407.25 71.484375Q406.79688 71.578125 406.45312 71.578125Q405.875 71.578125 405.5625 71.40625Q405.25 71.21875 405.10938 70.921875Q404.98438 70.625 404.98438 69.671875L404.98438 66.09375L404.21875 66.09375L404.21875 65.28125L404.98438 65.28125L404.98438 63.734375L406.03125 63.109375L406.03125 65.28125L407.09375 65.28125L407.09375 66.09375L406.03125 66.09375L406.03125 69.734375Q406.03125 70.1875 406.07812 70.3125Q406.14062 70.4375 406.26562 70.515625Q406.39062 70.59375 406.625 70.59375Q406.8125 70.59375 407.09375 70.5625ZM410.79688 73.890625L410.79688 65.28125L411.75 65.28125L411.75 66.078125Q412.09375 65.609375 412.51562 65.375Q412.95312 65.140625 413.5625 65.140625Q414.35938 65.140625 414.96875 65.546875Q415.57812 65.953125 415.875 66.703125Q416.1875 67.453125 416.1875 68.34375Q416.1875 69.296875 415.84375 70.0625Q415.51562 70.828125 414.85938 71.234375Q414.20312 71.640625 413.48438 71.640625Q412.95312 71.640625 412.53125 71.421875Q412.10938 71.1875 411.84375 70.859375L411.84375 73.890625L410.79688 73.890625ZM411.75 68.421875Q411.75 69.625 412.23438 70.203125Q412.71875 70.765625 413.40625 70.765625Q414.10938 70.765625 414.60938 70.171875Q415.10938 69.578125 415.10938 68.328125Q415.10938 67.140625 414.625 66.5625Q414.14062 65.96875 413.45312 65.96875Q412.78125 65.96875 412.26562 66.59375Q411.75 67.21875 411.75 68.421875ZM421.875 71.5L421.875 70.578125Q421.14062 71.640625 419.89062 71.640625Q419.34375 71.640625 418.85938 71.4375Q418.39062 71.21875 418.15625 70.90625Q417.92188 70.578125 417.82812 70.109375Q417.76562 69.8125 417.76562 69.125L417.76562 65.28125L418.82812 65.28125L418.82812 68.734375Q418.82812 69.546875 418.89062 69.84375Q418.98438 70.25 419.29688 70.5Q419.625 70.734375 420.10938 70.734375Q420.57812 70.734375 420.98438 70.5Q421.40625 70.25 421.57812 69.828125Q421.76562 69.40625 421.76562 68.609375L421.76562 65.28125L422.8125 65.28125L422.8125 71.5L421.875 71.5ZM424.76562 71.5L424.76562 62.90625L425.82812 62.90625L425.82812 71.5L424.76562 71.5ZM427.76562 71.5L427.76562 62.90625L428.82812 62.90625L428.82812 71.5L427.76562 71.5Z" fill-rule="nonzero"/><path fill="#93c47d" d="M446.0 62.5C446.0 61.947716 446.44772 61.5 447.0 61.5L457.0 61.5C457.55228 61.5 458.0 61.947716 458.0 62.5L458.0 72.5C458.0 73.052284 457.55228 73.5 457.0 73.5L447.0 73.5C446.44772 73.5 446.0 73.052284 446.0 72.5Z" fill-rule="nonzero"/><path fill="#1a1a1a" d="M472.04688 70.484375L472.04688 71.5L466.35938 71.5Q466.35938 71.125 466.48438 70.765625Q466.70312 70.1875 467.17188 69.625Q467.65625 69.0625 468.5625 68.328125Q469.96875 67.171875 470.45312 66.5Q470.95312 65.828125 470.95312 65.234375Q470.95312 64.609375 470.5 64.1875Q470.04688 63.75 469.32812 63.75Q468.5625 63.75 468.10938 64.203125Q467.65625 64.65625 467.64062 65.46875L466.5625 65.359375Q466.67188 64.140625 467.39062 63.515625Q468.125 62.875 469.35938 62.875Q470.59375 62.875 471.3125 63.5625Q472.03125 64.25 472.03125 65.265625Q472.03125 65.78125 471.8125 66.28125Q471.60938 66.765625 471.10938 67.328125Q470.625 67.875 469.5 68.828125Q468.54688 69.625 468.26562 69.921875Q468.0 70.203125 467.82812 70.484375L472.04688 70.484375ZM473.79688 71.5L473.79688 65.28125L474.73438 65.28125L474.73438 66.15625Q475.42188 65.140625 476.71875 65.140625Q477.28125 65.140625 477.75 65.34375Q478.23438 65.546875 478.46875 65.875Q478.70312 66.203125 478.79688 66.640625Q478.84375 66.9375 478.84375 67.671875L478.84375 71.5L477.79688 71.5L477.79688 67.71875Q477.79688 67.0625 477.67188 66.75Q477.54688 66.4375 477.23438 66.25Q476.92188 66.046875 476.5 66.046875Q475.82812 66.046875 475.32812 66.484375Q474.84375 66.90625 474.84375 68.09375L474.84375 71.5L473.79688 71.5ZM484.82812 71.5L484.82812 70.71875Q484.23438 71.640625 483.09375 71.640625Q482.34375 71.640625 481.71875 71.234375Q481.09375 70.8125 480.75 70.078125Q480.40625 69.34375 480.40625 68.390625Q480.40625 67.46875 480.71875 66.703125Q481.03125 65.9375 481.65625 65.546875Q482.28125 65.140625 483.04688 65.140625Q483.60938 65.140625 484.04688 65.375Q484.48438 65.609375 484.76562 65.984375L484.76562 62.90625L485.8125 62.90625L485.8125 71.5L484.82812 71.5ZM481.5 68.390625Q481.5 69.59375 482.0 70.1875Q482.5 70.765625 483.1875 70.765625Q483.875 70.765625 484.35938 70.203125Q484.84375 69.640625 484.84375 68.484375Q484.84375 67.203125 484.34375 66.609375Q483.85938 66.015625 483.14062 66.015625Q482.4375 66.015625 481.96875 66.59375Q481.5 67.15625 481.5 68.390625ZM490.79688 73.890625L490.79688 65.28125L491.75 65.28125L491.75 66.078125Q492.09375 65.609375 492.51562 65.375Q492.95312 65.140625 493.5625 65.140625Q494.35938 65.140625 494.96875 65.546875Q495.57812 65.953125 495.875 66.703125Q496.1875 67.453125 496.1875 68.34375Q496.1875 69.296875 495.84375 70.0625Q495.51562 70.828125 494.85938 71.234375Q494.20312 71.640625 493.48438 71.640625Q492.95312 71.640625 492.53125 71.421875Q492.10938 71.1875 491.84375 70.859375L491.84375 73.890625L490.79688 73.890625ZM491.75 68.421875Q491.75 69.625 492.23438 70.203125Q492.71875 70.765625 493.40625 70.765625Q494.10938 70.765625 494.60938 70.171875Q495.10938 69.578125 495.10938 68.328125Q495.10938 67.140625 494.625 66.5625Q494.14062 65.96875 493.45312 65.96875Q492.78125 65.96875 492.26562 66.59375Q491.75 67.21875 491.75 68.421875ZM501.875 71.5L501.875 70.578125Q501.14062 71.640625 499.89062 71.640625Q499.34375 71.640625 498.85938 71.4375Q498.39062 71.21875 498.15625 70.90625Q497.92188 70.578125 497.82812 70.109375Q497.76562 69.8125 497.76562 69.125L497.76562 65.28125L498.82812 65.28125L498.82812 68.734375Q498.82812 69.546875 498.89062 69.84375Q498.98438 70.25 499.29688 70.5Q499.625 70.734375 500.10938 70.734375Q500.57812 70.734375 500.98438 70.5Q501.40625 70.25 501.57812 69.828125Q501.76562 69.40625 501.76562 68.609375L501.76562 65.28125L502.8125 65.28125L502.8125 71.5L501.875 71.5ZM504.76562 71.5L504.76562 62.90625L505.82812 62.90625L505.82812 71.5L504.76562 71.5ZM507.76562 71.5L507.76562 62.90625L508.82812 62.90625L508.82812 71.5L507.76562 71.5Z" fill-rule="nonzero"/><path fill="#434343" d="M202.04688 40.9L202.04688 26.587502L206.96875 26.587502Q208.64062 26.587502 209.53125 26.790627Q210.75 27.071877 211.625 27.806252Q212.75 28.775002 213.3125 30.259377Q213.875 31.743752 213.875 33.665627Q213.875 35.290627 213.5 36.55625Q213.125 37.80625 212.51562 38.634377Q211.92188 39.4625 211.21875 39.946877Q210.51562 40.415627 209.51562 40.665627Q208.51562 40.9 207.20312 40.9L202.04688 40.9ZM203.9375 39.2125L207.0 39.2125Q208.40625 39.2125 209.20312 38.946877Q210.01562 38.68125 210.5 38.196877Q211.17188 37.525 211.54688 36.4Q211.92188 35.259377 211.92188 33.634377Q211.92188 31.384377 211.1875 30.181252Q210.45312 28.978127 209.39062 28.571877Q208.64062 28.275002 206.95312 28.275002L203.9375 28.275002L203.9375 39.2125ZM215.17188 35.7125Q215.17188 32.8375 216.76562 31.446877Q218.10938 30.290627 220.03125 30.290627Q222.17188 30.290627 223.51562 31.696877Q224.875 33.103127 224.875 35.571877Q224.875 37.571877 224.28125 38.728127Q223.6875 39.86875 222.53125 40.509377Q221.39062 41.134377 220.03125 41.134377Q217.84375 41.134377 216.5 39.74375Q215.17188 38.3375 215.17188 35.7125ZM216.96875 35.7125Q216.96875 37.7125 217.82812 38.696877Q218.70312 39.68125 220.03125 39.68125Q221.34375 39.68125 222.20312 38.696877Q223.07812 37.696877 223.07812 35.65Q223.07812 33.728127 222.20312 32.74375Q221.32812 31.743752 220.03125 31.743752Q218.70312 31.743752 217.82812 32.74375Q216.96875 33.728127 216.96875 35.7125ZM228.73438 40.9L225.5625 30.525002L227.375 30.525002L229.03125 36.509377L229.64062 38.74375Q229.6875 38.571877 230.17188 36.603127L231.82812 30.525002L233.64062 30.525002L235.1875 36.540627L235.70312 38.525L236.29688 36.525L238.07812 30.525002L239.78125 30.525002L236.54688 40.9L234.71875 40.9L233.0625 34.68125L232.67188 32.915627L230.5625 40.9L228.73438 40.9ZM241.8125 40.9L241.8125 30.525002L243.40625 30.525002L243.40625 32.009377Q244.54688 30.290627 246.70312 30.290627Q247.64062 30.290627 248.42188 30.634377Q249.21875 30.962502 249.60938 31.509377Q250.0 32.05625 250.15625 32.80625Q250.25 33.30625 250.25 34.525L250.25 40.9L248.48438 40.9L248.48438 34.5875Q248.48438 33.509377 248.28125 32.978127Q248.07812 32.446877 247.54688 32.134377Q247.03125 31.821877 246.32812 31.821877Q245.20312 31.821877 244.39062 32.540627Q243.57812 33.24375 243.57812 35.228127L243.57812 40.9L241.8125 40.9ZM251.78125 40.9L251.78125 26.587502L253.53125 26.587502L253.53125 40.9L251.78125 40.9ZM255.17188 35.7125Q255.17188 32.8375 256.76562 31.446877Q258.10938 30.290627 260.03125 30.290627Q262.17188 30.290627 263.51562 31.696877Q264.875 33.103127 264.875 35.571877Q264.875 37.571877 264.28125 38.728127Q263.6875 39.86875 262.53125 40.509377Q261.39062 41.134377 260.03125 41.134377Q257.84375 41.134377 256.5 39.74375Q255.17188 38.3375 255.17188 35.7125ZM256.96875 35.7125Q256.96875 37.7125 257.82812 38.696877Q258.70312 39.68125 260.03125 39.68125Q261.34375 39.68125 262.20312 38.696877Q263.07812 37.696877 263.07812 35.65Q263.07812 33.728127 262.20312 32.74375Q261.32812 31.743752 260.03125 31.743752Q258.70312 31.743752 257.82812 32.74375Q256.96875 33.728127 256.96875 35.7125ZM273.59375 39.61875Q272.60938 40.446877 271.70312 40.790627Q270.79688 41.134377 269.76562 41.134377Q268.0625 41.134377 267.14062 40.30625Q266.21875 39.4625 266.21875 38.165627Q266.21875 37.4 266.5625 36.775Q266.92188 36.15 267.48438 35.775Q268.04688 35.384377 268.75 35.18125Q269.26562 35.05625 270.3125 34.915627Q272.4375 34.665627 273.4375 34.321877Q273.45312 33.9625 273.45312 33.853127Q273.45312 32.790627 272.95312 32.3375Q272.28125 31.743752 270.95312 31.743752Q269.70312 31.743752 269.10938 32.18125Q268.53125 32.61875 268.25 33.728127L266.53125 33.49375Q266.76562 32.384377 267.29688 31.712502Q267.82812 31.025002 268.84375 30.665627Q269.85938 30.290627 271.20312 30.290627Q272.53125 30.290627 273.35938 30.603127Q274.1875 30.915627 274.57812 31.400002Q274.96875 31.868752 275.125 32.5875Q275.21875 33.040627 275.21875 34.2125L275.21875 36.55625Q275.21875 39.009377 275.32812 39.665627Q275.4375 40.30625 275.78125 40.9L273.9375 40.9Q273.67188 40.353127 273.59375 39.61875ZM273.4375 35.696877Q272.48438 36.0875 270.5625 36.353127Q269.48438 36.509377 269.03125 36.7125Q268.59375 36.9 268.34375 37.275Q268.09375 37.65 268.09375 38.11875Q268.09375 38.821877 268.625 39.290627Q269.15625 39.759377 270.1875 39.759377Q271.20312 39.759377 271.98438 39.321877Q272.78125 38.86875 273.15625 38.103127Q273.4375 37.49375 273.4375 36.3375L273.4375 35.696877ZM284.54688 40.9L284.54688 39.5875Q283.5625 41.134377 281.64062 41.134377Q280.40625 41.134377 279.35938 40.446877Q278.32812 39.759377 277.75 38.540627Q277.1875 37.321877 277.1875 35.728127Q277.1875 34.165627 277.70312 32.9Q278.21875 31.634377 279.25 30.962502Q280.29688 30.290627 281.5625 30.290627Q282.5 30.290627 283.23438 30.696877Q283.96875 31.087502 284.4375 31.712502L284.4375 26.587502L286.17188 26.587502L286.17188 40.9L284.54688 40.9ZM278.98438 35.728127Q278.98438 37.7125 279.82812 38.696877Q280.67188 39.68125 281.8125 39.68125Q282.96875 39.68125 283.76562 38.74375Q284.57812 37.80625 284.57812 35.86875Q284.57812 33.74375 283.75 32.74375Q282.9375 31.743752 281.73438 31.743752Q280.5625 31.743752 279.76562 32.7125Q278.98438 33.665627 278.98438 35.728127ZM287.5 41.15L291.65625 26.337502L293.0625 26.337502L288.92188 41.15L287.5 41.15ZM304.4375 26.587502L306.32812 26.587502L306.32812 34.853127Q306.32812 37.009377 305.84375 38.290627Q305.35938 39.55625 304.07812 40.353127Q302.8125 41.15 300.73438 41.15Q298.71875 41.15 297.4375 40.4625Q296.17188 39.759377 295.625 38.446877Q295.07812 37.134377 295.07812 34.853127L295.07812 26.587502L296.96875 26.587502L296.96875 34.8375Q296.96875 36.7125 297.3125 37.603127Q297.65625 38.478127 298.5 38.9625Q299.34375 39.43125 300.57812 39.43125Q302.65625 39.43125 303.54688 38.49375Q304.4375 37.540627 304.4375 34.8375L304.4375 26.587502ZM307.8125 44.86875L307.8125 30.525002L309.42188 30.525002L309.42188 31.868752Q309.98438 31.087502 310.6875 30.696877Q311.40625 30.290627 312.42188 30.290627Q313.75 30.290627 314.76562 30.978127Q315.78125 31.665627 316.29688 32.915627Q316.82812 34.15 316.82812 35.634377Q316.82812 37.228127 316.25 38.509377Q315.6875 39.775 314.59375 40.4625Q313.5 41.134377 312.29688 41.134377Q311.42188 41.134377 310.71875 40.759377Q310.03125 40.384377 309.57812 39.821877L309.57812 44.86875L307.8125 44.86875ZM309.40625 35.775Q309.40625 37.775 310.21875 38.728127Q311.03125 39.68125 312.1875 39.68125Q313.35938 39.68125 314.1875 38.696877Q315.03125 37.7125 315.03125 35.61875Q315.03125 33.65 314.20312 32.665627Q313.39062 31.665627 312.26562 31.665627Q311.14062 31.665627 310.26562 32.728127Q309.40625 33.775 309.40625 35.775ZM318.78125 40.9L318.78125 26.587502L320.53125 26.587502L320.53125 40.9L318.78125 40.9ZM322.17188 35.7125Q322.17188 32.8375 323.76562 31.446877Q325.10938 30.290627 327.03125 30.290627Q329.17188 30.290627 330.51562 31.696877Q331.875 33.103127 331.875 35.571877Q331.875 37.571877 331.28125 38.728127Q330.6875 39.86875 329.53125 40.509377Q328.39062 41.134377 327.03125 41.134377Q324.84375 41.134377 323.5 39.74375Q322.17188 38.3375 322.17188 35.7125ZM323.96875 35.7125Q323.96875 37.7125 324.82812 38.696877Q325.70312 39.68125 327.03125 39.68125Q328.34375 39.68125 329.20312 38.696877Q330.07812 37.696877 330.07812 35.65Q330.07812 33.728127 329.20312 32.74375Q328.32812 31.743752 327.03125 31.743752Q325.70312 31.743752 324.82812 32.74375Q323.96875 33.728127 323.96875 35.7125ZM340.59375 39.61875Q339.60938 40.446877 338.70312 40.790627Q337.79688 41.134377 336.76562 41.134377Q335.0625 41.134377 334.14062 40.30625Q333.21875 39.4625 333.21875 38.165627Q333.21875 37.4 333.5625 36.775Q333.92188 36.15 334.48438 35.775Q335.04688 35.384377 335.75 35.18125Q336.26562 35.05625 337.3125 34.915627Q339.4375 34.665627 340.4375 34.321877Q340.45312 33.9625 340.45312 33.853127Q340.45312 32.790627 339.95312 32.3375Q339.28125 31.743752 337.95312 31.743752Q336.70312 31.743752 336.10938 32.18125Q335.53125 32.61875 335.25 33.728127L333.53125 33.49375Q333.76562 32.384377 334.29688 31.712502Q334.82812 31.025002 335.84375 30.665627Q336.85938 30.290627 338.20312 30.290627Q339.53125 30.290627 340.35938 30.603127Q341.1875 30.915627 341.57812 31.400002Q341.96875 31.868752 342.125 32.5875Q342.21875 33.040627 342.21875 34.2125L342.21875 36.55625Q342.21875 39.009377 342.32812 39.665627Q342.4375 40.30625 342.78125 40.9L340.9375 40.9Q340.67188 40.353127 340.59375 39.61875ZM340.4375 35.696877Q339.48438 36.0875 337.5625 36.353127Q336.48438 36.509377 336.03125 36.7125Q335.59375 36.9 335.34375 37.275Q335.09375 37.65 335.09375 38.11875Q335.09375 38.821877 335.625 39.290627Q336.15625 39.759377 337.1875 39.759377Q338.20312 39.759377 338.98438 39.321877Q339.78125 38.86875 340.15625 38.103127Q340.4375 37.49375 340.4375 36.3375L340.4375 35.696877ZM351.54688 40.9L351.54688 39.5875Q350.5625 41.134377 348.64062 41.134377Q347.40625 41.134377 346.35938 40.446877Q345.32812 39.759377 344.75 38.540627Q344.1875 37.321877 344.1875 35.728127Q344.1875 34.165627 344.70312 32.9Q345.21875 31.634377 346.25 30.962502Q347.29688 30.290627 348.5625 30.290627Q349.5 30.290627 350.23438 30.696877Q350.96875 31.087502 351.4375 31.712502L351.4375 26.587502L353.17188 26.587502L353.17188 40.9L351.54688 40.9ZM345.98438 35.728127Q345.98438 37.7125 346.82812 38.696877Q347.67188 39.68125 348.8125 39.68125Q349.96875 39.68125 350.76562 38.74375Q351.57812 37.80625 351.57812 35.86875Q351.57812 33.74375 350.75 32.74375Q349.9375 31.743752 348.73438 31.743752Q347.5625 31.743752 346.76562 32.7125Q345.98438 33.665627 345.98438 35.728127ZM367.95312 40.9L366.1875 40.9L366.1875 29.696877Q365.5625 30.306252 364.53125 30.915627Q363.5 31.509377 362.67188 31.821877L362.67188 30.118752Q364.15625 29.431252 365.25 28.446877Q366.35938 27.446877 366.8125 26.525002L367.95312 26.525002L367.95312 40.9ZM372.32812 33.8375Q372.32812 31.306252 372.84375 29.759377Q373.375 28.196877 374.40625 27.368752Q375.4375 26.525002 377.0 26.525002Q378.15625 26.525002 379.01562 26.993752Q379.89062 27.446877 380.45312 28.321877Q381.01562 29.196877 381.34375 30.462502Q381.67188 31.712502 381.67188 33.8375Q381.67188 36.353127 381.14062 37.9Q380.625 39.446877 379.59375 40.30625Q378.57812 41.15 377.0 41.15Q374.92188 41.15 373.75 39.665627Q372.32812 37.86875 372.32812 33.8375ZM374.14062 33.8375Q374.14062 37.36875 374.95312 38.540627Q375.78125 39.696877 377.0 39.696877Q378.20312 39.696877 379.03125 38.525Q379.85938 37.353127 379.85938 33.8375Q379.85938 30.306252 379.03125 29.150002Q378.20312 27.978127 376.98438 27.978127Q375.76562 27.978127 375.04688 29.009377Q374.14062 30.306252 374.14062 33.8375ZM388.64062 40.9L392.4375 35.509377L388.9375 30.525002L391.125 30.525002L392.71875 32.9625Q393.17188 33.65 393.4375 34.11875Q393.875 33.478127 394.23438 32.978127L395.98438 30.525002L398.07812 30.525002L394.5 35.415627L398.35938 40.9L396.20312 40.9L394.0625 37.68125L393.5 36.80625L390.78125 40.9L388.64062 40.9ZM410.95312 40.9L409.1875 40.9L409.1875 29.696877Q408.5625 30.306252 407.53125 30.915627Q406.5 31.509377 405.67188 31.821877L405.67188 30.118752Q407.15625 29.431252 408.25 28.446877Q409.35938 27.446877 409.8125 26.525002L410.95312 26.525002L410.95312 40.9ZM415.32812 33.8375Q415.32812 31.306252 415.84375 29.759377Q416.375 28.196877 417.40625 27.368752Q418.4375 26.525002 420.0 26.525002Q421.15625 26.525002 422.01562 26.993752Q422.89062 27.446877 423.45312 28.321877Q424.01562 29.196877 424.34375 30.462502Q424.67188 31.712502 424.67188 33.8375Q424.67188 36.353127 424.14062 37.9Q423.625 39.446877 422.59375 40.30625Q421.57812 41.15 420.0 41.15Q417.92188 41.15 416.75 39.665627Q415.32812 37.86875 415.32812 33.8375ZM417.14062 33.8375Q417.14062 37.36875 417.95312 38.540627Q418.78125 39.696877 420.0 39.696877Q421.20312 39.696877 422.03125 38.525Q422.85938 37.353127 422.85938 33.8375Q422.85938 30.306252 422.03125 29.150002Q421.20312 27.978127 419.98438 27.978127Q418.76562 27.978127 418.04688 29.009377Q417.14062 30.306252 417.14062 33.8375ZM426.32812 33.8375Q426.32812 31.306252 426.84375 29.759377Q427.375 28.196877 428.40625 27.368752Q429.4375 26.525002 431.0 26.525002Q432.15625 26.525002 433.01562 26.993752Q433.89062 27.446877 434.45312 28.321877Q435.01562 29.196877 435.34375 30.462502Q435.67188 31.712502 435.67188 33.8375Q435.67188 36.353127 435.14062 37.9Q434.625 39.446877 433.59375 40.30625Q432.57812 41.15 431.0 41.15Q428.92188 41.15 427.75 39.665627Q426.32812 37.86875 426.32812 33.8375ZM428.14062 33.8375Q428.14062 37.36875 428.95312 38.540627Q429.78125 39.696877 431.0 39.696877Q432.20312 39.696877 433.03125 38.525Q433.85938 37.353127 433.85938 33.8375Q433.85938 30.306252 433.03125 29.150002Q432.20312 27.978127 430.98438 27.978127Q429.76562 27.978127 429.04688 29.009377Q428.14062 30.306252 428.14062 33.8375ZM437.98438 40.9L437.98438 26.587502L440.84375 26.587502L444.21875 36.7125Q444.6875 38.134377 444.90625 38.8375Q445.15625 38.05625 445.67188 36.540627L449.09375 26.587502L451.64062 26.587502L451.64062 40.9L449.82812 40.9L449.82812 28.915627L445.65625 40.9L443.95312 40.9L439.8125 28.712502L439.8125 40.9L437.98438 40.9ZM454.96875 40.9L454.96875 26.587502L460.34375 26.587502Q461.98438 26.587502 462.96875 27.025002Q463.95312 27.446877 464.51562 28.353127Q465.07812 29.259377 465.07812 30.243752Q465.07812 31.165627 464.57812 31.978127Q464.09375 32.790627 463.07812 33.275Q464.375 33.665627 465.07812 34.5875Q465.78125 35.49375 465.78125 36.74375Q465.78125 37.759377 465.34375 38.61875Q464.92188 39.478127 464.29688 39.946877Q463.67188 40.415627 462.73438 40.665627Q461.79688 40.9 460.42188 40.9L454.96875 40.9ZM456.85938 32.603127L459.95312 32.603127Q461.21875 32.603127 461.76562 32.43125Q462.48438 32.2125 462.84375 31.728127Q463.21875 31.228127 463.21875 30.462502Q463.21875 29.759377 462.875 29.212502Q462.53125 28.665627 461.89062 28.478127Q461.26562 28.275002 459.71875 28.275002L456.85938 28.275002L456.85938 32.603127ZM456.85938 39.2125L460.42188 39.2125Q461.34375 39.2125 461.71875 39.134377Q462.375 39.025 462.8125 38.759377Q463.25 38.478127 463.53125 37.9625Q463.8125 37.43125 463.8125 36.74375Q463.8125 35.946877 463.40625 35.353127Q463.0 34.759377 462.26562 34.525Q461.53125 34.290627 460.17188 34.290627L456.85938 34.290627L456.85938 39.2125ZM474.23438 40.9L474.23438 31.900002L472.6875 31.900002L472.6875 30.525002L474.23438 30.525002L474.23438 29.431252Q474.23438 28.384377 474.42188 27.868752Q474.67188 27.181252 475.3125 26.759377Q475.95312 26.337502 477.10938 26.337502Q477.85938 26.337502 478.75 26.509377L478.48438 28.040627Q477.9375 27.946877 477.45312 27.946877Q476.65625 27.946877 476.3125 28.290627Q475.98438 28.634377 475.98438 29.571877L475.98438 30.525002L478.01562 30.525002L478.01562 31.900002L475.98438 31.900002L475.98438 40.9L474.23438 40.9ZM479.82812 28.603127L479.82812 26.587502L481.59375 26.587502L481.59375 28.603127L479.82812 28.603127ZM479.82812 40.9L479.82812 30.525002L481.59375 30.525002L481.59375 40.9L479.82812 40.9ZM483.78125 40.9L483.78125 26.587502L485.53125 26.587502L485.53125 40.9L483.78125 40.9ZM494.92188 37.55625L496.73438 37.790627Q496.3125 39.36875 495.14062 40.259377Q493.98438 41.134377 492.17188 41.134377Q489.90625 41.134377 488.5625 39.74375Q487.23438 38.3375 487.23438 35.80625Q487.23438 33.18125 488.57812 31.743752Q489.92188 30.290627 492.07812 30.290627Q494.15625 30.290627 495.46875 31.712502Q496.79688 33.11875 496.79688 35.696877Q496.79688 35.853127 496.78125 36.165627L489.04688 36.165627Q489.14062 37.86875 490.01562 38.775Q490.89062 39.68125 492.1875 39.68125Q493.15625 39.68125 493.82812 39.18125Q494.51562 38.665627 494.92188 37.55625ZM489.14062 34.7125L494.9375 34.7125Q494.82812 33.415627 494.28125 32.759377Q493.4375 31.743752 492.09375 31.743752Q490.89062 31.743752 490.0625 32.55625Q489.23438 33.353127 489.14062 34.7125ZM498.10938 37.80625L499.85938 37.525Q500.0 38.571877 500.67188 39.134377Q501.34375 39.68125 502.54688 39.68125Q503.75 39.68125 504.32812 39.196877Q504.92188 38.696877 504.92188 38.040627Q504.92188 37.446877 504.40625 37.103127Q504.04688 36.86875 502.60938 36.509377Q500.67188 36.009377 499.92188 35.665627Q499.1875 35.30625 498.79688 34.68125Q498.40625 34.040627 498.40625 33.275Q498.40625 32.5875 498.71875 31.993752Q499.04688 31.400002 499.59375 31.009377Q500.0 30.712502 500.70312 30.509377Q501.42188 30.290627 502.23438 30.290627Q503.45312 30.290627 504.375 30.650002Q505.29688 30.993752 505.73438 31.603127Q506.17188 32.196877 506.34375 33.196877L504.625 33.43125Q504.5 32.634377 503.9375 32.196877Q503.375 31.743752 502.35938 31.743752Q501.14062 31.743752 500.625 32.15Q500.10938 32.540627 500.10938 33.071877Q500.10938 33.415627 500.32812 33.696877Q500.53125 33.978127 501.0 34.165627Q501.26562 34.259377 502.54688 34.603127Q504.42188 35.103127 505.15625 35.43125Q505.89062 35.74375 506.3125 36.353127Q506.73438 36.946877 506.73438 37.853127Q506.73438 38.728127 506.21875 39.509377Q505.70312 40.290627 504.73438 40.7125Q503.76562 41.134377 502.54688 41.134377Q500.53125 41.134377 499.46875 40.290627Q498.40625 39.446877 498.10938 37.80625Z" fill-rule="nonzero"/></svg>