<svg version="1.1" viewBox="0.0 0.0 708.0 438.0" fill="none" stroke="none" stroke-linecap="square" stroke-miterlimit="10" width="708" height="438" xmlns:xlink="http://www.w3.org/1999/xlink" xmlns="http://www.w3.org/2000/svg"><path fill="#fbfbfb" d="M0 0L708.0 0L708.0 438.0L0 438.0L0 0Z" fill-rule="nonzero"/><path stroke="#2f2f2f" stroke-width="1.0" stroke-linecap="butt" d="M80.5 396.5L686.5 396.5" fill-rule="nonzero"/><path stroke="#c8c8c8" stroke-width="1.0" stroke-linecap="butt" d="M80.5 296.5L686.5 296.5" fill-rule="nonzero"/><path stroke="#c8c8c8" stroke-width="1.0" stroke-linecap="butt" d="M80.5 196.5L686.5 196.5" fill-rule="nonzero"/><path stroke="#c8c8c8" stroke-width="1.0" stroke-linecap="butt" d="M80.5 96.5L686.5 96.5" fill-rule="nonzero"/><clipPath id="id_0"><path d="M80.9 96.1L686.1 96.1L686.1 396.1L80.9 396.1L80.9 96.1Z" clip-rule="nonzero"/></clipPath><path stroke="#000000" stroke-width="2.0" stroke-linecap="butt" stroke-opacity="0.0" clip-path="url(#id_0)" d="M151.0 396.0L130.0 396.0L130.0 192.0C130.0 190.89543 130.89543 190.0 132.0 190.0L149.0 190.0C150.10457 190.0 151.0 190.89543 151.0 192.0Z" fill-rule="nonzero"/><path fill="#6fa8dc" clip-path="url(#id_0)" d="M151.0 396.0L130.0 396.0L130.0 192.0C130.0 190.89543 130.89543 190.0 132.0 190.0L149.0 190.0C150.10457 190.0 151.0 190.89543 151.0 192.0Z" fill-rule="nonzero"/><path stroke="#000000" stroke-width="2.0" stroke-linecap="butt" stroke-opacity="0.0" clip-path="url(#id_0)" d="M290.0 396.0L269.0 396.0L269.0 160.0C269.0 158.89543 269.89542 158.0 271.0 158.0L288.0 158.0C289.10458 158.0 290.0 158.89543 290.0 160.0Z" fill-rule="nonzero"/><path fill="#6fa8dc" clip-path="url(#id_0)" d="M290.0 396.0L269.0 396.0L269.0 160.0C269.0 158.89543 269.89542 158.0 271.0 158.0L288.0 158.0C289.10458 158.0 290.0 158.89543 290.0 160.0Z" fill-rule="nonzero"/><path stroke="#000000" stroke-width="2.0" stroke-linecap="butt" stroke-opacity="0.0" clip-path="url(#id_0)" d="M429.0 396.0L408.0 396.0L408.0 190.0C408.0 188.89543 408.89542 188.0 410.0 188.0L427.0 188.0C428.10458 188.0 429.0 188.89543 429.0 190.0Z" fill-rule="nonzero"/><path fill="#6fa8dc" clip-path="url(#id_0)" d="M429.0 396.0L408.0 396.0L408.0 190.0C408.0 188.89543 408.89542 188.0 410.0 188.0L427.0 188.0C428.10458 188.0 429.0 188.89543 429.0 190.0Z" fill-rule="nonzero"/><path stroke="#000000" stroke-width="2.0" stroke-linecap="butt" stroke-opacity="0.0" clip-path="url(#id_0)" d="M568.0 396.0L547.0 396.0L547.0 192.0C547.0 190.89543 547.89545 190.0 549.0 190.0L566.0 190.0C567.10455 190.0 568.0 190.89543 568.0 192.0Z" fill-rule="nonzero"/><path fill="#6fa8dc" clip-path="url(#id_0)" d="M568.0 396.0L547.0 396.0L547.0 192.0C547.0 190.89543 547.89545 190.0 549.0 190.0L566.0 190.0C567.10455 190.0 568.0 190.89543 568.0 192.0Z" fill-rule="nonzero"/><path stroke="#000000" stroke-width="2.0" stroke-linecap="butt" stroke-opacity="0.0" clip-path="url(#id_0)" d="M174.0 396.0L153.0 396.0L153.0 192.0C153.0 190.89543 153.89543 190.0 155.0 190.0L172.0 190.0C173.10457 190.0 174.0 190.89543 174.0 192.0Z" fill-rule="nonzero"/><path fill="#e06666" clip-path="url(#id_0)" d="M174.0 396.0L153.0 396.0L153.0 192.0C153.0 190.89543 153.89543 190.0 155.0 190.0L172.0 190.0C173.10457 190.0 174.0 190.89543 174.0 192.0Z" fill-rule="nonzero"/><path stroke="#000000" stroke-width="2.0" stroke-linecap="butt" stroke-opacity="0.0" clip-path="url(#id_0)" d="M313.0 396.0L292.0 396.0L292.0 393.0C292.0 391.89542 292.89542 391.0 294.0 391.0L311.0 391.0C312.10458 391.0 313.0 391.89542 313.0 393.0Z" fill-rule="nonzero"/><path fill="#e06666" clip-path="url(#id_0)" d="M313.0 396.0L292.0 396.0L292.0 393.0C292.0 391.89542 292.89542 391.0 294.0 391.0L311.0 391.0C312.10458 391.0 313.0 391.89542 313.0 393.0Z" fill-rule="nonzero"/><path stroke="#000000" stroke-width="2.0" stroke-linecap="butt" stroke-opacity="0.0" clip-path="url(#id_0)" d="M452.0 396.0L431.0 396.0L431.0 395.0C431.0 394.44772 431.44772 394.0 432.0 394.0L451.0 394.0C451.55228 394.0 452.0 394.44772 452.0 395.0Z" fill-rule="nonzero"/><path fill="#e06666" clip-path="url(#id_0)" d="M452.0 396.0L431.0 396.0L431.0 395.0C431.0 394.44772 431.44772 394.0 432.0 394.0L451.0 394.0C451.55228 394.0 452.0 394.44772 452.0 395.0Z" fill-rule="nonzero"/><path stroke="#000000" stroke-width="2.0" stroke-linecap="butt" stroke-opacity="0.0" clip-path="url(#id_0)" d="M591.0 396.0L570.0 396.0L570.0 395.5C570.0 395.22385 570.2239 395.0 570.5 395.0L590.5 395.0C590.7761 395.0 591.0 395.22385 591.0 395.5Z" fill-rule="nonzero"/><path fill="#e06666" clip-path="url(#id_0)" d="M591.0 396.0L570.0 396.0L570.0 395.5C570.0 395.22385 570.2239 395.0 570.5 395.0L590.5 395.0C590.7761 395.0 591.0 395.22385 591.0 395.5Z" fill-rule="nonzero"/><path stroke="#000000" stroke-width="2.0" stroke-linecap="butt" stroke-opacity="0.0" clip-path="url(#id_0)" d="M197.0 396.0L176.0 396.0L176.0 172.0C176.0 170.89543 176.89543 170.0 178.0 170.0L195.0 170.0C196.10457 170.0 197.0 170.89543 197.0 172.0Z" fill-rule="nonzero"/><path fill="#ffd966" clip-path="url(#id_0)" d="M197.0 396.0L176.0 396.0L176.0 172.0C176.0 170.89543 176.89543 170.0 178.0 170.0L195.0 170.0C196.10457 170.0 197.0 170.89543 197.0 172.0Z" fill-rule="nonzero"/><path stroke="#000000" stroke-width="2.0" stroke-linecap="butt" stroke-opacity="0.0" clip-path="url(#id_0)" d="M336.0 396.0L315.0 396.0L315.0 114.0C315.0 112.89543 315.89542 112.0 317.0 112.0L334.0 112.0C335.10458 112.0 336.0 112.89543 336.0 114.0Z" fill-rule="nonzero"/><path fill="#ffd966" clip-path="url(#id_0)" d="M336.0 396.0L315.0 396.0L315.0 114.0C315.0 112.89543 315.89542 112.0 317.0 112.0L334.0 112.0C335.10458 112.0 336.0 112.89543 336.0 114.0Z" fill-rule="nonzero"/><path stroke="#000000" stroke-width="2.0" stroke-linecap="butt" stroke-opacity="0.0" clip-path="url(#id_0)" d="M475.0 396.0L454.0 396.0L454.0 224.0C454.0 222.89543 454.89542 222.0 456.0 222.0L473.0 222.0C474.10458 222.0 475.0 222.89543 475.0 224.0Z" fill-rule="nonzero"/><path fill="#ffd966" clip-path="url(#id_0)" d="M475.0 396.0L454.0 396.0L454.0 224.0C454.0 222.89543 454.89542 222.0 456.0 222.0L473.0 222.0C474.10458 222.0 475.0 222.89543 475.0 224.0Z" fill-rule="nonzero"/><path stroke="#000000" stroke-width="2.0" stroke-linecap="butt" stroke-opacity="0.0" clip-path="url(#id_0)" d="M614.0 396.0L593.0 396.0L593.0 218.0C593.0 216.89543 593.89545 216.0 595.0 216.0L612.0 216.0C613.10455 216.0 614.0 216.89543 614.0 218.0Z" fill-rule="nonzero"/><path fill="#ffd966" clip-path="url(#id_0)" d="M614.0 396.0L593.0 396.0L593.0 218.0C593.0 216.89543 593.89545 216.0 595.0 216.0L612.0 216.0C613.10455 216.0 614.0 216.89543 614.0 218.0Z" fill-rule="nonzero"/><path stroke="#000000" stroke-width="2.0" stroke-linecap="butt" stroke-opacity="0.0" clip-path="url(#id_0)" d="M220.0 396.0L199.0 396.0L199.0 172.0C199.0 170.89543 199.89543 170.0 201.0 170.0L218.0 170.0C219.10457 170.0 220.0 170.89543 220.0 172.0Z" fill-rule="nonzero"/><path fill="#93c47d" clip-path="url(#id_0)" d="M220.0 396.0L199.0 396.0L199.0 172.0C199.0 170.89543 199.89543 170.0 201.0 170.0L218.0 170.0C219.10457 170.0 220.0 170.89543 220.0 172.0Z" fill-rule="nonzero"/><path stroke="#000000" stroke-width="2.0" stroke-linecap="butt" stroke-opacity="0.0" clip-path="url(#id_0)" d="M359.0 396.0L338.0 396.0L338.0 393.0C338.0 391.89542 338.89542 391.0 340.0 391.0L357.0 391.0C358.10458 391.0 359.0 391.89542 359.0 393.0Z" fill-rule="nonzero"/><path fill="#93c47d" clip-path="url(#id_0)" d="M359.0 396.0L338.0 396.0L338.0 393.0C338.0 391.89542 338.89542 391.0 340.0 391.0L357.0 391.0C358.10458 391.0 359.0 391.89542 359.0 393.0Z" fill-rule="nonzero"/><path stroke="#000000" stroke-width="2.0" stroke-linecap="butt" stroke-opacity="0.0" clip-path="url(#id_0)" d="M498.0 396.0L477.0 396.0L477.0 395.5C477.0 395.22385 477.22385 395.0 477.5 395.0L497.5 395.0C497.77615 395.0 498.0 395.22385 498.0 395.5Z" fill-rule="nonzero"/><path fill="#93c47d" clip-path="url(#id_0)" d="M498.0 396.0L477.0 396.0L477.0 395.5C477.0 395.22385 477.22385 395.0 477.5 395.0L497.5 395.0C497.77615 395.0 498.0 395.22385 498.0 395.5Z" fill-rule="nonzero"/><path stroke="#000000" stroke-width="2.0" stroke-linecap="butt" stroke-opacity="0.0" clip-path="url(#id_0)" d="M637.0 396.0L616.0 396.0L616.0 395.5C616.0 395.22385 616.2239 395.0 616.5 395.0L636.5 395.0C636.7761 395.0 637.0 395.22385 637.0 395.5Z" fill-rule="nonzero"/><path fill="#93c47d" clip-path="url(#id_0)" d="M637.0 396.0L616.0 396.0L616.0 395.5C616.0 395.22385 616.2239 395.0 616.5 395.0L636.5 395.0C636.7761 395.0 637.0 395.22385 637.0 395.5Z" fill-rule="nonzero"/><path fill="#000000" d="M31.04063 276.225L30.88438 275.19376Q31.50938 275.1 31.837505 274.70938Q32.16563 274.30313 32.16563 273.56876Q32.16563 272.85 31.88438 272.50626Q31.587505 272.14688 31.181255 272.14688Q30.82188 272.14688 30.618755 272.45938Q30.47813 272.67813 30.25938 273.5375Q29.962505 274.69376 29.75938 275.14688Q29.54063 275.58438 29.16563 275.81876Q28.79063 276.05313 28.32188 276.05313Q27.91563 276.05313 27.556255 275.86563Q27.19688 275.67813 26.962505 275.35Q26.79063 275.1 26.66563 274.67813Q26.54063 274.25626 26.54063 273.75626Q26.54063 273.0375 26.75938 272.49063Q26.962505 271.92813 27.32188 271.6625Q27.681255 271.39688 28.275005 271.30313L28.41563 272.33438Q27.94688 272.39688 27.681255 272.74063Q27.400005 273.06876 27.400005 273.69376Q27.400005 274.4125 27.650005 274.725Q27.88438 275.0375 28.212505 275.0375Q28.41563 275.0375 28.57188 274.9125Q28.743755 274.77188 28.85313 274.50626Q28.91563 274.35 29.118755 273.56876Q29.431255 272.44376 29.618755 272.00626Q29.806255 271.56876 30.16563 271.31876Q30.525005 271.06876 31.07188 271.06876Q31.60313 271.06876 32.07188 271.38126Q32.525005 271.67813 32.79063 272.25626Q33.04063 272.83438 33.04063 273.56876Q33.04063 274.7875 32.54063 275.42813Q32.025005 276.05313 31.04063 276.225ZM30.900005 264.55313L31.025005 263.45938Q31.97813 263.70938 32.50938 264.4125Q33.04063 265.11563 33.04063 266.19376Q33.04063 267.55313 32.19688 268.36563Q31.35313 269.1625 29.837505 269.1625Q28.275005 269.1625 27.41563 268.35Q26.54063 267.5375 26.54063 266.25626Q26.54063 265.00626 27.38438 264.225Q28.22813 263.42813 29.775005 263.42813Q29.868755 263.42813 30.056255 263.42813L30.056255 268.06876Q31.087505 268.00626 31.63438 267.49063Q32.16563 266.975 32.16563 266.19376Q32.16563 265.61563 31.868755 265.20938Q31.556255 264.7875 30.900005 264.55313ZM29.19688 268.00626L29.19688 264.5375Q28.400005 264.6 28.00938 264.92813Q27.400005 265.44376 27.400005 266.24063Q27.400005 266.975 27.88438 267.475Q28.368755 267.95938 29.19688 268.00626ZM30.618755 257.74063L30.75938 256.70938Q31.82188 256.88126 32.431255 257.58438Q33.04063 258.2875 33.04063 259.30313Q33.04063 260.58438 32.212505 261.36563Q31.368755 262.13126 29.806255 262.13126Q28.806255 262.13126 28.056255 261.80313Q27.29063 261.45938 26.91563 260.7875Q26.54063 260.1 26.54063 259.2875Q26.54063 258.2875 27.056255 257.64688Q27.556255 256.99063 28.50938 256.80313L28.66563 257.83438Q28.04063 257.975 27.72813 258.35Q27.400005 258.725 27.400005 259.25626Q27.400005 260.05313 27.97813 260.55313Q28.54063 261.05313 29.775005 261.05313Q31.04063 261.05313 31.60313 260.56876Q32.16563 260.08438 32.16563 259.31876Q32.16563 258.69376 31.79063 258.2875Q31.41563 257.86563 30.618755 257.74063ZM29.79063 256.19376Q28.056255 256.19376 27.22813 255.24063Q26.54063 254.44376 26.54063 253.2875Q26.54063 252.00626 27.38438 251.19376Q28.212505 250.36563 29.69688 250.36563Q30.900005 250.36563 31.587505 250.725Q32.275005 251.08438 32.66563 251.7875Q33.04063 252.475 33.04063 253.2875Q33.04063 254.58438 32.212505 255.39688Q31.368755 256.19376 29.79063 256.19376ZM29.79063 255.11563Q30.97813 255.11563 31.57188 254.6Q32.16563 254.06876 32.16563 253.2875Q32.16563 252.49063 31.57188 251.975Q30.97813 251.45938 29.75938 251.45938Q28.60313 251.45938 28.00938 251.99063Q27.41563 252.50626 27.41563 253.2875Q27.41563 254.06876 28.00938 254.6Q28.587505 255.11563 29.79063 255.11563ZM32.900005 248.80313L26.681255 248.80313L26.681255 247.86563L27.556255 247.86563Q26.54063 247.17813 26.54063 245.88126Q26.54063 245.31876 26.743755 244.85Q26.94688 244.36563 27.275005 244.13126Q27.60313 243.89688 28.04063 243.80313Q28.337505 243.75626 29.07188 243.75626L32.900005 243.75626L32.900005 244.80313L29.118755 244.80313Q28.462505 244.80313 28.150005 244.92813Q27.837505 245.05313 27.650005 245.36563Q27.44688 245.67813 27.44688 246.1Q27.44688 246.77188 27.88438 247.27188Q28.306255 247.75626 29.493755 247.75626L32.900005 247.75626L32.900005 248.80313ZM32.900005 237.77188L32.118755 237.77188Q33.04063 238.36563 33.04063 239.50626Q33.04063 240.25626 32.63438 240.88126Q32.212505 241.50626 31.47813 241.85Q30.743755 242.19376 29.79063 242.19376Q28.868755 242.19376 28.10313 241.88126Q27.337505 241.56876 26.94688 240.94376Q26.54063 240.31876 26.54063 239.55313Q26.54063 238.99063 26.775005 238.55313Q27.00938 238.11563 27.38438 237.83438L24.306255 237.83438L24.306255 236.7875L32.900005 236.7875L32.900005 237.77188ZM29.79063 241.1Q30.993755 241.1 31.587505 240.6Q32.16563 240.1 32.16563 239.4125Q32.16563 238.725 31.60313 238.24063Q31.04063 237.75626 29.88438 237.75626Q28.60313 237.75626 28.00938 238.25626Q27.41563 238.74063 27.41563 239.45938Q27.41563 240.1625 27.993755 240.63126Q28.556255 241.1 29.79063 241.1ZM31.04063 235.225L30.88438 234.19376Q31.50938 234.1 31.837505 233.70938Q32.16563 233.30313 32.16563 232.56876Q32.16563 231.85 31.88438 231.50626Q31.587505 231.14688 31.181255 231.14688Q30.82188 231.14688 30.618755 231.45938Q30.47813 231.67813 30.25938 232.5375Q29.962505 233.69376 29.75938 234.14688Q29.54063 234.58438 29.16563 234.81876Q28.79063 235.05313 28.32188 235.05313Q27.91563 235.05313 27.556255 234.86563Q27.19688 234.67813 26.962505 234.35Q26.79063 234.1 26.66563 233.67813Q26.54063 233.25626 26.54063 232.75626Q26.54063 232.0375 26.75938 231.49063Q26.962505 230.92813 27.32188 230.6625Q27.681255 230.39688 28.275005 230.30313L28.41563 231.33438Q27.94688 231.39688 27.681255 231.74063Q27.400005 232.06876 27.400005 232.69376Q27.400005 233.4125 27.650005 233.725Q27.88438 234.0375 28.212505 234.0375Q28.41563 234.0375 28.57188 233.9125Q28.743755 233.77188 28.85313 233.50626Q28.91563 233.35 29.118755 232.56876Q29.431255 231.44376 29.618755 231.00626Q29.806255 230.56876 30.16563 230.31876Q30.525005 230.06876 31.07188 230.06876Q31.60313 230.06876 32.07188 230.38126Q32.525005 230.67813 32.79063 231.25626Q33.04063 231.83438 33.04063 232.56876Q33.04063 233.7875 32.54063 234.42813Q32.025005 235.05313 31.04063 235.225Z" fill-rule="nonzero"/><path fill="#000000" d="M68.4 395.86563Q68.4 394.33438 68.7125 393.4125Q69.025 392.475 69.63438 391.975Q70.25938 391.475 71.19688 391.475Q71.88438 391.475 72.4 391.75626Q72.93125 392.0375 73.275 392.56876Q73.61875 393.08438 73.80625 393.83438Q73.99375 394.58438 73.99375 395.86563Q73.99375 397.38126 73.68125 398.30313Q73.38438 399.225 72.75938 399.74063Q72.15 400.24063 71.19688 400.24063Q69.9625 400.24063 69.24375 399.35Q68.4 398.2875 68.4 395.86563ZM69.47813 395.86563Q69.47813 397.975 69.97813 398.67813Q70.47813 399.38126 71.19688 399.38126Q71.93125 399.38126 72.41563 398.67813Q72.91563 397.975 72.91563 395.86563Q72.91563 393.74063 72.41563 393.05313Q71.93125 392.35 71.18125 392.35Q70.4625 392.35 70.025 392.95938Q69.47813 393.74063 69.47813 395.86563Z" fill-rule="nonzero"/><path fill="#000000" d="M61.4 297.85L62.509377 297.75626Q62.634377 298.56876 63.071877 298.975Q63.525 299.38126 64.16563 299.38126Q64.91563 299.38126 65.44688 298.80313Q65.97813 298.225 65.97813 297.2875Q65.97813 296.38126 65.4625 295.86563Q64.9625 295.33438 64.13438 295.33438Q63.634377 295.33438 63.2125 295.56876Q62.80625 295.80313 62.571877 296.1625L61.5875 296.0375L62.415627 291.63126L66.69688 291.63126L66.69688 292.63126L63.259377 292.63126L62.80625 294.94376Q63.571877 294.39688 64.41563 294.39688Q65.54063 294.39688 66.30625 295.17813Q67.0875 295.95938 67.0875 297.19376Q67.0875 298.35 66.41563 299.20938Q65.5875 300.24063 64.16563 300.24063Q62.99375 300.24063 62.24375 299.58438Q61.509377 298.92813 61.4 297.85ZM68.4 295.86563Q68.4 294.33438 68.7125 293.4125Q69.025 292.475 69.63438 291.975Q70.25938 291.475 71.19688 291.475Q71.88438 291.475 72.4 291.75626Q72.93125 292.0375 73.275 292.56876Q73.61875 293.08438 73.80625 293.83438Q73.99375 294.58438 73.99375 295.86563Q73.99375 297.38126 73.68125 298.30313Q73.38438 299.225 72.75938 299.74063Q72.15 300.24063 71.19688 300.24063Q69.9625 300.24063 69.24375 299.35Q68.4 298.2875 68.4 295.86563ZM69.47813 295.86563Q69.47813 297.975 69.97813 298.67813Q70.47813 299.38126 71.19688 299.38126Q71.93125 299.38126 72.41563 298.67813Q72.91563 297.975 72.91563 295.86563Q72.91563 293.74063 72.41563 293.05313Q71.93125 292.35 71.18125 292.35Q70.4625 292.35 70.025 292.95938Q69.47813 293.74063 69.47813 295.86563Z" fill-rule="nonzero"/><path fill="#000000" d="M58.36875 200.1L57.321877 200.1L57.321877 193.38126Q56.93125 193.74063 56.30625 194.11563Q55.696877 194.475 55.2125 194.64688L55.2125 193.63126Q56.0875 193.20938 56.74375 192.63126Q57.415627 192.0375 57.696877 191.475L58.36875 191.475L58.36875 200.1ZM61.4 195.86563Q61.4 194.33438 61.7125 193.4125Q62.025 192.475 62.634377 191.975Q63.259377 191.475 64.19688 191.475Q64.88438 191.475 65.4 191.75626Q65.93125 192.0375 66.275 192.56876Q66.61875 193.08438 66.80625 193.83438Q66.99375 194.58438 66.99375 195.86563Q66.99375 197.38126 66.68125 198.30313Q66.38438 199.225 65.75938 199.74063Q65.15 200.24063 64.19688 200.24063Q62.9625 200.24063 62.24375 199.35Q61.4 198.2875 61.4 195.86563ZM62.478127 195.86563Q62.478127 197.975 62.978127 198.67813Q63.478127 199.38126 64.19688 199.38126Q64.93125 199.38126 65.41563 198.67813Q65.91563 197.975 65.91563 195.86563Q65.91563 193.74063 65.41563 193.05313Q64.93125 192.35 64.18125 192.35Q63.4625 192.35 63.025 192.95938Q62.478127 193.74063 62.478127 195.86563ZM68.4 195.86563Q68.4 194.33438 68.7125 193.4125Q69.025 192.475 69.63438 191.975Q70.25938 191.475 71.19688 191.475Q71.88438 191.475 72.4 191.75626Q72.93125 192.0375 73.275 192.56876Q73.61875 193.08438 73.80625 193.83438Q73.99375 194.58438 73.99375 195.86563Q73.99375 197.38126 73.68125 198.30313Q73.38438 199.225 72.75938 199.74063Q72.15 200.24063 71.19688 200.24063Q69.9625 200.24063 69.24375 199.35Q68.4 198.2875 68.4 195.86563ZM69.47813 195.86563Q69.47813 197.975 69.97813 198.67813Q70.47813 199.38126 71.19688 199.38126Q71.93125 199.38126 72.41563 198.67813Q72.91563 197.975 72.91563 195.86563Q72.91563 193.74063 72.41563 193.05313Q71.93125 192.35 71.18125 192.35Q70.4625 192.35 70.025 192.95938Q69.47813 193.74063 69.47813 195.86563Z" fill-rule="nonzero"/><path fill="#000000" d="M58.36875 100.1L57.321877 100.1L57.321877 93.38125Q56.93125 93.74062 56.30625 94.11562Q55.696877 94.475 55.2125 94.64687L55.2125 93.63125Q56.0875 93.20937 56.74375 92.63125Q57.415627 92.0375 57.696877 91.475L58.36875 91.475L58.36875 100.1ZM61.4 97.85L62.509377 97.75625Q62.634377 98.56875 63.071877 98.975Q63.525 99.38125 64.16563 99.38125Q64.91563 99.38125 65.44688 98.80312Q65.97813 98.225 65.97813 97.2875Q65.97813 96.38125 65.4625 95.86562Q64.9625 95.33437 64.13438 95.33437Q63.634377 95.33437 63.2125 95.56875Q62.80625 95.80312 62.571877 96.1625L61.5875 96.0375L62.415627 91.63125L66.69688 91.63125L66.69688 92.63125L63.259377 92.63125L62.80625 94.94375Q63.571877 94.39687 64.41563 94.39687Q65.54063 94.39687 66.30625 95.17812Q67.0875 95.95937 67.0875 97.19375Q67.0875 98.35 66.41563 99.20937Q65.5875 100.24062 64.16563 100.24062Q62.99375 100.24062 62.24375 99.58437Q61.509377 98.92812 61.4 97.85ZM68.4 95.86562Q68.4 94.33437 68.7125 93.4125Q69.025 92.475 69.63438 91.975Q70.25938 91.475 71.19688 91.475Q71.88438 91.475 72.4 91.75625Q72.93125 92.0375 73.275 92.56875Q73.61875 93.08437 73.80625 93.83437Q73.99375 94.58437 73.99375 95.86562Q73.99375 97.38125 73.68125 98.30312Q73.38438 99.225 72.75938 99.74062Q72.15 100.24062 71.19688 100.24062Q69.9625 100.24062 69.24375 99.35Q68.4 98.2875 68.4 95.86562ZM69.47813 95.86562Q69.47813 97.975 69.97813 98.67812Q70.47813 99.38125 71.19688 99.38125Q71.93125 99.38125 72.41563 98.67812Q72.91563 97.975 72.91563 95.86562Q72.91563 93.74062 72.41563 93.05312Q71.93125 92.35 71.18125 92.35Q70.4625 92.35 70.025 92.95937Q69.47813 93.74062 69.47813 95.86562Z" fill-rule="nonzero"/><path fill="#000000" d="M150.79472 413.1L154.0916 404.50626L155.31035 404.50626L158.82597 413.1L157.54472 413.1L156.5291 410.49063L152.95097 410.49063L151.99785 413.1L150.79472 413.1ZM153.2791 409.56876L156.18535 409.56876L155.29472 407.19376Q154.87285 406.11563 154.68535 405.4125Q154.51347 406.24063 154.2166 407.05313L153.2791 409.56876ZM160.23222 413.1L157.95097 404.50626L159.12285 404.50626L160.43535 410.14688Q160.63847 411.02188 160.79472 411.89688Q161.12285 410.52188 161.18535 410.30313L162.81035 404.50626L164.18535 404.50626L165.41972 408.85Q165.87285 410.475 166.0916 411.89688Q166.24785 411.08438 166.51347 410.02188L167.85722 404.50626L168.99785 404.50626L166.6541 413.1L165.54472 413.1L163.74785 406.55313Q163.51347 405.74063 163.4666 405.55313Q163.3416 406.13126 163.2166 406.55313L161.4041 413.1L160.23222 413.1ZM169.35722 410.33438L170.41972 410.24063Q170.49785 410.89688 170.7791 411.30313Q171.06035 411.70938 171.63847 411.975Q172.23222 412.225 172.9666 412.225Q173.60722 412.225 174.10722 412.0375Q174.60722 411.83438 174.8416 411.50626Q175.0916 411.1625 175.0916 410.77188Q175.0916 410.36563 174.85722 410.06876Q174.62285 409.75626 174.0916 409.55313Q173.73222 409.4125 172.54472 409.13126Q171.37285 408.85 170.9041 408.6Q170.2791 408.27188 169.98222 407.80313Q169.68535 407.31876 169.68535 406.725Q169.68535 406.08438 170.04472 405.52188Q170.41972 404.94376 171.12285 404.6625Q171.8416 404.36563 172.70097 404.36563Q173.6541 404.36563 174.38847 404.67813Q175.12285 404.975 175.51347 405.58438Q175.9041 406.17813 175.93535 406.92813L174.8416 407.00626Q174.74785 406.19376 174.23222 405.7875Q173.73222 405.36563 172.74785 405.36563Q171.7166 405.36563 171.24785 405.74063Q170.7791 406.11563 170.7791 406.64688Q170.7791 407.11563 171.10722 407.4125Q171.43535 407.70938 172.81035 408.02188Q174.20097 408.33438 174.7166 408.56876Q175.4666 408.92813 175.82597 409.45938Q176.18535 409.975 176.18535 410.67813Q176.18535 411.36563 175.79472 411.975Q175.4041 412.56876 174.66972 412.9125Q173.93535 413.24063 173.01347 413.24063Q171.8416 413.24063 171.04472 412.9125Q170.26347 412.56876 169.81035 411.88126Q169.37285 411.19376 169.35722 410.33438ZM186.87285 410.08438L187.99785 410.38126Q187.63847 411.77188 186.7166 412.50626Q185.79472 413.24063 184.45097 413.24063Q183.06035 413.24063 182.18535 412.67813Q181.31035 412.11563 180.85722 411.05313Q180.4041 409.975 180.4041 408.74063Q180.4041 407.39688 180.91972 406.39688Q181.43535 405.39688 182.37285 404.88126Q183.32597 404.36563 184.4666 404.36563Q185.74785 404.36563 186.62285 405.02188Q187.51347 405.67813 187.85722 406.86563L186.73222 407.13126Q186.43535 406.19376 185.85722 405.77188Q185.29472 405.33438 184.43535 405.33438Q183.45097 405.33438 182.7791 405.81876Q182.12285 406.2875 181.8416 407.08438Q181.57597 407.88126 181.57597 408.74063Q181.57597 409.83438 181.88847 410.64688Q182.2166 411.45938 182.88847 411.86563Q183.56035 412.27188 184.35722 412.27188Q185.31035 412.27188 185.9666 411.725Q186.63847 411.17813 186.87285 410.08438ZM189.68535 413.1L189.68535 404.50626L190.82597 404.50626L190.82597 412.08438L195.06035 412.08438L195.06035 413.1L189.68535 413.1ZM196.93535 413.1L196.93535 404.50626L198.06035 404.50626L198.06035 413.1L196.93535 413.1Z" fill-rule="nonzero"/><path fill="#000000" d="M295.37427 413.1L295.37427 404.50626L299.18677 404.50626Q300.34302 404.50626 300.93677 404.74063Q301.53052 404.975 301.8899 405.56876Q302.24927 406.14688 302.24927 406.85Q302.24927 407.77188 301.65552 408.39688Q301.06177 409.02188 299.8274 409.19376Q300.28052 409.4125 300.5149 409.61563Q301.0149 410.06876 301.4524 410.75626L302.9524 413.1L301.5149 413.1L300.3899 411.31876Q299.8899 410.5375 299.56177 410.13126Q299.24927 409.725 298.98364 409.56876Q298.73364 409.39688 298.46802 409.31876Q298.28052 409.2875 297.84302 409.2875L296.5149 409.2875L296.5149 413.1L295.37427 413.1ZM296.5149 408.30313L298.96802 408.30313Q299.73364 408.30313 300.17114 408.14688Q300.62427 407.975 300.84302 407.63126Q301.0774 407.27188 301.0774 406.85Q301.0774 406.24063 300.62427 405.85Q300.18677 405.45938 299.23364 405.45938L296.5149 405.45938L296.5149 408.30313ZM308.29614 410.81876L309.3274 410.95938Q309.15552 412.02188 308.4524 412.63126Q307.74927 413.24063 306.73364 413.24063Q305.4524 413.24063 304.67114 412.4125Q303.90552 411.56876 303.90552 410.00626Q303.90552 409.00626 304.23364 408.25626Q304.5774 407.49063 305.24927 407.11563Q305.93677 406.74063 306.74927 406.74063Q307.74927 406.74063 308.3899 407.25626Q309.04614 407.75626 309.23364 408.70938L308.2024 408.86563Q308.06177 408.24063 307.68677 407.92813Q307.31177 407.6 306.78052 407.6Q305.98364 407.6 305.48364 408.17813Q304.98364 408.74063 304.98364 409.975Q304.98364 411.24063 305.46802 411.80313Q305.9524 412.36563 306.71802 412.36563Q307.34302 412.36563 307.74927 411.99063Q308.17114 411.61563 308.29614 410.81876ZM310.2024 413.1L310.2024 404.50626L311.2649 404.50626L311.2649 413.1L310.2024 413.1ZM312.84302 409.99063Q312.84302 408.25626 313.79614 407.42813Q314.59302 406.74063 315.74927 406.74063Q317.03052 406.74063 317.84302 407.58438Q318.67114 408.4125 318.67114 409.89688Q318.67114 411.1 318.31177 411.7875Q317.9524 412.475 317.24927 412.86563Q316.56177 413.24063 315.74927 413.24063Q314.4524 413.24063 313.6399 412.4125Q312.84302 411.56876 312.84302 409.99063ZM313.92114 409.99063Q313.92114 411.17813 314.43677 411.77188Q314.96802 412.36563 315.74927 412.36563Q316.54614 412.36563 317.06177 411.77188Q317.5774 411.17813 317.5774 409.95938Q317.5774 408.80313 317.04614 408.20938Q316.53052 407.61563 315.74927 407.61563Q314.96802 407.61563 314.43677 408.20938Q313.92114 408.7875 313.92114 409.99063ZM320.23364 413.1L320.23364 406.88126L321.17114 406.88126L321.17114 407.75626Q321.85864 406.74063 323.15552 406.74063Q323.71802 406.74063 324.18677 406.94376Q324.67114 407.14688 324.90552 407.475Q325.1399 407.80313 325.23364 408.24063Q325.28052 408.5375 325.28052 409.27188L325.28052 413.1L324.23364 413.1L324.23364 409.31876Q324.23364 408.6625 324.10864 408.35Q323.98364 408.0375 323.67114 407.85Q323.35864 407.64688 322.93677 407.64688Q322.2649 407.64688 321.7649 408.08438Q321.28052 408.50626 321.28052 409.69376L321.28052 413.1L320.23364 413.1ZM331.48364 411.1L332.5774 411.225Q332.3274 412.17813 331.62427 412.70938Q330.92114 413.24063 329.84302 413.24063Q328.48364 413.24063 327.67114 412.39688Q326.87427 411.55313 326.87427 410.0375Q326.87427 408.475 327.68677 407.61563Q328.49927 406.74063 329.78052 406.74063Q331.03052 406.74063 331.81177 407.58438Q332.60864 408.42813 332.60864 409.975Q332.60864 410.06876 332.60864 410.25626L327.96802 410.25626Q328.03052 411.2875 328.54614 411.83438Q329.06177 412.36563 329.84302 412.36563Q330.42114 412.36563 330.8274 412.06876Q331.24927 411.75626 331.48364 411.1ZM328.03052 409.39688L331.49927 409.39688Q331.43677 408.6 331.10864 408.20938Q330.59302 407.6 329.79614 407.6Q329.06177 407.6 328.56177 408.08438Q328.0774 408.56876 328.03052 409.39688Z" fill-rule="nonzero"/><path fill="#000000" d="M441.4851 413.1L441.4851 404.50626L444.45386 404.50626Q445.45386 404.50626 445.9851 404.63126Q446.71948 404.80313 447.2351 405.24063Q447.9226 405.81876 448.25073 406.725Q448.59448 407.61563 448.59448 408.75626Q448.59448 409.74063 448.3601 410.49063Q448.14136 411.24063 447.78198 411.74063Q447.4226 412.24063 446.9851 412.52188Q446.56323 412.80313 445.96948 412.95938Q445.37573 413.1 444.59448 413.1L441.4851 413.1ZM442.62573 412.08438L444.45386 412.08438Q445.31323 412.08438 445.7976 411.92813Q446.28198 411.77188 446.56323 411.475Q446.96948 411.08438 447.18823 410.39688Q447.4226 409.70938 447.4226 408.74063Q447.4226 407.39688 446.96948 406.67813Q446.53198 405.94376 445.90698 405.69376Q445.43823 405.52188 444.43823 405.52188L442.62573 405.52188L442.62573 412.08438ZM452.93823 413.1L449.6101 404.50626L450.84448 404.50626L453.07886 410.75626Q453.34448 411.50626 453.53198 412.1625Q453.7351 411.45938 454.00073 410.75626L456.31323 404.50626L457.46948 404.50626L454.1101 413.1L452.93823 413.1ZM463.62573 410.08438L464.75073 410.38126Q464.39136 411.77188 463.46948 412.50626Q462.5476 413.24063 461.20386 413.24063Q459.81323 413.24063 458.93823 412.67813Q458.06323 412.11563 457.6101 411.05313Q457.15698 409.975 457.15698 408.74063Q457.15698 407.39688 457.6726 406.39688Q458.18823 405.39688 459.12573 404.88126Q460.07886 404.36563 461.21948 404.36563Q462.50073 404.36563 463.37573 405.02188Q464.26636 405.67813 464.6101 406.86563L463.4851 407.13126Q463.18823 406.19376 462.6101 405.77188Q462.0476 405.33438 461.18823 405.33438Q460.20386 405.33438 459.53198 405.81876Q458.87573 406.2875 458.59448 407.08438Q458.32886 407.88126 458.32886 408.74063Q458.32886 409.83438 458.64136 410.64688Q458.96948 411.45938 459.64136 411.86563Q460.31323 412.27188 461.1101 412.27188Q462.06323 412.27188 462.71948 411.725Q463.39136 411.17813 463.62573 410.08438Z" fill-rule="nonzero"/><path fill="#000000" d="M580.174 413.1L583.4709 404.50626L584.68964 404.50626L588.20526 413.1L586.924 413.1L585.9084 410.49063L582.33026 410.49063L581.37714 413.1L580.174 413.1ZM582.6584 409.56876L585.56464 409.56876L584.674 407.19376Q584.25214 406.11563 584.06464 405.4125Q583.89276 406.24063 583.5959 407.05313L582.6584 409.56876ZM587.9709 413.1L587.9709 406.88126L588.924 406.88126L588.924 407.81876Q589.2834 407.1625 589.58026 406.95938Q589.89276 406.74063 590.26776 406.74063Q590.799 406.74063 591.3459 407.06876L590.9865 408.05313Q590.5959 407.81876 590.2209 407.81876Q589.8615 407.81876 589.58026 408.0375Q589.31464 408.24063 589.20526 408.61563Q589.01776 409.17813 589.01776 409.83438L589.01776 413.1L587.9709 413.1ZM594.2834 412.1625L594.43964 413.08438Q593.9865 413.17813 593.64276 413.17813Q593.06464 413.17813 592.75214 413.00626Q592.43964 412.81876 592.299 412.52188Q592.174 412.225 592.174 411.27188L592.174 407.69376L591.4084 407.69376L591.4084 406.88126L592.174 406.88126L592.174 405.33438L593.2209 404.70938L593.2209 406.88126L594.2834 406.88126L594.2834 407.69376L593.2209 407.69376L593.2209 411.33438Q593.2209 411.7875 593.26776 411.9125Q593.33026 412.0375 593.45526 412.11563Q593.58026 412.19376 593.81464 412.19376Q594.00214 412.19376 594.2834 412.1625ZM594.9865 405.725L594.9865 404.50626L596.049 404.50626L596.049 405.725L594.9865 405.725ZM594.9865 413.1L594.9865 406.88126L596.049 406.88126L596.049 413.1L594.9865 413.1ZM600.56464 413.1L597.2365 404.50626L598.4709 404.50626L600.70526 410.75626Q600.9709 411.50626 601.1584 412.1625Q601.3615 411.45938 601.62714 410.75626L603.93964 404.50626L605.0959 404.50626L601.7365 413.1L600.56464 413.1Z" fill-rule="nonzero"/><path fill="#6fa8dc" d="M198.0 62.5C198.0 61.947716 198.44771 61.5 199.0 61.5L209.0 61.5C209.55229 61.5 210.0 61.947716 210.0 62.5L210.0 72.5C210.0 73.052284 209.55229 73.5 209.0 73.5L199.0 73.5C198.44771 73.5 198.0 73.052284 198.0 72.5Z" fill-rule="nonzero"/><path fill="#1a1a1a" d="M222.46875 71.5L221.42188 71.5L221.42188 64.78125Q221.03125 65.140625 220.40625 65.515625Q219.79688 65.875 219.3125 66.046875L219.3125 65.03125Q220.1875 64.609375 220.84375 64.03125Q221.51562 63.4375 221.79688 62.875L222.46875 62.875L222.46875 71.5ZM225.375 69.640625L226.40625 69.484375Q226.5 70.109375 226.89062 70.4375Q227.29688 70.765625 228.03125 70.765625Q228.75 70.765625 229.09375 70.484375Q229.45312 70.1875 229.45312 69.78125Q229.45312 69.421875 229.14062 69.21875Q228.92188 69.078125 228.0625 68.859375Q226.90625 68.5625 226.45312 68.359375Q226.01562 68.140625 225.78125 67.765625Q225.54688 67.390625 225.54688 66.921875Q225.54688 66.515625 225.73438 66.15625Q225.92188 65.796875 226.25 65.5625Q226.5 65.390625 226.92188 65.265625Q227.34375 65.140625 227.84375 65.140625Q228.5625 65.140625 229.10938 65.359375Q229.67188 65.5625 229.9375 65.921875Q230.20312 66.28125 230.29688 66.875L229.26562 67.015625Q229.20312 66.546875 228.85938 66.28125Q228.53125 66.0 227.90625 66.0Q227.1875 66.0 226.875 66.25Q226.5625 66.484375 226.5625 66.8125Q226.5625 67.015625 226.6875 67.171875Q226.82812 67.34375 227.09375 67.453125Q227.25 67.515625 228.03125 67.71875Q229.15625 68.03125 229.59375 68.21875Q230.03125 68.40625 230.28125 68.765625Q230.53125 69.125 230.53125 69.671875Q230.53125 70.203125 230.21875 70.671875Q229.92188 71.125 229.34375 71.390625Q228.76562 71.640625 228.03125 71.640625Q226.8125 71.640625 226.17188 71.140625Q225.54688 70.625 225.375 69.640625ZM235.09375 70.5625L235.25 71.484375Q234.79688 71.578125 234.45312 71.578125Q233.875 71.578125 233.5625 71.40625Q233.25 71.21875 233.10938 70.921875Q232.98438 70.625 232.98438 69.671875L232.98438 66.09375L232.21875 66.09375L232.21875 65.28125L232.98438 65.28125L232.98438 63.734375L234.03125 63.109375L234.03125 65.28125L235.09375 65.28125L235.09375 66.09375L234.03125 66.09375L234.03125 69.734375Q234.03125 70.1875 234.07812 70.3125Q234.14062 70.4375 234.26562 70.515625Q234.39062 70.59375 234.625 70.59375Q234.8125 70.59375 235.09375 70.5625ZM238.79688 73.890625L238.79688 65.28125L239.75 65.28125L239.75 66.078125Q240.09375 65.609375 240.51562 65.375Q240.95312 65.140625 241.5625 65.140625Q242.35938 65.140625 242.96875 65.546875Q243.57812 65.953125 243.875 66.703125Q244.1875 67.453125 244.1875 68.34375Q244.1875 69.296875 243.84375 70.0625Q243.51562 70.828125 242.85938 71.234375Q242.20312 71.640625 241.48438 71.640625Q240.95312 71.640625 240.53125 71.421875Q240.10938 71.1875 239.84375 70.859375L239.84375 73.890625L238.79688 73.890625ZM239.75 68.421875Q239.75 69.625 240.23438 70.203125Q240.71875 70.765625 241.40625 70.765625Q242.10938 70.765625 242.60938 70.171875Q243.10938 69.578125 243.10938 68.328125Q243.10938 67.140625 242.625 66.5625Q242.14062 65.96875 241.45312 65.96875Q240.78125 65.96875 240.26562 66.59375Q239.75 67.21875 239.75 68.421875ZM249.875 71.5L249.875 70.578125Q249.14062 71.640625 247.89062 71.640625Q247.34375 71.640625 246.85938 71.4375Q246.39062 71.21875 246.15625 70.90625Q245.92188 70.578125 245.82812 70.109375Q245.76562 69.8125 245.76562 69.125L245.76562 65.28125L246.82812 65.28125L246.82812 68.734375Q246.82812 69.546875 246.89062 69.84375Q246.98438 70.25 247.29688 70.5Q247.625 70.734375 248.10938 70.734375Q248.57812 70.734375 248.98438 70.5Q249.40625 70.25 249.57812 69.828125Q249.76562 69.40625 249.76562 68.609375L249.76562 65.28125L250.8125 65.28125L250.8125 71.5L249.875 71.5ZM252.375 69.640625L253.40625 69.484375Q253.5 70.109375 253.89062 70.4375Q254.29688 70.765625 255.03125 70.765625Q255.75 70.765625 256.09375 70.484375Q256.45312 70.1875 256.45312 69.78125Q256.45312 69.421875 256.14062 69.21875Q255.92188 69.078125 255.0625 68.859375Q253.90625 68.5625 253.45312 68.359375Q253.01562 68.140625 252.78125 67.765625Q252.54688 67.390625 252.54688 66.921875Q252.54688 66.515625 252.73438 66.15625Q252.92188 65.796875 253.25 65.5625Q253.5 65.390625 253.92188 65.265625Q254.34375 65.140625 254.84375 65.140625Q255.5625 65.140625 256.10938 65.359375Q256.67188 65.5625 256.9375 65.921875Q257.20312 66.28125 257.29688 66.875L256.26562 67.015625Q256.20312 66.546875 255.85938 66.28125Q255.53125 66.0 254.90625 66.0Q254.1875 66.0 253.875 66.25Q253.5625 66.484375 253.5625 66.8125Q253.5625 67.015625 253.6875 67.171875Q253.82812 67.34375 254.09375 67.453125Q254.25 67.515625 255.03125 67.71875Q256.15625 68.03125 256.59375 68.21875Q257.03125 68.40625 257.28125 68.765625Q257.53125 69.125 257.53125 69.671875Q257.53125 70.203125 257.21875 70.671875Q256.92188 71.125 256.34375 71.390625Q255.76562 71.640625 255.03125 71.640625Q253.8125 71.640625 253.17188 71.140625Q252.54688 70.625 252.375 69.640625ZM259.79688 71.5L259.79688 62.90625L260.84375 62.90625L260.84375 65.984375Q261.57812 65.140625 262.70312 65.140625Q263.40625 65.140625 263.90625 65.421875Q264.42188 65.6875 264.64062 66.171875Q264.85938 66.640625 264.85938 67.5625L264.85938 71.5L263.8125 71.5L263.8125 67.5625Q263.8125 66.765625 263.46875 66.40625Q263.125 66.046875 262.5 66.046875Q262.03125 66.046875 261.60938 66.296875Q261.20312 66.53125 261.01562 66.953125Q260.84375 67.359375 260.84375 68.09375L260.84375 71.5L259.79688 71.5Z" fill-rule="nonzero"/><path fill="#e06666" d="M282.0 62.5C282.0 61.947716 282.44772 61.5 283.0 61.5L293.0 61.5C293.55228 61.5 294.0 61.947716 294.0 62.5L294.0 72.5C294.0 73.052284 293.55228 73.5 293.0 73.5L283.0 73.5C282.44772 73.5 282.0 73.052284 282.0 72.5Z" fill-rule="nonzero"/><path fill="#1a1a1a" d="M308.04688 70.484375L308.04688 71.5L302.35938 71.5Q302.35938 71.125 302.48438 70.765625Q302.70312 70.1875 303.17188 69.625Q303.65625 69.0625 304.5625 68.328125Q305.96875 67.171875 306.45312 66.5Q306.95312 65.828125 306.95312 65.234375Q306.95312 64.609375 306.5 64.1875Q306.04688 63.75 305.32812 63.75Q304.5625 63.75 304.10938 64.203125Q303.65625 64.65625 303.64062 65.46875L302.5625 65.359375Q302.67188 64.140625 303.39062 63.515625Q304.125 62.875 305.35938 62.875Q306.59375 62.875 307.3125 63.5625Q308.03125 64.25 308.03125 65.265625Q308.03125 65.78125 307.8125 66.28125Q307.60938 66.765625 307.10938 67.328125Q306.625 67.875 305.5 68.828125Q304.54688 69.625 304.26562 69.921875Q304.0 70.203125 303.82812 70.484375L308.04688 70.484375ZM309.79688 71.5L309.79688 65.28125L310.73438 65.28125L310.73438 66.15625Q311.42188 65.140625 312.71875 65.140625Q313.28125 65.140625 313.75 65.34375Q314.23438 65.546875 314.46875 65.875Q314.70312 66.203125 314.79688 66.640625Q314.84375 66.9375 314.84375 67.671875L314.84375 71.5L313.79688 71.5L313.79688 67.71875Q313.79688 67.0625 313.67188 66.75Q313.54688 66.4375 313.23438 66.25Q312.92188 66.046875 312.5 66.046875Q311.82812 66.046875 311.32812 66.484375Q310.84375 66.90625 310.84375 68.09375L310.84375 71.5L309.79688 71.5ZM320.82812 71.5L320.82812 70.71875Q320.23438 71.640625 319.09375 71.640625Q318.34375 71.640625 317.71875 71.234375Q317.09375 70.8125 316.75 70.078125Q316.40625 69.34375 316.40625 68.390625Q316.40625 67.46875 316.71875 66.703125Q317.03125 65.9375 317.65625 65.546875Q318.28125 65.140625 319.04688 65.140625Q319.60938 65.140625 320.04688 65.375Q320.48438 65.609375 320.76562 65.984375L320.76562 62.90625L321.8125 62.90625L321.8125 71.5L320.82812 71.5ZM317.5 68.390625Q317.5 69.59375 318.0 70.1875Q318.5 70.765625 319.1875 70.765625Q319.875 70.765625 320.35938 70.203125Q320.84375 69.640625 320.84375 68.484375Q320.84375 67.203125 320.34375 66.609375Q319.85938 66.015625 319.14062 66.015625Q318.4375 66.015625 317.96875 66.59375Q317.5 67.15625 317.5 68.390625ZM326.79688 73.890625L326.79688 65.28125L327.75 65.28125L327.75 66.078125Q328.09375 65.609375 328.51562 65.375Q328.95312 65.140625 329.5625 65.140625Q330.35938 65.140625 330.96875 65.546875Q331.57812 65.953125 331.875 66.703125Q332.1875 67.453125 332.1875 68.34375Q332.1875 69.296875 331.84375 70.0625Q331.51562 70.828125 330.85938 71.234375Q330.20312 71.640625 329.48438 71.640625Q328.95312 71.640625 328.53125 71.421875Q328.10938 71.1875 327.84375 70.859375L327.84375 73.890625L326.79688 73.890625ZM327.75 68.421875Q327.75 69.625 328.23438 70.203125Q328.71875 70.765625 329.40625 70.765625Q330.10938 70.765625 330.60938 70.171875Q331.10938 69.578125 331.10938 68.328125Q331.10938 67.140625 330.625 66.5625Q330.14062 65.96875 329.45312 65.96875Q328.78125 65.96875 328.26562 66.59375Q327.75 67.21875 327.75 68.421875ZM337.875 71.5L337.875 70.578125Q337.14062 71.640625 335.89062 71.640625Q335.34375 71.640625 334.85938 71.4375Q334.39062 71.21875 334.15625 70.90625Q333.92188 70.578125 333.82812 70.109375Q333.76562 69.8125 333.76562 69.125L333.76562 65.28125L334.82812 65.28125L334.82812 68.734375Q334.82812 69.546875 334.89062 69.84375Q334.98438 70.25 335.29688 70.5Q335.625 70.734375 336.10938 70.734375Q336.57812 70.734375 336.98438 70.5Q337.40625 70.25 337.57812 69.828125Q337.76562 69.40625 337.76562 68.609375L337.76562 65.28125L338.8125 65.28125L338.8125 71.5L337.875 71.5ZM340.375 69.640625L341.40625 69.484375Q341.5 70.109375 341.89062 70.4375Q342.29688 70.765625 343.03125 70.765625Q343.75 70.765625 344.09375 70.484375Q344.45312 70.1875 344.45312 69.78125Q344.45312 69.421875 344.14062 69.21875Q343.92188 69.078125 343.0625 68.859375Q341.90625 68.5625 341.45312 68.359375Q341.01562 68.140625 340.78125 67.765625Q340.54688 67.390625 340.54688 66.921875Q340.54688 66.515625 340.73438 66.15625Q340.92188 65.796875 341.25 65.5625Q341.5 65.390625 341.92188 65.265625Q342.34375 65.140625 342.84375 65.140625Q343.5625 65.140625 344.10938 65.359375Q344.67188 65.5625 344.9375 65.921875Q345.20312 66.28125 345.29688 66.875L344.26562 67.015625Q344.20312 66.546875 343.85938 66.28125Q343.53125 66.0 342.90625 66.0Q342.1875 66.0 341.875 66.25Q341.5625 66.484375 341.5625 66.8125Q341.5625 67.015625 341.6875 67.171875Q341.82812 67.34375 342.09375 67.453125Q342.25 67.515625 343.03125 67.71875Q344.15625 68.03125 344.59375 68.21875Q345.03125 68.40625 345.28125 68.765625Q345.53125 69.125 345.53125 69.671875Q345.53125 70.203125 345.21875 70.671875Q344.92188 71.125 344.34375 71.390625Q343.76562 71.640625 343.03125 71.640625Q341.8125 71.640625 341.17188 71.140625Q340.54688 70.625 340.375 69.640625ZM347.79688 71.5L347.79688 62.90625L348.84375 62.90625L348.84375 65.984375Q349.57812 65.140625 350.70312 65.140625Q351.40625 65.140625 351.90625 65.421875Q352.42188 65.6875 352.64062 66.171875Q352.85938 66.640625 352.85938 67.5625L352.85938 71.5L351.8125 71.5L351.8125 67.5625Q351.8125 66.765625 351.46875 66.40625Q351.125 66.046875 350.5 66.046875Q350.03125 66.046875 349.60938 66.296875Q349.20312 66.53125 349.01562 66.953125Q348.84375 67.359375 348.84375 68.09375L348.84375 71.5L347.79688 71.5Z" fill-rule="nonzero"/><path fill="#ffd966" d="M370.0 62.5C370.0 61.947716 370.44772 61.5 371.0 61.5L381.0 61.5C381.55228 61.5 382.0 61.947716 382.0 62.5L382.0 72.5C382.0 73.052284 381.55228 73.5 381.0 73.5L371.0 73.5C370.44772 73.5 370.0 73.052284 370.0 72.5Z" fill-rule="nonzero"/><path fill="#1a1a1a" d="M394.46875 71.5L393.42188 71.5L393.42188 64.78125Q393.03125 65.140625 392.40625 65.515625Q391.79688 65.875 391.3125 66.046875L391.3125 65.03125Q392.1875 64.609375 392.84375 64.03125Q393.51562 63.4375 393.79688 62.875L394.46875 62.875L394.46875 71.5ZM397.375 69.640625L398.40625 69.484375Q398.5 70.109375 398.89062 70.4375Q399.29688 70.765625 400.03125 70.765625Q400.75 70.765625 401.09375 70.484375Q401.45312 70.1875 401.45312 69.78125Q401.45312 69.421875 401.14062 69.21875Q400.92188 69.078125 400.0625 68.859375Q398.90625 68.5625 398.45312 68.359375Q398.01562 68.140625 397.78125 67.765625Q397.54688 67.390625 397.54688 66.921875Q397.54688 66.515625 397.73438 66.15625Q397.92188 65.796875 398.25 65.5625Q398.5 65.390625 398.92188 65.265625Q399.34375 65.140625 399.84375 65.140625Q400.5625 65.140625 401.10938 65.359375Q401.67188 65.5625 401.9375 65.921875Q402.20312 66.28125 402.29688 66.875L401.26562 67.015625Q401.20312 66.546875 400.85938 66.28125Q400.53125 66.0 399.90625 66.0Q399.1875 66.0 398.875 66.25Q398.5625 66.484375 398.5625 66.8125Q398.5625 67.015625 398.6875 67.171875Q398.82812 67.34375 399.09375 67.453125Q399.25 67.515625 400.03125 67.71875Q401.15625 68.03125 401.59375 68.21875Q402.03125 68.40625 402.28125 68.765625Q402.53125 69.125 402.53125 69.671875Q402.53125 70.203125 402.21875 70.671875Q401.92188 71.125 401.34375 71.390625Q400.76562 71.640625 400.03125 71.640625Q398.8125 71.640625 398.17188 71.140625Q397.54688 70.625 397.375 69.640625ZM407.09375 70.5625L407.25 71.484375Q406.79688 71.578125 406.45312 71.578125Q405.875 71.578125 405.5625 71.40625Q405.25 71.21875 405.10938 70.921875Q404.98438 70.625 404.98438 69.671875L404.98438 66.09375L404.21875 66.09375L404.21875 65.28125L404.98438 65.28125L404.98438 63.734375L406.03125 63.109375L406.03125 65.28125L407.09375 65.28125L407.09375 66.09375L406.03125 66.09375L406.03125 69.734375Q406.03125 70.1875 406.07812 70.3125Q406.14062 70.4375 406.26562 70.515625Q406.39062 70.59375 406.625 70.59375Q406.8125 70.59375 407.09375 70.5625ZM410.79688 73.890625L410.79688 65.28125L411.75 65.28125L411.75 66.078125Q412.09375 65.609375 412.51562 65.375Q412.95312 65.140625 413.5625 65.140625Q414.35938 65.140625 414.96875 65.546875Q415.57812 65.953125 415.875 66.703125Q416.1875 67.453125 416.1875 68.34375Q416.1875 69.296875 415.84375 70.0625Q415.51562 70.828125 414.85938 71.234375Q414.20312 71.640625 413.48438 71.640625Q412.95312 71.640625 412.53125 71.421875Q412.10938 71.1875 411.84375 70.859375L411.84375 73.890625L410.79688 73.890625ZM411.75 68.421875Q411.75 69.625 412.23438 70.203125Q412.71875 70.765625 413.40625 70.765625Q414.10938 70.765625 414.60938 70.171875Q415.10938 69.578125 415.10938 68.328125Q415.10938 67.140625 414.625 66.5625Q414.14062 65.96875 413.45312 65.96875Q412.78125 65.96875 412.26562 66.59375Q411.75 67.21875 411.75 68.421875ZM421.875 71.5L421.875 70.578125Q421.14062 71.640625 419.89062 71.640625Q419.34375 71.640625 418.85938 71.4375Q418.39062 71.21875 418.15625 70.90625Q417.92188 70.578125 417.82812 70.109375Q417.76562 69.8125 417.76562 69.125L417.76562 65.28125L418.82812 65.28125L418.82812 68.734375Q418.82812 69.546875 418.89062 69.84375Q418.98438 70.25 419.29688 70.5Q419.625 70.734375 420.10938 70.734375Q420.57812 70.734375 420.98438 70.5Q421.40625 70.25 421.57812 69.828125Q421.76562 69.40625 421.76562 68.609375L421.76562 65.28125L422.8125 65.28125L422.8125 71.5L421.875 71.5ZM424.76562 71.5L424.76562 62.90625L425.82812 62.90625L425.82812 71.5L424.76562 71.5ZM427.76562 71.5L427.76562 62.90625L428.82812 62.90625L428.82812 71.5L427.76562 71.5Z" fill-rule="nonzero"/><path fill="#93c47d" d="M446.0 62.5C446.0 61.947716 446.44772 61.5 447.0 61.5L457.0 61.5C457.55228 61.5 458.0 61.947716 458.0 62.5L458.0 72.5C458.0 73.052284 457.55228 73.5 457.0 73.5L447.0 73.5C446.44772 73.5 446.0 73.052284 446.0 72.5Z" fill-rule="nonzero"/><path fill="#1a1a1a" d="M472.04688 70.484375L472.04688 71.5L466.35938 71.5Q466.35938 71.125 466.48438 70.765625Q466.70312 70.1875 467.17188 69.625Q467.65625 69.0625 468.5625 68.328125Q469.96875 67.171875 470.45312 66.5Q470.95312 65.828125 470.95312 65.234375Q470.95312 64.609375 470.5 64.1875Q470.04688 63.75 469.32812 63.75Q468.5625 63.75 468.10938 64.203125Q467.65625 64.65625 467.64062 65.46875L466.5625 65.359375Q466.67188 64.140625 467.39062 63.515625Q468.125 62.875 469.35938 62.875Q470.59375 62.875 471.3125 63.5625Q472.03125 64.25 472.03125 65.265625Q472.03125 65.78125 471.8125 66.28125Q471.60938 66.765625 471.10938 67.328125Q470.625 67.875 469.5 68.828125Q468.54688 69.625 468.26562 69.921875Q468.0 70.203125 467.82812 70.484375L472.04688 70.484375ZM473.79688 71.5L473.79688 65.28125L474.73438 65.28125L474.73438 66.15625Q475.42188 65.140625 476.71875 65.140625Q477.28125 65.140625 477.75 65.34375Q478.23438 65.546875 478.46875 65.875Q478.70312 66.203125 478.79688 66.640625Q478.84375 66.9375 478.84375 67.671875L478.84375 71.5L477.79688 71.5L477.79688 67.71875Q477.79688 67.0625 477.67188 66.75Q477.54688 66.4375 477.23438 66.25Q476.92188 66.046875 476.5 66.046875Q475.82812 66.046875 475.32812 66.484375Q474.84375 66.90625 474.84375 68.09375L474.84375 71.5L473.79688 71.5ZM484.82812 71.5L484.82812 70.71875Q484.23438 71.640625 483.09375 71.640625Q482.34375 71.640625 481.71875 71.234375Q481.09375 70.8125 480.75 70.078125Q480.40625 69.34375 480.40625 68.390625Q480.40625 67.46875 480.71875 66.703125Q481.03125 65.9375 481.65625 65.546875Q482.28125 65.140625 483.04688 65.140625Q483.60938 65.140625 484.04688 65.375Q484.48438 65.609375 484.76562 65.984375L484.76562 62.90625L485.8125 62.90625L485.8125 71.5L484.82812 71.5ZM481.5 68.390625Q481.5 69.59375 482.0 70.1875Q482.5 70.765625 483.1875 70.765625Q483.875 70.765625 484.35938 70.203125Q484.84375 69.640625 484.84375 68.484375Q484.84375 67.203125 484.34375 66.609375Q483.85938 66.015625 483.14062 66.015625Q482.4375 66.015625 481.96875 66.59375Q481.5 67.15625 481.5 68.390625ZM490.79688 73.890625L490.79688 65.28125L491.75 65.28125L491.75 66.078125Q492.09375 65.609375 492.51562 65.375Q492.95312 65.140625 493.5625 65.140625Q494.35938 65.140625 494.96875 65.546875Q495.57812 65.953125 495.875 66.703125Q496.1875 67.453125 496.1875 68.34375Q496.1875 69.296875 495.84375 70.0625Q495.51562 70.828125 494.85938 71.234375Q494.20312 71.640625 493.48438 71.640625Q492.95312 71.640625 492.53125 71.421875Q492.10938 71.1875 491.84375 70.859375L491.84375 73.890625L490.79688 73.890625ZM491.75 68.421875Q491.75 69.625 492.23438 70.203125Q492.71875 70.765625 493.40625 70.765625Q494.10938 70.765625 494.60938 70.171875Q495.10938 69.578125 495.10938 68.328125Q495.10938 67.140625 494.625 66.5625Q494.14062 65.96875 493.45312 65.96875Q492.78125 65.96875 492.26562 66.59375Q491.75 67.21875 491.75 68.421875ZM501.875 71.5L501.875 70.578125Q501.14062 71.640625 499.89062 71.640625Q499.34375 71.640625 498.85938 71.4375Q498.39062 71.21875 498.15625 70.90625Q497.92188 70.578125 497.82812 70.109375Q497.76562 69.8125 497.76562 69.125L497.76562 65.28125L498.82812 65.28125L498.82812 68.734375Q498.82812 69.546875 498.89062 69.84375Q498.98438 70.25 499.29688 70.5Q499.625 70.734375 500.10938 70.734375Q500.57812 70.734375 500.98438 70.5Q501.40625 70.25 501.57812 69.828125Q501.76562 69.40625 501.76562 68.609375L501.76562 65.28125L502.8125 65.28125L502.8125 71.5L501.875 71.5ZM504.76562 71.5L504.76562 62.90625L505.82812 62.90625L505.82812 71.5L504.76562 71.5ZM507.76562 71.5L507.76562 62.90625L508.82812 62.90625L508.82812 71.5L507.76562 71.5Z" fill-rule="nonzero"/><path fill="#434343" d="M209.54688 40.9L209.54688 26.587502L214.46875 26.587502Q216.14062 26.587502 217.03125 26.790627Q218.25 27.071877 219.125 27.806252Q220.25 28.775002 220.8125 30.259377Q221.375 31.743752 221.375 33.665627Q221.375 35.290627 221.0 36.55625Q220.625 37.80625 220.01562 38.634377Q219.42188 39.4625 218.71875 39.946877Q218.01562 40.415627 217.01562 40.665627Q216.01562 40.9 214.70312 40.9L209.54688 40.9ZM211.4375 39.2125L214.5 39.2125Q215.90625 39.2125 216.70312 38.946877Q217.51562 38.68125 218.0 38.196877Q218.67188 37.525 219.04688 36.4Q219.42188 35.259377 219.42188 33.634377Q219.42188 31.384377 218.6875 30.181252Q217.95312 28.978127 216.89062 28.571877Q216.14062 28.275002 214.45312 28.275002L211.4375 28.275002L211.4375 39.2125ZM222.67188 35.7125Q222.67188 32.8375 224.26562 31.446877Q225.60938 30.290627 227.53125 30.290627Q229.67188 30.290627 231.01562 31.696877Q232.375 33.103127 232.375 35.571877Q232.375 37.571877 231.78125 38.728127Q231.1875 39.86875 230.03125 40.509377Q228.89062 41.134377 227.53125 41.134377Q225.34375 41.134377 224.0 39.74375Q222.67188 38.3375 222.67188 35.7125ZM224.46875 35.7125Q224.46875 37.7125 225.32812 38.696877Q226.20312 39.68125 227.53125 39.68125Q228.84375 39.68125 229.70312 38.696877Q230.57812 37.696877 230.57812 35.65Q230.57812 33.728127 229.70312 32.74375Q228.82812 31.743752 227.53125 31.743752Q226.20312 31.743752 225.32812 32.74375Q224.46875 33.728127 224.46875 35.7125ZM236.23438 40.9L233.0625 30.525002L234.875 30.525002L236.53125 36.509377L237.14062 38.74375Q237.1875 38.571877 237.67188 36.603127L239.32812 30.525002L241.14062 30.525002L242.6875 36.540627L243.20312 38.525L243.79688 36.525L245.57812 30.525002L247.28125 30.525002L244.04688 40.9L242.21875 40.9L240.5625 34.68125L240.17188 32.915627L238.0625 40.9L236.23438 40.9ZM249.3125 40.9L249.3125 30.525002L250.90625 30.525002L250.90625 32.009377Q252.04688 30.290627 254.20312 30.290627Q255.14062 30.290627 255.92188 30.634377Q256.71875 30.962502 257.10938 31.509377Q257.5 32.05625 257.65625 32.80625Q257.75 33.30625 257.75 34.525L257.75 40.9L255.98438 40.9L255.98438 34.5875Q255.98438 33.509377 255.78125 32.978127Q255.57812 32.446877 255.04688 32.134377Q254.53125 31.821877 253.82812 31.821877Q252.70312 31.821877 251.89062 32.540627Q251.07812 33.24375 251.07812 35.228127L251.07812 40.9L249.3125 40.9ZM259.28125 40.9L259.28125 26.587502L261.03125 26.587502L261.03125 40.9L259.28125 40.9ZM262.67188 35.7125Q262.67188 32.8375 264.26562 31.446877Q265.60938 30.290627 267.53125 30.290627Q269.67188 30.290627 271.01562 31.696877Q272.375 33.103127 272.375 35.571877Q272.375 37.571877 271.78125 38.728127Q271.1875 39.86875 270.03125 40.509377Q268.89062 41.134377 267.53125 41.134377Q265.34375 41.134377 264.0 39.74375Q262.67188 38.3375 262.67188 35.7125ZM264.46875 35.7125Q264.46875 37.7125 265.32812 38.696877Q266.20312 39.68125 267.53125 39.68125Q268.84375 39.68125 269.70312 38.696877Q270.57812 37.696877 270.57812 35.65Q270.57812 33.728127 269.70312 32.74375Q268.82812 31.743752 267.53125 31.743752Q266.20312 31.743752 265.32812 32.74375Q264.46875 33.728127 264.46875 35.7125ZM281.09375 39.61875Q280.10938 40.446877 279.20312 40.790627Q278.29688 41.134377 277.26562 41.134377Q275.5625 41.134377 274.64062 40.30625Q273.71875 39.4625 273.71875 38.165627Q273.71875 37.4 274.0625 36.775Q274.42188 36.15 274.98438 35.775Q275.54688 35.384377 276.25 35.18125Q276.76562 35.05625 277.8125 34.915627Q279.9375 34.665627 280.9375 34.321877Q280.95312 33.9625 280.95312 33.853127Q280.95312 32.790627 280.45312 32.3375Q279.78125 31.743752 278.45312 31.743752Q277.20312 31.743752 276.60938 32.18125Q276.03125 32.61875 275.75 33.728127L274.03125 33.49375Q274.26562 32.384377 274.79688 31.712502Q275.32812 31.025002 276.34375 30.665627Q277.35938 30.290627 278.70312 30.290627Q280.03125 30.290627 280.85938 30.603127Q281.6875 30.915627 282.07812 31.400002Q282.46875 31.868752 282.625 32.5875Q282.71875 33.040627 282.71875 34.2125L282.71875 36.55625Q282.71875 39.009377 282.82812 39.665627Q282.9375 40.30625 283.28125 40.9L281.4375 40.9Q281.17188 40.353127 281.09375 39.61875ZM280.9375 35.696877Q279.98438 36.0875 278.0625 36.353127Q276.98438 36.509377 276.53125 36.7125Q276.09375 36.9 275.84375 37.275Q275.59375 37.65 275.59375 38.11875Q275.59375 38.821877 276.125 39.290627Q276.65625 39.759377 277.6875 39.759377Q278.70312 39.759377 279.48438 39.321877Q280.28125 38.86875 280.65625 38.103127Q280.9375 37.49375 280.9375 36.3375L280.9375 35.696877ZM292.04688 40.9L292.04688 39.5875Q291.0625 41.134377 289.14062 41.134377Q287.90625 41.134377 286.85938 40.446877Q285.82812 39.759377 285.25 38.540627Q284.6875 37.321877 284.6875 35.728127Q284.6875 34.165627 285.20312 32.9Q285.71875 31.634377 286.75 30.962502Q287.79688 30.290627 289.0625 30.290627Q290.0 30.290627 290.73438 30.696877Q291.46875 31.087502 291.9375 31.712502L291.9375 26.587502L293.67188 26.587502L293.67188 40.9L292.04688 40.9ZM286.48438 35.728127Q286.48438 37.7125 287.32812 38.696877Q288.17188 39.68125 289.3125 39.68125Q290.46875 39.68125 291.26562 38.74375Q292.07812 37.80625 292.07812 35.86875Q292.07812 33.74375 291.25 32.74375Q290.4375 31.743752 289.23438 31.743752Q288.0625 31.743752 287.26562 32.7125Q286.48438 33.665627 286.48438 35.728127ZM295.0 41.15L299.15625 26.337502L300.5625 26.337502L296.42188 41.15L295.0 41.15ZM311.9375 26.587502L313.82812 26.587502L313.82812 34.853127Q313.82812 37.009377 313.34375 38.290627Q312.85938 39.55625 311.57812 40.353127Q310.3125 41.15 308.23438 41.15Q306.21875 41.15 304.9375 40.4625Q303.67188 39.759377 303.125 38.446877Q302.57812 37.134377 302.57812 34.853127L302.57812 26.587502L304.46875 26.587502L304.46875 34.8375Q304.46875 36.7125 304.8125 37.603127Q305.15625 38.478127 306.0 38.9625Q306.84375 39.43125 308.07812 39.43125Q310.15625 39.43125 311.04688 38.49375Q311.9375 37.540627 311.9375 34.8375L311.9375 26.587502ZM315.3125 44.86875L315.3125 30.525002L316.92188 30.525002L316.92188 31.868752Q317.48438 31.087502 318.1875 30.696877Q318.90625 30.290627 319.92188 30.290627Q321.25 30.290627 322.26562 30.978127Q323.28125 31.665627 323.79688 32.915627Q324.32812 34.15 324.32812 35.634377Q324.32812 37.228127 323.75 38.509377Q323.1875 39.775 322.09375 40.4625Q321.0 41.134377 319.79688 41.134377Q318.92188 41.134377 318.21875 40.759377Q317.53125 40.384377 317.07812 39.821877L317.07812 44.86875L315.3125 44.86875ZM316.90625 35.775Q316.90625 37.775 317.71875 38.728127Q318.53125 39.68125 319.6875 39.68125Q320.85938 39.68125 321.6875 38.696877Q322.53125 37.7125 322.53125 35.61875Q322.53125 33.65 321.70312 32.665627Q320.89062 31.665627 319.76562 31.665627Q318.64062 31.665627 317.76562 32.728127Q316.90625 33.775 316.90625 35.775ZM326.28125 40.9L326.28125 26.587502L328.03125 26.587502L328.03125 40.9L326.28125 40.9ZM329.67188 35.7125Q329.67188 32.8375 331.26562 31.446877Q332.60938 30.290627 334.53125 30.290627Q336.67188 30.290627 338.01562 31.696877Q339.375 33.103127 339.375 35.571877Q339.375 37.571877 338.78125 38.728127Q338.1875 39.86875 337.03125 40.509377Q335.89062 41.134377 334.53125 41.134377Q332.34375 41.134377 331.0 39.74375Q329.67188 38.3375 329.67188 35.7125ZM331.46875 35.7125Q331.46875 37.7125 332.32812 38.696877Q333.20312 39.68125 334.53125 39.68125Q335.84375 39.68125 336.70312 38.696877Q337.57812 37.696877 337.57812 35.65Q337.57812 33.728127 336.70312 32.74375Q335.82812 31.743752 334.53125 31.743752Q333.20312 31.743752 332.32812 32.74375Q331.46875 33.728127 331.46875 35.7125ZM348.09375 39.61875Q347.10938 40.446877 346.20312 40.790627Q345.29688 41.134377 344.26562 41.134377Q342.5625 41.134377 341.64062 40.30625Q340.71875 39.4625 340.71875 38.165627Q340.71875 37.4 341.0625 36.775Q341.42188 36.15 341.98438 35.775Q342.54688 35.384377 343.25 35.18125Q343.76562 35.05625 344.8125 34.915627Q346.9375 34.665627 347.9375 34.321877Q347.95312 33.9625 347.95312 33.853127Q347.95312 32.790627 347.45312 32.3375Q346.78125 31.743752 345.45312 31.743752Q344.20312 31.743752 343.60938 32.18125Q343.03125 32.61875 342.75 33.728127L341.03125 33.49375Q341.26562 32.384377 341.79688 31.712502Q342.32812 31.025002 343.34375 30.665627Q344.35938 30.290627 345.70312 30.290627Q347.03125 30.290627 347.85938 30.603127Q348.6875 30.915627 349.07812 31.400002Q349.46875 31.868752 349.625 32.5875Q349.71875 33.040627 349.71875 34.2125L349.71875 36.55625Q349.71875 39.009377 349.82812 39.665627Q349.9375 40.30625 350.28125 40.9L348.4375 40.9Q348.17188 40.353127 348.09375 39.61875ZM347.9375 35.696877Q346.98438 36.0875 345.0625 36.353127Q343.98438 36.509377 343.53125 36.7125Q343.09375 36.9 342.84375 37.275Q342.59375 37.65 342.59375 38.11875Q342.59375 38.821877 343.125 39.290627Q343.65625 39.759377 344.6875 39.759377Q345.70312 39.759377 346.48438 39.321877Q347.28125 38.86875 347.65625 38.103127Q347.9375 37.49375 347.9375 36.3375L347.9375 35.696877ZM359.04688 40.9L359.04688 39.5875Q358.0625 41.134377 356.14062 41.134377Q354.90625 41.134377 353.85938 40.446877Q352.82812 39.759377 352.25 38.540627Q351.6875 37.321877 351.6875 35.728127Q351.6875 34.165627 352.20312 32.9Q352.71875 31.634377 353.75 30.962502Q354.79688 30.290627 356.0625 30.290627Q357.0 30.290627 357.73438 30.696877Q358.46875 31.087502 358.9375 31.712502L358.9375 26.587502L360.67188 26.587502L360.67188 40.9L359.04688 40.9ZM353.48438 35.728127Q353.48438 37.7125 354.32812 38.696877Q355.17188 39.68125 356.3125 39.68125Q357.46875 39.68125 358.26562 38.74375Q359.07812 37.80625 359.07812 35.86875Q359.07812 33.74375 358.25 32.74375Q357.4375 31.743752 356.23438 31.743752Q355.0625 31.743752 354.26562 32.7125Q353.48438 33.665627 353.48438 35.728127ZM375.45312 40.9L373.6875 40.9L373.6875 29.696877Q373.0625 30.306252 372.03125 30.915627Q371.0 31.509377 370.17188 31.821877L370.17188 30.118752Q371.65625 29.431252 372.75 28.446877Q373.85938 27.446877 374.3125 26.525002L375.45312 26.525002L375.45312 40.9ZM379.82812 33.8375Q379.82812 31.306252 380.34375 29.759377Q380.875 28.196877 381.90625 27.368752Q382.9375 26.525002 384.5 26.525002Q385.65625 26.525002 386.51562 26.993752Q387.39062 27.446877 387.95312 28.321877Q388.51562 29.196877 388.84375 30.462502Q389.17188 31.712502 389.17188 33.8375Q389.17188 36.353127 388.64062 37.9Q388.125 39.446877 387.09375 40.30625Q386.07812 41.15 384.5 41.15Q382.42188 41.15 381.25 39.665627Q379.82812 37.86875 379.82812 33.8375ZM381.64062 33.8375Q381.64062 37.36875 382.45312 38.540627Q383.28125 39.696877 384.5 39.696877Q385.70312 39.696877 386.53125 38.525Q387.35938 37.353127 387.35938 33.8375Q387.35938 30.306252 386.53125 29.150002Q385.70312 27.978127 384.48438 27.978127Q383.26562 27.978127 382.54688 29.009377Q381.64062 30.306252 381.64062 33.8375ZM403.45312 40.9L401.6875 40.9L401.6875 29.696877Q401.0625 30.306252 400.03125 30.915627Q399.0 31.509377 398.17188 31.821877L398.17188 30.118752Q399.65625 29.431252 400.75 28.446877Q401.85938 27.446877 402.3125 26.525002L403.45312 26.525002L403.45312 40.9ZM407.82812 33.8375Q407.82812 31.306252 408.34375 29.759377Q408.875 28.196877 409.90625 27.368752Q410.9375 26.525002 412.5 26.525002Q413.65625 26.525002 414.51562 26.993752Q415.39062 27.446877 415.95312 28.321877Q416.51562 29.196877 416.84375 30.462502Q417.17188 31.712502 417.17188 33.8375Q417.17188 36.353127 416.64062 37.9Q416.125 39.446877 415.09375 40.30625Q414.07812 41.15 412.5 41.15Q410.42188 41.15 409.25 39.665627Q407.82812 37.86875 407.82812 33.8375ZM409.64062 33.8375Q409.64062 37.36875 410.45312 38.540627Q411.28125 39.696877 412.5 39.696877Q413.70312 39.696877 414.53125 38.525Q415.35938 37.353127 415.35938 33.8375Q415.35938 30.306252 414.53125 29.150002Q413.70312 27.978127 412.48438 27.978127Q411.26562 27.978127 410.54688 29.009377Q409.64062 30.306252 409.64062 33.8375ZM418.82812 33.8375Q418.82812 31.306252 419.34375 29.759377Q419.875 28.196877 420.90625 27.368752Q421.9375 26.525002 423.5 26.525002Q424.65625 26.525002 425.51562 26.993752Q426.39062 27.446877 426.95312 28.321877Q427.51562 29.196877 427.84375 30.462502Q428.17188 31.712502 428.17188 33.8375Q428.17188 36.353127 427.64062 37.9Q427.125 39.446877 426.09375 40.30625Q425.07812 41.15 423.5 41.15Q421.42188 41.15 420.25 39.665627Q418.82812 37.86875 418.82812 33.8375ZM420.64062 33.8375Q420.64062 37.36875 421.45312 38.540627Q422.28125 39.696877 423.5 39.696877Q424.70312 39.696877 425.53125 38.525Q426.35938 37.353127 426.35938 33.8375Q426.35938 30.306252 425.53125 29.150002Q424.70312 27.978127 423.48438 27.978127Q422.26562 27.978127 421.54688 29.009377Q420.64062 30.306252 420.64062 33.8375ZM430.48438 40.9L430.48438 26.587502L433.34375 26.587502L436.71875 36.7125Q437.1875 38.134377 437.40625 38.8375Q437.65625 38.05625 438.17188 36.540627L441.59375 26.587502L444.14062 26.587502L444.14062 40.9L442.32812 40.9L442.32812 28.915627L438.15625 40.9L436.45312 40.9L432.3125 28.712502L432.3125 40.9L430.48438 40.9ZM447.46875 40.9L447.46875 26.587502L452.84375 26.587502Q454.48438 26.587502 455.46875 27.025002Q456.45312 27.446877 457.01562 28.353127Q457.57812 29.259377 457.57812 30.243752Q457.57812 31.165627 457.07812 31.978127Q456.59375 32.790627 455.57812 33.275Q456.875 33.665627 457.57812 34.5875Q458.28125 35.49375 458.28125 36.74375Q458.28125 37.759377 457.84375 38.61875Q457.42188 39.478127 456.79688 39.946877Q456.17188 40.415627 455.23438 40.665627Q454.29688 40.9 452.92188 40.9L447.46875 40.9ZM449.35938 32.603127L452.45312 32.603127Q453.71875 32.603127 454.26562 32.43125Q454.98438 32.2125 455.34375 31.728127Q455.71875 31.228127 455.71875 30.462502Q455.71875 29.759377 455.375 29.212502Q455.03125 28.665627 454.39062 28.478127Q453.76562 28.275002 452.21875 28.275002L449.35938 28.275002L449.35938 32.603127ZM449.35938 39.2125L452.92188 39.2125Q453.84375 39.2125 454.21875 39.134377Q454.875 39.025 455.3125 38.759377Q455.75 38.478127 456.03125 37.9625Q456.3125 37.43125 456.3125 36.74375Q456.3125 35.946877 455.90625 35.353127Q455.5 34.759377 454.76562 34.525Q454.03125 34.290627 452.67188 34.290627L449.35938 34.290627L449.35938 39.2125ZM466.73438 40.9L466.73438 31.900002L465.1875 31.900002L465.1875 30.525002L466.73438 30.525002L466.73438 29.431252Q466.73438 28.384377 466.92188 27.868752Q467.17188 27.181252 467.8125 26.759377Q468.45312 26.337502 469.60938 26.337502Q470.35938 26.337502 471.25 26.509377L470.98438 28.040627Q470.4375 27.946877 469.95312 27.946877Q469.15625 27.946877 468.8125 28.290627Q468.48438 28.634377 468.48438 29.571877L468.48438 30.525002L470.51562 30.525002L470.51562 31.900002L468.48438 31.900002L468.48438 40.9L466.73438 40.9ZM472.32812 28.603127L472.32812 26.587502L474.09375 26.587502L474.09375 28.603127L472.32812 28.603127ZM472.32812 40.9L472.32812 30.525002L474.09375 30.525002L474.09375 40.9L472.32812 40.9ZM476.28125 40.9L476.28125 26.587502L478.03125 26.587502L478.03125 40.9L476.28125 40.9ZM487.42188 37.55625L489.23438 37.790627Q488.8125 39.36875 487.64062 40.259377Q486.48438 41.134377 484.67188 41.134377Q482.40625 41.134377 481.0625 39.74375Q479.73438 38.3375 479.73438 35.80625Q479.73438 33.18125 481.07812 31.743752Q482.42188 30.290627 484.57812 30.290627Q486.65625 30.290627 487.96875 31.712502Q489.29688 33.11875 489.29688 35.696877Q489.29688 35.853127 489.28125 36.165627L481.54688 36.165627Q481.64062 37.86875 482.51562 38.775Q483.39062 39.68125 484.6875 39.68125Q485.65625 39.68125 486.32812 39.18125Q487.01562 38.665627 487.42188 37.55625ZM481.64062 34.7125L487.4375 34.7125Q487.32812 33.415627 486.78125 32.759377Q485.9375 31.743752 484.59375 31.743752Q483.39062 31.743752 482.5625 32.55625Q481.73438 33.353127 481.64062 34.7125ZM490.60938 37.80625L492.35938 37.525Q492.5 38.571877 493.17188 39.134377Q493.84375 39.68125 495.04688 39.68125Q496.25 39.68125 496.82812 39.196877Q497.42188 38.696877 497.42188 38.040627Q497.42188 37.446877 496.90625 37.103127Q496.54688 36.86875 495.10938 36.509377Q493.17188 36.009377 492.42188 35.665627Q491.6875 35.30625 491.29688 34.68125Q490.90625 34.040627 490.90625 33.275Q490.90625 32.5875 491.21875 31.993752Q491.54688 31.400002 492.09375 31.009377Q492.5 30.712502 493.20312 30.509377Q493.92188 30.290627 494.73438 30.290627Q495.95312 30.290627 496.875 30.650002Q497.79688 30.993752 498.23438 31.603127Q498.67188 32.196877 498.84375 33.196877L497.125 33.43125Q497.0 32.634377 496.4375 32.196877Q495.875 31.743752 494.85938 31.743752Q493.64062 31.743752 493.125 32.15Q492.60938 32.540627 492.60938 33.071877Q492.60938 33.415627 492.82812 33.696877Q493.03125 33.978127 493.5 34.165627Q493.76562 34.259377 495.04688 34.603127Q496.92188 35.103127 497.65625 35.43125Q498.39062 35.74375 498.8125 36.353127Q499.23438 36.946877 499.23438 37.853127Q499.23438 38.728127 498.71875 39.509377Q498.20312 40.290627 497.23438 40.7125Q496.26562 41.134377 495.04688 41.134377Q493.03125 41.134377 491.96875 40.290627Q490.90625 39.446877 490.60938 37.80625Z" fill-rule="nonzero"/></svg>