<svg version="1.1" viewBox="0.0 0.0 706.0 437.0" fill="none" stroke="none" stroke-linecap="square" stroke-miterlimit="10" width="706" height="437" xmlns:xlink="http://www.w3.org/1999/xlink" xmlns="http://www.w3.org/2000/svg"><path fill="#fbfbfb" d="M0 0L706.0 0L706.0 437.0L0 437.0L0 0Z" fill-rule="nonzero"/><path stroke="#2f2f2f" stroke-width="1.0" stroke-linecap="butt" d="M80.5 395.5L684.5 395.5" fill-rule="nonzero"/><path stroke="#c8c8c8" stroke-width="1.0" stroke-linecap="butt" d="M80.5 295.5L684.5 295.5" fill-rule="nonzero"/><path stroke="#c8c8c8" stroke-width="1.0" stroke-linecap="butt" d="M80.5 195.5L684.5 195.5" fill-rule="nonzero"/><path stroke="#c8c8c8" stroke-width="1.0" stroke-linecap="butt" d="M80.5 95.5L684.5 95.5" fill-rule="nonzero"/><clipPath id="id_0"><path d="M80.85 95.98333L684.15 95.98333L684.15 395.15L80.85 395.15L80.85 95.98333Z" clip-rule="nonzero"/></clipPath><path stroke="#000000" stroke-width="2.0" stroke-linecap="butt" stroke-opacity="0.0" clip-path="url(#id_0)" d="M150.0 395.0L129.0 395.0L129.0 317.0C129.0 315.89542 129.89543 315.0 131.0 315.0L148.0 315.0C149.10457 315.0 150.0 315.89542 150.0 317.0Z" fill-rule="nonzero"/><path fill="#6fa8dc" clip-path="url(#id_0)" d="M150.0 395.0L129.0 395.0L129.0 317.0C129.0 315.89542 129.89543 315.0 131.0 315.0L148.0 315.0C149.10457 315.0 150.0 315.89542 150.0 317.0Z" fill-rule="nonzero"/><path stroke="#000000" stroke-width="2.0" stroke-linecap="butt" stroke-opacity="0.0" clip-path="url(#id_0)" d="M289.0 395.0L268.0 395.0L268.0 143.0C268.0 141.89543 268.89542 141.0 270.0 141.0L287.0 141.0C288.10458 141.0 289.0 141.89543 289.0 143.0Z" fill-rule="nonzero"/><path fill="#6fa8dc" clip-path="url(#id_0)" d="M289.0 395.0L268.0 395.0L268.0 143.0C268.0 141.89543 268.89542 141.0 270.0 141.0L287.0 141.0C288.10458 141.0 289.0 141.89543 289.0 143.0Z" fill-rule="nonzero"/><path stroke="#000000" stroke-width="2.0" stroke-linecap="butt" stroke-opacity="0.0" clip-path="url(#id_0)" d="M428.0 395.0L407.0 395.0L407.0 297.0C407.0 295.89542 407.89542 295.0 409.0 295.0L426.0 295.0C427.10458 295.0 428.0 295.89542 428.0 297.0Z" fill-rule="nonzero"/><path fill="#6fa8dc" clip-path="url(#id_0)" d="M428.0 395.0L407.0 395.0L407.0 297.0C407.0 295.89542 407.89542 295.0 409.0 295.0L426.0 295.0C427.10458 295.0 428.0 295.89542 428.0 297.0Z" fill-rule="nonzero"/><path stroke="#000000" stroke-width="2.0" stroke-linecap="butt" stroke-opacity="0.0" clip-path="url(#id_0)" d="M567.0 395.0L546.0 395.0L546.0 337.0C546.0 335.89542 546.89545 335.0 548.0 335.0L565.0 335.0C566.10455 335.0 567.0 335.89542 567.0 337.0Z" fill-rule="nonzero"/><path fill="#6fa8dc" clip-path="url(#id_0)" d="M567.0 395.0L546.0 395.0L546.0 337.0C546.0 335.89542 546.89545 335.0 548.0 335.0L565.0 335.0C566.10455 335.0 567.0 335.89542 567.0 337.0Z" fill-rule="nonzero"/><path stroke="#000000" stroke-width="2.0" stroke-linecap="butt" stroke-opacity="0.0" clip-path="url(#id_0)" d="M173.0 395.0L152.0 395.0L152.0 317.0C152.0 315.89542 152.89543 315.0 154.0 315.0L171.0 315.0C172.10457 315.0 173.0 315.89542 173.0 317.0Z" fill-rule="nonzero"/><path fill="#e06666" clip-path="url(#id_0)" d="M173.0 395.0L152.0 395.0L152.0 317.0C152.0 315.89542 152.89543 315.0 154.0 315.0L171.0 315.0C172.10457 315.0 173.0 315.89542 173.0 317.0Z" fill-rule="nonzero"/><path stroke="#000000" stroke-width="2.0" stroke-linecap="butt" stroke-opacity="0.0" clip-path="url(#id_0)" d="M312.0 395.0L291.0 395.0L291.0 337.0C291.0 335.89542 291.89542 335.0 293.0 335.0L310.0 335.0C311.10458 335.0 312.0 335.89542 312.0 337.0Z" fill-rule="nonzero"/><path fill="#e06666" clip-path="url(#id_0)" d="M312.0 395.0L291.0 395.0L291.0 337.0C291.0 335.89542 291.89542 335.0 293.0 335.0L310.0 335.0C311.10458 335.0 312.0 335.89542 312.0 337.0Z" fill-rule="nonzero"/><path stroke="#000000" stroke-width="2.0" stroke-linecap="butt" stroke-opacity="0.0" clip-path="url(#id_0)" d="M451.0 395.0L430.0 395.0L430.0 392.0C430.0 390.89542 430.89542 390.0 432.0 390.0L449.0 390.0C450.10458 390.0 451.0 390.89542 451.0 392.0Z" fill-rule="nonzero"/><path fill="#e06666" clip-path="url(#id_0)" d="M451.0 395.0L430.0 395.0L430.0 392.0C430.0 390.89542 430.89542 390.0 432.0 390.0L449.0 390.0C450.10458 390.0 451.0 390.89542 451.0 392.0Z" fill-rule="nonzero"/><path stroke="#000000" stroke-width="2.0" stroke-linecap="butt" stroke-opacity="0.0" clip-path="url(#id_0)" d="M590.0 395.0L569.0 395.0L569.0 392.0C569.0 390.89542 569.89545 390.0 571.0 390.0L588.0 390.0C589.10455 390.0 590.0 390.89542 590.0 392.0Z" fill-rule="nonzero"/><path fill="#e06666" clip-path="url(#id_0)" d="M590.0 395.0L569.0 395.0L569.0 392.0C569.0 390.89542 569.89545 390.0 571.0 390.0L588.0 390.0C589.10455 390.0 590.0 390.89542 590.0 392.0Z" fill-rule="nonzero"/><path stroke="#000000" stroke-width="2.0" stroke-linecap="butt" stroke-opacity="0.0" clip-path="url(#id_0)" d="M196.0 395.0L175.0 395.0L175.0 347.0C175.0 345.89542 175.89543 345.0 177.0 345.0L194.0 345.0C195.10457 345.0 196.0 345.89542 196.0 347.0Z" fill-rule="nonzero"/><path fill="#ffd966" clip-path="url(#id_0)" d="M196.0 395.0L175.0 395.0L175.0 347.0C175.0 345.89542 175.89543 345.0 177.0 345.0L194.0 345.0C195.10457 345.0 196.0 345.89542 196.0 347.0Z" fill-rule="nonzero"/><path stroke="#000000" stroke-width="2.0" stroke-linecap="butt" stroke-opacity="0.0" clip-path="url(#id_0)" d="M335.0 395.0L314.0 395.0L314.0 297.0C314.0 295.89542 314.89542 295.0 316.0 295.0L333.0 295.0C334.10458 295.0 335.0 295.89542 335.0 297.0Z" fill-rule="nonzero"/><path fill="#ffd966" clip-path="url(#id_0)" d="M335.0 395.0L314.0 395.0L314.0 297.0C314.0 295.89542 314.89542 295.0 316.0 295.0L333.0 295.0C334.10458 295.0 335.0 295.89542 335.0 297.0Z" fill-rule="nonzero"/><path stroke="#000000" stroke-width="2.0" stroke-linecap="butt" stroke-opacity="0.0" clip-path="url(#id_0)" d="M474.0 395.0L453.0 395.0L453.0 307.0C453.0 305.89542 453.89542 305.0 455.0 305.0L472.0 305.0C473.10458 305.0 474.0 305.89542 474.0 307.0Z" fill-rule="nonzero"/><path fill="#ffd966" clip-path="url(#id_0)" d="M474.0 395.0L453.0 395.0L453.0 307.0C453.0 305.89542 453.89542 305.0 455.0 305.0L472.0 305.0C473.10458 305.0 474.0 305.89542 474.0 307.0Z" fill-rule="nonzero"/><path stroke="#000000" stroke-width="2.0" stroke-linecap="butt" stroke-opacity="0.0" clip-path="url(#id_0)" d="M613.0 395.0L592.0 395.0L592.0 357.0C592.0 355.89542 592.89545 355.0 594.0 355.0L611.0 355.0C612.10455 355.0 613.0 355.89542 613.0 357.0Z" fill-rule="nonzero"/><path fill="#ffd966" clip-path="url(#id_0)" d="M613.0 395.0L592.0 395.0L592.0 357.0C592.0 355.89542 592.89545 355.0 594.0 355.0L611.0 355.0C612.10455 355.0 613.0 355.89542 613.0 357.0Z" fill-rule="nonzero"/><path stroke="#000000" stroke-width="2.0" stroke-linecap="butt" stroke-opacity="0.0" clip-path="url(#id_0)" d="M219.0 395.0L198.0 395.0L198.0 347.0C198.0 345.89542 198.89543 345.0 200.0 345.0L217.0 345.0C218.10457 345.0 219.0 345.89542 219.0 347.0Z" fill-rule="nonzero"/><path fill="#93c47d" clip-path="url(#id_0)" d="M219.0 395.0L198.0 395.0L198.0 347.0C198.0 345.89542 198.89543 345.0 200.0 345.0L217.0 345.0C218.10457 345.0 219.0 345.89542 219.0 347.0Z" fill-rule="nonzero"/><path stroke="#000000" stroke-width="2.0" stroke-linecap="butt" stroke-opacity="0.0" clip-path="url(#id_0)" d="M358.0 395.0L337.0 395.0L337.0 337.0C337.0 335.89542 337.89542 335.0 339.0 335.0L356.0 335.0C357.10458 335.0 358.0 335.89542 358.0 337.0Z" fill-rule="nonzero"/><path fill="#93c47d" clip-path="url(#id_0)" d="M358.0 395.0L337.0 395.0L337.0 337.0C337.0 335.89542 337.89542 335.0 339.0 335.0L356.0 335.0C357.10458 335.0 358.0 335.89542 358.0 337.0Z" fill-rule="nonzero"/><path stroke="#000000" stroke-width="2.0" stroke-linecap="butt" stroke-opacity="0.0" clip-path="url(#id_0)" d="M497.0 395.0L476.0 395.0L476.0 392.0C476.0 390.89542 476.89542 390.0 478.0 390.0L495.0 390.0C496.10458 390.0 497.0 390.89542 497.0 392.0Z" fill-rule="nonzero"/><path fill="#93c47d" clip-path="url(#id_0)" d="M497.0 395.0L476.0 395.0L476.0 392.0C476.0 390.89542 476.89542 390.0 478.0 390.0L495.0 390.0C496.10458 390.0 497.0 390.89542 497.0 392.0Z" fill-rule="nonzero"/><path stroke="#000000" stroke-width="2.0" stroke-linecap="butt" stroke-opacity="0.0" clip-path="url(#id_0)" d="M636.0 395.0L615.0 395.0L615.0 392.0C615.0 390.89542 615.89545 390.0 617.0 390.0L634.0 390.0C635.10455 390.0 636.0 390.89542 636.0 392.0Z" fill-rule="nonzero"/><path fill="#93c47d" clip-path="url(#id_0)" d="M636.0 395.0L615.0 395.0L615.0 392.0C615.0 390.89542 615.89545 390.0 617.0 390.0L634.0 390.0C635.10455 390.0 636.0 390.89542 636.0 392.0Z" fill-rule="nonzero"/><path fill="#000000" d="M30.99062 275.69165L30.83437 274.6604Q31.45937 274.56665 31.787495 274.17603Q32.11562 273.76978 32.11562 273.0354Q32.11562 272.31665 31.83437 271.9729Q31.537495 271.61353 31.131245 271.61353Q30.77187 271.61353 30.568745 271.92603Q30.42812 272.14478 30.20937 273.00415Q29.912495 274.1604 29.70937 274.61353Q29.49062 275.05103 29.11562 275.2854Q28.74062 275.51978 28.27187 275.51978Q27.86562 275.51978 27.506245 275.33228Q27.14687 275.14478 26.912495 274.81665Q26.74062 274.56665 26.61562 274.14478Q26.49062 273.7229 26.49062 273.2229Q26.49062 272.50415 26.70937 271.95728Q26.912495 271.39478 27.27187 271.12915Q27.631245 270.86353 28.224995 270.76978L28.36562 271.80103Q27.89687 271.86353 27.631245 272.20728Q27.349995 272.5354 27.349995 273.1604Q27.349995 273.87915 27.599995 274.19165Q27.83437 274.50415 28.162495 274.50415Q28.36562 274.50415 28.52187 274.37915Q28.693745 274.23853 28.80312 273.9729Q28.86562 273.81665 29.068745 273.0354Q29.381245 271.9104 29.568745 271.4729Q29.756245 271.0354 30.11562 270.7854Q30.474995 270.5354 31.02187 270.5354Q31.55312 270.5354 32.02187 270.8479Q32.474995 271.14478 32.74062 271.7229Q32.99062 272.30103 32.99062 273.0354Q32.99062 274.25415 32.49062 274.89478Q31.974995 275.51978 30.99062 275.69165ZM30.849995 264.01978L30.974995 262.92603Q31.92812 263.17603 32.45937 263.87915Q32.99062 264.58228 32.99062 265.6604Q32.99062 267.01978 32.14687 267.83228Q31.30312 268.62915 29.787495 268.62915Q28.224995 268.62915 27.36562 267.81665Q26.49062 267.00415 26.49062 265.7229Q26.49062 264.4729 27.33437 263.69165Q28.17812 262.89478 29.724995 262.89478Q29.818745 262.89478 30.006245 262.89478L30.006245 267.5354Q31.037495 267.4729 31.58437 266.95728Q32.11562 266.44165 32.11562 265.6604Q32.11562 265.08228 31.818745 264.67603Q31.506245 264.25415 30.849995 264.01978ZM29.14687 267.4729L29.14687 264.00415Q28.349995 264.06665 27.95937 264.39478Q27.349995 264.9104 27.349995 265.70728Q27.349995 266.44165 27.83437 266.94165Q28.318745 267.42603 29.14687 267.4729ZM30.568745 257.20728L30.70937 256.17603Q31.77187 256.3479 32.381245 257.05103Q32.99062 257.75415 32.99062 258.76978Q32.99062 260.05103 32.162495 260.83228Q31.318745 261.5979 29.756245 261.5979Q28.756245 261.5979 28.006245 261.26978Q27.24062 260.92603 26.86562 260.25415Q26.49062 259.56665 26.49062 258.75415Q26.49062 257.75415 27.006245 257.11353Q27.506245 256.45728 28.45937 256.26978L28.61562 257.30103Q27.99062 257.44165 27.67812 257.81665Q27.349995 258.19165 27.349995 258.7229Q27.349995 259.51978 27.92812 260.01978Q28.49062 260.51978 29.724995 260.51978Q30.99062 260.51978 31.55312 260.0354Q32.11562 259.55103 32.11562 258.7854Q32.11562 258.1604 31.74062 257.75415Q31.36562 257.33228 30.568745 257.20728ZM29.74062 255.66042Q28.006245 255.66042 27.17812 254.70729Q26.49062 253.91042 26.49062 252.75417Q26.49062 251.47292 27.33437 250.66042Q28.162495 249.83229 29.64687 249.83229Q30.849995 249.83229 31.537495 250.19167Q32.224995 250.55104 32.61562 251.25417Q32.99062 251.94167 32.99062 252.75417Q32.99062 254.05104 32.162495 254.86354Q31.318745 255.66042 29.74062 255.66042ZM29.74062 254.58229Q30.92812 254.58229 31.52187 254.06667Q32.11562 253.53542 32.11562 252.75417Q32.11562 251.95729 31.52187 251.44167Q30.92812 250.92604 29.70937 250.92604Q28.55312 250.92604 27.95937 251.45729Q27.36562 251.97292 27.36562 252.75417Q27.36562 253.53542 27.95937 254.06667Q28.537495 254.58229 29.74062 254.58229ZM32.849995 248.26979L26.631245 248.26979L26.631245 247.33229L27.506245 247.33229Q26.49062 246.64479 26.49062 245.34792Q26.49062 244.78542 26.693745 244.31667Q26.89687 243.83229 27.224995 243.59792Q27.55312 243.36354 27.99062 243.26979Q28.287495 243.22292 29.02187 243.22292L32.849995 243.22292L32.849995 244.26979L29.068745 244.26979Q28.412495 244.26979 28.099995 244.39479Q27.787495 244.51979 27.599995 244.83229Q27.39687 245.14479 27.39687 245.56667Q27.39687 246.23854 27.83437 246.73854Q28.256245 247.22292 29.443745 247.22292L32.849995 247.22292L32.849995 248.26979ZM32.849995 237.23854L32.068745 237.23854Q32.99062 237.83229 32.99062 238.97292Q32.99062 239.72292 32.58437 240.34792Q32.162495 240.97292 31.42812 241.31667Q30.693745 241.66042 29.74062 241.66042Q28.818745 241.66042 28.05312 241.34792Q27.287495 241.03542 26.89687 240.41042Q26.49062 239.78542 26.49062 239.01979Q26.49062 238.45729 26.724995 238.01979Q26.95937 237.58229 27.33437 237.30104L24.256245 237.30104L24.256245 236.25417L32.849995 236.25417L32.849995 237.23854ZM29.74062 240.56667Q30.943745 240.56667 31.537495 240.06667Q32.11562 239.56667 32.11562 238.87917Q32.11562 238.19167 31.55312 237.70729Q30.99062 237.22292 29.83437 237.22292Q28.55312 237.22292 27.95937 237.72292Q27.36562 238.20729 27.36562 238.92604Q27.36562 239.62917 27.943745 240.09792Q28.506245 240.56667 29.74062 240.56667ZM30.99062 234.69167L30.83437 233.66042Q31.45937 233.56667 31.787495 233.17604Q32.11562 232.76979 32.11562 232.03542Q32.11562 231.31667 31.83437 230.97292Q31.537495 230.61354 31.131245 230.61354Q30.77187 230.61354 30.568745 230.92604Q30.42812 231.14479 30.20937 232.00417Q29.912495 233.16042 29.70937 233.61354Q29.49062 234.05104 29.11562 234.28542Q28.74062 234.51979 28.27187 234.51979Q27.86562 234.51979 27.506245 234.33229Q27.14687 234.14479 26.912495 233.81667Q26.74062 233.56667 26.61562 233.14479Q26.49062 232.72292 26.49062 232.22292Q26.49062 231.50417 26.70937 230.95729Q26.912495 230.39479 27.27187 230.12917Q27.631245 229.86354 28.224995 229.76979L28.36562 230.80104Q27.89687 230.86354 27.631245 231.20729Q27.349995 231.53542 27.349995 232.16042Q27.349995 232.87917 27.599995 233.19167Q27.83437 233.50417 28.162495 233.50417Q28.36562 233.50417 28.52187 233.37917Q28.693745 233.23854 28.80312 232.97292Q28.86562 232.81667 29.068745 232.03542Q29.381245 230.91042 29.568745 230.47292Q29.756245 230.03542 30.11562 229.78542Q30.474995 229.53542 31.02187 229.53542Q31.55312 229.53542 32.02187 229.84792Q32.474995 230.14479 32.74062 230.72292Q32.99062 231.30104 32.99062 232.03542Q32.99062 233.25417 32.49062 233.89479Q31.974995 234.51979 30.99062 234.69167Z" fill-rule="nonzero"/><path fill="#000000" d="M68.35 394.91562Q68.35 393.38437 68.6625 392.4625Q68.975 391.525 69.58437 391.025Q70.20937 390.525 71.14687 390.525Q71.83437 390.525 72.35 390.80624Q72.88125 391.0875 73.225 391.61874Q73.56875 392.13437 73.75625 392.88437Q73.94375 393.63437 73.94375 394.91562Q73.94375 396.43124 73.63125 397.35312Q73.33437 398.275 72.70937 398.79062Q72.1 399.29062 71.14687 399.29062Q69.9125 399.29062 69.19375 398.4Q68.35 397.3375 68.35 394.91562ZM69.42812 394.91562Q69.42812 397.025 69.92812 397.72812Q70.42812 398.43124 71.14687 398.43124Q71.88125 398.43124 72.36562 397.72812Q72.86562 397.025 72.86562 394.91562Q72.86562 392.79062 72.36562 392.10312Q71.88125 391.4 71.13125 391.4Q70.4125 391.4 69.975 392.00937Q69.42812 392.79062 69.42812 394.91562Z" fill-rule="nonzero"/><path fill="#000000" d="M66.89687 298.41214L66.89687 299.42776L61.209373 299.42776Q61.209373 299.05276 61.334373 298.6934Q61.553123 298.11526 62.021873 297.55276Q62.50625 296.99026 63.4125 296.2559Q64.81875 295.09964 65.30312 294.42776Q65.80312 293.7559 65.80312 293.16214Q65.80312 292.53714 65.35 292.11526Q64.89687 291.67776 64.17812 291.67776Q63.4125 291.67776 62.959373 292.1309Q62.50625 292.584 62.490623 293.3965L61.4125 293.28714Q61.521873 292.0684 62.240623 291.4434Q62.975 290.80276 64.20937 290.80276Q65.44375 290.80276 66.1625 291.49026Q66.88125 292.17776 66.88125 293.1934Q66.88125 293.709 66.6625 294.209Q66.45937 294.6934 65.95937 295.2559Q65.475 295.80276 64.35 296.7559Q63.396873 297.55276 63.115623 297.84964Q62.85 298.1309 62.678123 298.41214L66.89687 298.41214ZM68.35 295.1934Q68.35 293.66214 68.6625 292.74026Q68.975 291.80276 69.58437 291.30276Q70.20937 290.80276 71.14687 290.80276Q71.83437 290.80276 72.35 291.084Q72.88125 291.36526 73.225 291.8965Q73.56875 292.41214 73.75625 293.16214Q73.94375 293.91214 73.94375 295.1934Q73.94375 296.709 73.63125 297.6309Q73.33437 298.55276 72.70937 299.0684Q72.1 299.5684 71.14687 299.5684Q69.9125 299.5684 69.19375 298.67776Q68.35 297.61526 68.35 295.1934ZM69.42812 295.1934Q69.42812 297.30276 69.92812 298.0059Q70.42812 298.709 71.14687 298.709Q71.88125 298.709 72.36562 298.0059Q72.86562 297.30276 72.86562 295.1934Q72.86562 293.0684 72.36562 292.3809Q71.88125 291.67776 71.13125 291.67776Q70.4125 291.67776 69.975 292.28714Q69.42812 293.0684 69.42812 295.1934Z" fill-rule="nonzero"/><path fill="#000000" d="M64.725 199.70555L64.725 197.64305L61.00625 197.64305L61.00625 196.6743L64.92812 191.1118L65.7875 191.1118L65.7875 196.6743L66.94375 196.6743L66.94375 197.64305L65.7875 197.64305L65.7875 199.70555L64.725 199.70555ZM64.725 196.6743L64.725 192.81493L62.0375 196.6743L64.725 196.6743ZM68.35 195.47118Q68.35 193.93993 68.6625 193.01805Q68.975 192.08055 69.58437 191.58055Q70.20937 191.08055 71.14687 191.08055Q71.83437 191.08055 72.35 191.3618Q72.88125 191.64305 73.225 192.1743Q73.56875 192.68993 73.75625 193.43993Q73.94375 194.18993 73.94375 195.47118Q73.94375 196.9868 73.63125 197.90868Q73.33437 198.83055 72.70937 199.34618Q72.1 199.84618 71.14687 199.84618Q69.9125 199.84618 69.19375 198.95555Q68.35 197.89305 68.35 195.47118ZM69.42812 195.47118Q69.42812 197.58055 69.92812 198.28368Q70.42812 198.9868 71.14687 198.9868Q71.88125 198.9868 72.36562 198.28368Q72.86562 197.58055 72.86562 195.47118Q72.86562 193.34618 72.36562 192.65868Q71.88125 191.95555 71.13125 191.95555Q70.4125 191.95555 69.975 192.56493Q69.42812 193.34618 69.42812 195.47118Z" fill-rule="nonzero"/><path fill="#000000" d="M66.81875 93.498955L65.77187 93.57708Q65.63125 92.95208 65.38125 92.67083Q64.94375 92.217705 64.31875 92.217705Q63.81875 92.217705 63.428123 92.498955Q62.94375 92.873955 62.646873 93.57708Q62.365623 94.26458 62.35 95.54583Q62.725 94.967705 63.271873 94.686455Q63.834373 94.405205 64.44375 94.405205Q65.49062 94.405205 66.225 95.186455Q66.975 95.967705 66.975 97.186455Q66.975 97.998955 66.61562 98.70208Q66.27187 99.38958 65.6625 99.76458Q65.05312 100.123955 64.2875 100.123955Q62.959373 100.123955 62.13125 99.155205Q61.303123 98.186455 61.303123 95.967705Q61.303123 93.467705 62.225 92.342705Q63.021873 91.35833 64.38125 91.35833Q65.39687 91.35833 66.0375 91.936455Q66.69375 92.498955 66.81875 93.498955ZM62.521873 97.20208Q62.521873 97.748955 62.740623 98.248955Q62.975 98.73333 63.38125 98.998955Q63.803123 99.26458 64.27187 99.26458Q64.92812 99.26458 65.4125 98.73333Q65.89687 98.186455 65.89687 97.26458Q65.89687 96.373955 65.4125 95.85833Q64.94375 95.342705 64.225 95.342705Q63.50625 95.342705 63.00625 95.85833Q62.521873 96.373955 62.521873 97.20208ZM68.35 95.748955Q68.35 94.217705 68.6625 93.29583Q68.975 92.35833 69.58437 91.85833Q70.20937 91.35833 71.14687 91.35833Q71.83437 91.35833 72.35 91.63958Q72.88125 91.92083 73.225 92.45208Q73.56875 92.967705 73.75625 93.717705Q73.94375 94.467705 73.94375 95.748955Q73.94375 97.26458 73.63125 98.186455Q73.33437 99.10833 72.70937 99.623955Q72.1 100.123955 71.14687 100.123955Q69.9125 100.123955 69.19375 99.23333Q68.35 98.17083 68.35 95.748955ZM69.42812 95.748955Q69.42812 97.85833 69.92812 98.561455Q70.42812 99.26458 71.14687 99.26458Q71.88125 99.26458 72.36562 98.561455Q72.86562 97.85833 72.86562 95.748955Q72.86562 93.623955 72.36562 92.936455Q71.88125 92.23333 71.13125 92.23333Q70.4125 92.23333 69.975 92.842705Q69.42812 93.623955 69.42812 95.748955Z" fill-rule="nonzero"/><path fill="#000000" d="M150.44989 412.15L153.74677 403.55624L154.96552 403.55624L158.48114 412.15L157.19989 412.15L156.18427 409.54062L152.60614 409.54062L151.65302 412.15L150.44989 412.15ZM152.93427 408.61874L155.84052 408.61874L154.94989 406.24374Q154.52802 405.16562 154.34052 404.4625Q154.16864 405.29062 153.87177 406.10312L152.93427 408.61874ZM159.88739 412.15L157.60614 403.55624L158.77802 403.55624L160.09052 409.19687Q160.29364 410.07187 160.44989 410.94687Q160.77802 409.57187 160.84052 409.35312L162.46552 403.55624L163.84052 403.55624L165.07489 407.9Q165.52802 409.525 165.74677 410.94687Q165.90302 410.13437 166.16864 409.07187L167.51239 403.55624L168.65302 403.55624L166.30927 412.15L165.19989 412.15L163.40302 405.60312Q163.16864 404.79062 163.12177 404.60312Q162.99677 405.18124 162.87177 405.60312L161.05927 412.15L159.88739 412.15ZM169.01239 409.38437L170.07489 409.29062Q170.15302 409.94687 170.43427 410.35312Q170.71552 410.75937 171.29364 411.025Q171.88739 411.275 172.62177 411.275Q173.26239 411.275 173.76239 411.0875Q174.26239 410.88437 174.49677 410.55624Q174.74677 410.2125 174.74677 409.82187Q174.74677 409.41562 174.51239 409.11874Q174.27802 408.80624 173.74677 408.60312Q173.38739 408.4625 172.19989 408.18124Q171.02802 407.9 170.55927 407.65Q169.93427 407.32187 169.63739 406.85312Q169.34052 406.36874 169.34052 405.775Q169.34052 405.13437 169.69989 404.57187Q170.07489 403.99374 170.77802 403.7125Q171.49677 403.41562 172.35614 403.41562Q173.30927 403.41562 174.04364 403.72812Q174.77802 404.025 175.16864 404.63437Q175.55927 405.22812 175.59052 405.97812L174.49677 406.05624Q174.40302 405.24374 173.88739 404.8375Q173.38739 404.41562 172.40302 404.41562Q171.37177 404.41562 170.90302 404.79062Q170.43427 405.16562 170.43427 405.69687Q170.43427 406.16562 170.76239 406.4625Q171.09052 406.75937 172.46552 407.07187Q173.85614 407.38437 174.37177 407.61874Q175.12177 407.97812 175.48114 408.50937Q175.84052 409.025 175.84052 409.72812Q175.84052 410.41562 175.44989 411.025Q175.05927 411.61874 174.32489 411.9625Q173.59052 412.29062 172.66864 412.29062Q171.49677 412.29062 170.69989 411.9625Q169.91864 411.61874 169.46552 410.93124Q169.02802 410.24374 169.01239 409.38437ZM186.52802 409.13437L187.65302 409.43124Q187.29364 410.82187 186.37177 411.55624Q185.44989 412.29062 184.10614 412.29062Q182.71552 412.29062 181.84052 411.72812Q180.96552 411.16562 180.51239 410.10312Q180.05927 409.025 180.05927 407.79062Q180.05927 406.44687 180.57489 405.44687Q181.09052 404.44687 182.02802 403.93124Q182.98114 403.41562 184.12177 403.41562Q185.40302 403.41562 186.27802 404.07187Q187.16864 404.72812 187.51239 405.91562L186.38739 406.18124Q186.09052 405.24374 185.51239 404.82187Q184.94989 404.38437 184.09052 404.38437Q183.10614 404.38437 182.43427 404.86874Q181.77802 405.3375 181.49677 406.13437Q181.23114 406.93124 181.23114 407.79062Q181.23114 408.88437 181.54364 409.69687Q181.87177 410.50937 182.54364 410.91562Q183.21552 411.32187 184.01239 411.32187Q184.96552 411.32187 185.62177 410.775Q186.29364 410.22812 186.52802 409.13437ZM189.34052 412.15L189.34052 403.55624L190.48114 403.55624L190.48114 411.13437L194.71552 411.13437L194.71552 412.15L189.34052 412.15ZM196.59052 412.15L196.59052 403.55624L197.71552 403.55624L197.71552 412.15L196.59052 412.15Z" fill-rule="nonzero"/><path fill="#000000" d="M294.59268 412.15L294.59268 403.55624L298.40518 403.55624Q299.56143 403.55624 300.15518 403.79062Q300.74893 404.025 301.1083 404.61874Q301.46768 405.19687 301.46768 405.9Q301.46768 406.82187 300.87393 407.44687Q300.28018 408.07187 299.0458 408.24374Q299.49893 408.4625 299.7333 408.66562Q300.2333 409.11874 300.6708 409.80624L302.1708 412.15L300.7333 412.15L299.6083 410.36874Q299.1083 409.5875 298.78018 409.18124Q298.46768 408.775 298.20206 408.61874Q297.95206 408.44687 297.68643 408.36874Q297.49893 408.3375 297.06143 408.3375L295.7333 408.3375L295.7333 412.15L294.59268 412.15ZM295.7333 407.35312L298.18643 407.35312Q298.95206 407.35312 299.38956 407.19687Q299.84268 407.025 300.06143 406.68124Q300.2958 406.32187 300.2958 405.9Q300.2958 405.29062 299.84268 404.9Q299.40518 404.50937 298.45206 404.50937L295.7333 404.50937L295.7333 407.35312ZM307.51456 409.86874L308.5458 410.00937Q308.37393 411.07187 307.6708 411.68124Q306.96768 412.29062 305.95206 412.29062Q304.6708 412.29062 303.88956 411.4625Q303.12393 410.61874 303.12393 409.05624Q303.12393 408.05624 303.45206 407.30624Q303.7958 406.54062 304.46768 406.16562Q305.15518 405.79062 305.96768 405.79062Q306.96768 405.79062 307.6083 406.30624Q308.26456 406.80624 308.45206 407.75937L307.4208 407.91562Q307.28018 407.29062 306.90518 406.97812Q306.53018 406.65 305.99893 406.65Q305.20206 406.65 304.70206 407.22812Q304.20206 407.79062 304.20206 409.025Q304.20206 410.29062 304.68643 410.85312Q305.1708 411.41562 305.93643 411.41562Q306.56143 411.41562 306.96768 411.04062Q307.38956 410.66562 307.51456 409.86874ZM309.4208 412.15L309.4208 403.55624L310.4833 403.55624L310.4833 412.15L309.4208 412.15ZM312.06143 409.04062Q312.06143 407.30624 313.01456 406.47812Q313.81143 405.79062 314.96768 405.79062Q316.24893 405.79062 317.06143 406.63437Q317.88956 407.4625 317.88956 408.94687Q317.88956 410.15 317.53018 410.8375Q317.1708 411.525 316.46768 411.91562Q315.78018 412.29062 314.96768 412.29062Q313.6708 412.29062 312.8583 411.4625Q312.06143 410.61874 312.06143 409.04062ZM313.13956 409.04062Q313.13956 410.22812 313.65518 410.82187Q314.18643 411.41562 314.96768 411.41562Q315.76456 411.41562 316.28018 410.82187Q316.7958 410.22812 316.7958 409.00937Q316.7958 407.85312 316.26456 407.25937Q315.74893 406.66562 314.96768 406.66562Q314.18643 406.66562 313.65518 407.25937Q313.13956 407.8375 313.13956 409.04062ZM319.45206 412.15L319.45206 405.93124L320.38956 405.93124L320.38956 406.80624Q321.07706 405.79062 322.37393 405.79062Q322.93643 405.79062 323.40518 405.99374Q323.88956 406.19687 324.12393 406.525Q324.3583 406.85312 324.45206 407.29062Q324.49893 407.5875 324.49893 408.32187L324.49893 412.15L323.45206 412.15L323.45206 408.36874Q323.45206 407.7125 323.32706 407.4Q323.20206 407.0875 322.88956 406.9Q322.57706 406.69687 322.15518 406.69687Q321.4833 406.69687 320.9833 407.13437Q320.49893 407.55624 320.49893 408.74374L320.49893 412.15L319.45206 412.15ZM330.70206 410.15L331.7958 410.275Q331.5458 411.22812 330.84268 411.75937Q330.13956 412.29062 329.06143 412.29062Q327.70206 412.29062 326.88956 411.44687Q326.09268 410.60312 326.09268 409.0875Q326.09268 407.525 326.90518 406.66562Q327.71768 405.79062 328.99893 405.79062Q330.24893 405.79062 331.03018 406.63437Q331.82706 407.47812 331.82706 409.025Q331.82706 409.11874 331.82706 409.30624L327.18643 409.30624Q327.24893 410.3375 327.76456 410.88437Q328.28018 411.41562 329.06143 411.41562Q329.63956 411.41562 330.0458 411.11874Q330.46768 410.80624 330.70206 410.15ZM327.24893 408.44687L330.71768 408.44687Q330.65518 407.65 330.32706 407.25937Q329.81143 406.65 329.01456 406.65Q328.28018 406.65 327.78018 407.13437Q327.2958 407.61874 327.24893 408.44687Z" fill-rule="nonzero"/><path fill="#000000" d="M440.2667 412.15L440.2667 403.55624L443.23544 403.55624Q444.23544 403.55624 444.7667 403.68124Q445.50107 403.85312 446.0167 404.29062Q446.7042 404.86874 447.03232 405.775Q447.37607 406.66562 447.37607 407.80624Q447.37607 408.79062 447.1417 409.54062Q446.92294 410.29062 446.56357 410.79062Q446.2042 411.29062 445.7667 411.57187Q445.34482 411.85312 444.75107 412.00937Q444.15732 412.15 443.37607 412.15L440.2667 412.15ZM441.40732 411.13437L443.23544 411.13437Q444.09482 411.13437 444.5792 410.97812Q445.06357 410.82187 445.34482 410.525Q445.75107 410.13437 445.96982 409.44687Q446.2042 408.75937 446.2042 407.79062Q446.2042 406.44687 445.75107 405.72812Q445.31357 404.99374 444.68857 404.74374Q444.21982 404.57187 443.21982 404.57187L441.40732 404.57187L441.40732 411.13437ZM451.71982 412.15L448.3917 403.55624L449.62607 403.55624L451.86044 409.80624Q452.12607 410.55624 452.31357 411.2125Q452.5167 410.50937 452.78232 409.80624L455.09482 403.55624L456.25107 403.55624L452.8917 412.15L451.71982 412.15ZM462.40732 409.13437L463.53232 409.43124Q463.17294 410.82187 462.25107 411.55624Q461.3292 412.29062 459.98544 412.29062Q458.59482 412.29062 457.71982 411.72812Q456.84482 411.16562 456.3917 410.10312Q455.93857 409.025 455.93857 407.79062Q455.93857 406.44687 456.4542 405.44687Q456.96982 404.44687 457.90732 403.93124Q458.86044 403.41562 460.00107 403.41562Q461.28232 403.41562 462.15732 404.07187Q463.04794 404.72812 463.3917 405.91562L462.2667 406.18124Q461.96982 405.24374 461.3917 404.82187Q460.8292 404.38437 459.96982 404.38437Q458.98544 404.38437 458.31357 404.86874Q457.65732 405.3375 457.37607 406.13437Q457.11044 406.93124 457.11044 407.79062Q457.11044 408.88437 457.42294 409.69687Q457.75107 410.50937 458.42294 410.91562Q459.09482 411.32187 459.8917 411.32187Q460.84482 411.32187 461.50107 410.775Q462.17294 410.22812 462.40732 409.13437Z" fill-rule="nonzero"/><path fill="#000000" d="M574.01886 412.15L577.31573 403.55624L578.5345 403.55624L582.0501 412.15L580.76886 412.15L579.75323 409.54062L576.1751 409.54062L575.222 412.15L574.01886 412.15ZM576.50323 408.61874L579.4095 408.61874L578.51886 406.24374Q578.097 405.16562 577.9095 404.4625Q577.7376 405.29062 577.44073 406.10312L576.50323 408.61874ZM581.81573 412.15L581.81573 405.93124L582.76886 405.93124L582.76886 406.86874Q583.12823 406.2125 583.4251 406.00937Q583.7376 405.79062 584.1126 405.79062Q584.64386 405.79062 585.19073 406.11874L584.83136 407.10312Q584.44073 406.86874 584.06573 406.86874Q583.70636 406.86874 583.4251 407.0875Q583.1595 407.29062 583.0501 407.66562Q582.8626 408.22812 582.8626 408.88437L582.8626 412.15L581.81573 412.15ZM588.12823 411.2125L588.2845 412.13437Q587.83136 412.22812 587.4876 412.22812Q586.9095 412.22812 586.597 412.05624Q586.2845 411.86874 586.14386 411.57187Q586.01886 411.275 586.01886 410.32187L586.01886 406.74374L585.25323 406.74374L585.25323 405.93124L586.01886 405.93124L586.01886 404.38437L587.06573 403.75937L587.06573 405.93124L588.12823 405.93124L588.12823 406.74374L587.06573 406.74374L587.06573 410.38437Q587.06573 410.8375 587.1126 410.9625Q587.1751 411.0875 587.3001 411.16562Q587.4251 411.24374 587.6595 411.24374Q587.847 411.24374 588.12823 411.2125ZM588.83136 404.775L588.83136 403.55624L589.89386 403.55624L589.89386 404.775L588.83136 404.775ZM588.83136 412.15L588.83136 405.93124L589.89386 405.93124L589.89386 412.15L588.83136 412.15ZM594.4095 412.15L591.08136 403.55624L592.31573 403.55624L594.5501 409.80624Q594.81573 410.55624 595.00323 411.2125Q595.20636 410.50937 595.472 409.80624L597.7845 403.55624L598.94073 403.55624L595.58136 412.15L594.4095 412.15ZM605.097 409.13437L606.222 409.43124Q605.8626 410.82187 604.94073 411.55624Q604.01886 412.29062 602.6751 412.29062Q601.2845 412.29062 600.4095 411.72812Q599.5345 411.16562 599.08136 410.10312Q598.62823 409.025 598.62823 407.79062Q598.62823 406.44687 599.14386 405.44687Q599.6595 404.44687 600.597 403.93124Q601.5501 403.41562 602.69073 403.41562Q603.972 403.41562 604.847 404.07187Q605.7376 404.72812 606.08136 405.91562L604.95636 406.18124Q604.6595 405.24374 604.08136 404.82187Q603.51886 404.38437 602.6595 404.38437Q601.6751 404.38437 601.00323 404.86874Q600.347 405.3375 600.06573 406.13437Q599.8001 406.93124 599.8001 407.79062Q599.8001 408.88437 600.1126 409.69687Q600.44073 410.50937 601.1126 410.91562Q601.7845 411.32187 602.58136 411.32187Q603.5345 411.32187 604.19073 410.775Q604.8626 410.22812 605.097 409.13437Z" fill-rule="nonzero"/><path fill="#6fa8dc" d="M197.0 62.416668C197.0 61.864384 197.44771 61.416668 198.0 61.416668L208.0 61.416668C208.55229 61.416668 209.0 61.864384 209.0 62.416668L209.0 72.416664C209.0 72.96895 208.55229 73.416664 208.0 73.416664L198.0 73.416664C197.44771 73.416664 197.0 72.96895 197.0 72.416664Z" fill-rule="nonzero"/><path fill="#1a1a1a" d="M221.46875 71.416664L220.42188 71.416664L220.42188 64.697914Q220.03125 65.05729 219.40625 65.43229Q218.79688 65.791664 218.3125 65.96354L218.3125 64.947914Q219.1875 64.52604 219.84375 63.947914Q220.51562 63.354164 220.79688 62.791664L221.46875 62.791664L221.46875 71.416664ZM224.375 69.55729L225.40625 69.40104Q225.5 70.02604 225.89062 70.354164Q226.29688 70.68229 227.03125 70.68229Q227.75 70.68229 228.09375 70.40104Q228.45312 70.104164 228.45312 69.697914Q228.45312 69.33854 228.14062 69.135414Q227.92188 68.99479 227.0625 68.77604Q225.90625 68.479164 225.45312 68.27604Q225.01562 68.05729 224.78125 67.68229Q224.54688 67.30729 224.54688 66.83854Q224.54688 66.43229 224.73438 66.072914Q224.92188 65.71354 225.25 65.479164Q225.5 65.30729 225.92188 65.18229Q226.34375 65.05729 226.84375 65.05729Q227.5625 65.05729 228.10938 65.27604Q228.67188 65.479164 228.9375 65.83854Q229.20312 66.197914 229.29688 66.791664L228.26562 66.93229Q228.20312 66.46354 227.85938 66.197914Q227.53125 65.916664 226.90625 65.916664Q226.1875 65.916664 225.875 66.166664Q225.5625 66.40104 225.5625 66.729164Q225.5625 66.93229 225.6875 67.08854Q225.82812 67.260414 226.09375 67.36979Q226.25 67.43229 227.03125 67.635414Q228.15625 67.947914 228.59375 68.135414Q229.03125 68.322914 229.28125 68.68229Q229.53125 69.041664 229.53125 69.58854Q229.53125 70.11979 229.21875 70.58854Q228.92188 71.041664 228.34375 71.30729Q227.76562 71.55729 227.03125 71.55729Q225.8125 71.55729 225.17188 71.05729Q224.54688 70.541664 224.375 69.55729ZM234.09375 70.479164L234.25 71.40104Q233.79688 71.49479 233.45312 71.49479Q232.875 71.49479 232.5625 71.322914Q232.25 71.135414 232.10938 70.83854Q231.98438 70.541664 231.98438 69.58854L231.98438 66.010414L231.21875 66.010414L231.21875 65.197914L231.98438 65.197914L231.98438 63.65104L233.03125 63.02604L233.03125 65.197914L234.09375 65.197914L234.09375 66.010414L233.03125 66.010414L233.03125 69.65104Q233.03125 70.104164 233.07812 70.229164Q233.14062 70.354164 233.26562 70.43229Q233.39062 70.510414 233.625 70.510414Q233.8125 70.510414 234.09375 70.479164ZM237.79688 73.80729L237.79688 65.197914L238.75 65.197914L238.75 65.99479Q239.09375 65.52604 239.51562 65.291664Q239.95312 65.05729 240.5625 65.05729Q241.35938 65.05729 241.96875 65.46354Q242.57812 65.86979 242.875 66.61979Q243.1875 67.36979 243.1875 68.260414Q243.1875 69.21354 242.84375 69.979164Q242.51562 70.74479 241.85938 71.15104Q241.20312 71.55729 240.48438 71.55729Q239.95312 71.55729 239.53125 71.33854Q239.10938 71.104164 238.84375 70.77604L238.84375 73.80729L237.79688 73.80729ZM238.75 68.33854Q238.75 69.541664 239.23438 70.11979Q239.71875 70.68229 240.40625 70.68229Q241.10938 70.68229 241.60938 70.08854Q242.10938 69.49479 242.10938 68.24479Q242.10938 67.05729 241.625 66.479164Q241.14062 65.885414 240.45312 65.885414Q239.78125 65.885414 239.26562 66.510414Q238.75 67.135414 238.75 68.33854ZM248.875 71.416664L248.875 70.49479Q248.14062 71.55729 246.89062 71.55729Q246.34375 71.55729 245.85938 71.354164Q245.39062 71.135414 245.15625 70.822914Q244.92188 70.49479 244.82812 70.02604Q244.76562 69.729164 244.76562 69.041664L244.76562 65.197914L245.82812 65.197914L245.82812 68.65104Q245.82812 69.46354 245.89062 69.760414Q245.98438 70.166664 246.29688 70.416664Q246.625 70.65104 247.10938 70.65104Q247.57812 70.65104 247.98438 70.416664Q248.40625 70.166664 248.57812 69.74479Q248.76562 69.322914 248.76562 68.52604L248.76562 65.197914L249.8125 65.197914L249.8125 71.416664L248.875 71.416664ZM251.375 69.55729L252.40625 69.40104Q252.5 70.02604 252.89062 70.354164Q253.29688 70.68229 254.03125 70.68229Q254.75 70.68229 255.09375 70.40104Q255.45312 70.104164 255.45312 69.697914Q255.45312 69.33854 255.14062 69.135414Q254.92188 68.99479 254.0625 68.77604Q252.90625 68.479164 252.45312 68.27604Q252.01562 68.05729 251.78125 67.68229Q251.54688 67.30729 251.54688 66.83854Q251.54688 66.43229 251.73438 66.072914Q251.92188 65.71354 252.25 65.479164Q252.5 65.30729 252.92188 65.18229Q253.34375 65.05729 253.84375 65.05729Q254.5625 65.05729 255.10938 65.27604Q255.67188 65.479164 255.9375 65.83854Q256.20312 66.197914 256.29688 66.791664L255.26562 66.93229Q255.20312 66.46354 254.85938 66.197914Q254.53125 65.916664 253.90625 65.916664Q253.1875 65.916664 252.875 66.166664Q252.5625 66.40104 252.5625 66.729164Q252.5625 66.93229 252.6875 67.08854Q252.82812 67.260414 253.09375 67.36979Q253.25 67.43229 254.03125 67.635414Q255.15625 67.947914 255.59375 68.135414Q256.03125 68.322914 256.28125 68.68229Q256.53125 69.041664 256.53125 69.58854Q256.53125 70.11979 256.21875 70.58854Q255.92188 71.041664 255.34375 71.30729Q254.76562 71.55729 254.03125 71.55729Q252.8125 71.55729 252.17188 71.05729Q251.54688 70.541664 251.375 69.55729ZM258.79688 71.416664L258.79688 62.822914L259.84375 62.822914L259.84375 65.90104Q260.57812 65.05729 261.70312 65.05729Q262.40625 65.05729 262.90625 65.33854Q263.42188 65.604164 263.64062 66.08854Q263.85938 66.55729 263.85938 67.479164L263.85938 71.416664L262.8125 71.416664L262.8125 67.479164Q262.8125 66.68229 262.46875 66.322914Q262.125 65.96354 261.5 65.96354Q261.03125 65.96354 260.60938 66.21354Q260.20312 66.447914 260.01562 66.86979Q259.84375 67.27604 259.84375 68.010414L259.84375 71.416664L258.79688 71.416664Z" fill-rule="nonzero"/><path fill="#e06666" d="M281.0 62.416668C281.0 61.864384 281.44772 61.416668 282.0 61.416668L292.0 61.416668C292.55228 61.416668 293.0 61.864384 293.0 62.416668L293.0 72.416664C293.0 72.96895 292.55228 73.416664 292.0 73.416664L282.0 73.416664C281.44772 73.416664 281.0 72.96895 281.0 72.416664Z" fill-rule="nonzero"/><path fill="#1a1a1a" d="M307.04688 70.40104L307.04688 71.416664L301.35938 71.416664Q301.35938 71.041664 301.48438 70.68229Q301.70312 70.104164 302.17188 69.541664Q302.65625 68.979164 303.5625 68.24479Q304.96875 67.08854 305.45312 66.416664Q305.95312 65.74479 305.95312 65.15104Q305.95312 64.52604 305.5 64.104164Q305.04688 63.666664 304.32812 63.666664Q303.5625 63.666664 303.10938 64.11979Q302.65625 64.572914 302.64062 65.385414L301.5625 65.27604Q301.67188 64.05729 302.39062 63.43229Q303.125 62.791664 304.35938 62.791664Q305.59375 62.791664 306.3125 63.479164Q307.03125 64.166664 307.03125 65.18229Q307.03125 65.697914 306.8125 66.197914Q306.60938 66.68229 306.10938 67.24479Q305.625 67.791664 304.5 68.74479Q303.54688 69.541664 303.26562 69.83854Q303.0 70.11979 302.82812 70.40104L307.04688 70.40104ZM308.79688 71.416664L308.79688 65.197914L309.73438 65.197914L309.73438 66.072914Q310.42188 65.05729 311.71875 65.05729Q312.28125 65.05729 312.75 65.260414Q313.23438 65.46354 313.46875 65.791664Q313.70312 66.11979 313.79688 66.55729Q313.84375 66.854164 313.84375 67.58854L313.84375 71.416664L312.79688 71.416664L312.79688 67.635414Q312.79688 66.979164 312.67188 66.666664Q312.54688 66.354164 312.23438 66.166664Q311.92188 65.96354 311.5 65.96354Q310.82812 65.96354 310.32812 66.40104Q309.84375 66.822914 309.84375 68.010414L309.84375 71.416664L308.79688 71.416664ZM319.82812 71.416664L319.82812 70.635414Q319.23438 71.55729 318.09375 71.55729Q317.34375 71.55729 316.71875 71.15104Q316.09375 70.729164 315.75 69.99479Q315.40625 69.260414 315.40625 68.30729Q315.40625 67.385414 315.71875 66.61979Q316.03125 65.854164 316.65625 65.46354Q317.28125 65.05729 318.04688 65.05729Q318.60938 65.05729 319.04688 65.291664Q319.48438 65.52604 319.76562 65.90104L319.76562 62.822914L320.8125 62.822914L320.8125 71.416664L319.82812 71.416664ZM316.5 68.30729Q316.5 69.510414 317.0 70.104164Q317.5 70.68229 318.1875 70.68229Q318.875 70.68229 319.35938 70.11979Q319.84375 69.55729 319.84375 68.40104Q319.84375 67.11979 319.34375 66.52604Q318.85938 65.93229 318.14062 65.93229Q317.4375 65.93229 316.96875 66.510414Q316.5 67.072914 316.5 68.30729ZM325.79688 73.80729L325.79688 65.197914L326.75 65.197914L326.75 65.99479Q327.09375 65.52604 327.51562 65.291664Q327.95312 65.05729 328.5625 65.05729Q329.35938 65.05729 329.96875 65.46354Q330.57812 65.86979 330.875 66.61979Q331.1875 67.36979 331.1875 68.260414Q331.1875 69.21354 330.84375 69.979164Q330.51562 70.74479 329.85938 71.15104Q329.20312 71.55729 328.48438 71.55729Q327.95312 71.55729 327.53125 71.33854Q327.10938 71.104164 326.84375 70.77604L326.84375 73.80729L325.79688 73.80729ZM326.75 68.33854Q326.75 69.541664 327.23438 70.11979Q327.71875 70.68229 328.40625 70.68229Q329.10938 70.68229 329.60938 70.08854Q330.10938 69.49479 330.10938 68.24479Q330.10938 67.05729 329.625 66.479164Q329.14062 65.885414 328.45312 65.885414Q327.78125 65.885414 327.26562 66.510414Q326.75 67.135414 326.75 68.33854ZM336.875 71.416664L336.875 70.49479Q336.14062 71.55729 334.89062 71.55729Q334.34375 71.55729 333.85938 71.354164Q333.39062 71.135414 333.15625 70.822914Q332.92188 70.49479 332.82812 70.02604Q332.76562 69.729164 332.76562 69.041664L332.76562 65.197914L333.82812 65.197914L333.82812 68.65104Q333.82812 69.46354 333.89062 69.760414Q333.98438 70.166664 334.29688 70.416664Q334.625 70.65104 335.10938 70.65104Q335.57812 70.65104 335.98438 70.416664Q336.40625 70.166664 336.57812 69.74479Q336.76562 69.322914 336.76562 68.52604L336.76562 65.197914L337.8125 65.197914L337.8125 71.416664L336.875 71.416664ZM339.375 69.55729L340.40625 69.40104Q340.5 70.02604 340.89062 70.354164Q341.29688 70.68229 342.03125 70.68229Q342.75 70.68229 343.09375 70.40104Q343.45312 70.104164 343.45312 69.697914Q343.45312 69.33854 343.14062 69.135414Q342.92188 68.99479 342.0625 68.77604Q340.90625 68.479164 340.45312 68.27604Q340.01562 68.05729 339.78125 67.68229Q339.54688 67.30729 339.54688 66.83854Q339.54688 66.43229 339.73438 66.072914Q339.92188 65.71354 340.25 65.479164Q340.5 65.30729 340.92188 65.18229Q341.34375 65.05729 341.84375 65.05729Q342.5625 65.05729 343.10938 65.27604Q343.67188 65.479164 343.9375 65.83854Q344.20312 66.197914 344.29688 66.791664L343.26562 66.93229Q343.20312 66.46354 342.85938 66.197914Q342.53125 65.916664 341.90625 65.916664Q341.1875 65.916664 340.875 66.166664Q340.5625 66.40104 340.5625 66.729164Q340.5625 66.93229 340.6875 67.08854Q340.82812 67.260414 341.09375 67.36979Q341.25 67.43229 342.03125 67.635414Q343.15625 67.947914 343.59375 68.135414Q344.03125 68.322914 344.28125 68.68229Q344.53125 69.041664 344.53125 69.58854Q344.53125 70.11979 344.21875 70.58854Q343.92188 71.041664 343.34375 71.30729Q342.76562 71.55729 342.03125 71.55729Q340.8125 71.55729 340.17188 71.05729Q339.54688 70.541664 339.375 69.55729ZM346.79688 71.416664L346.79688 62.822914L347.84375 62.822914L347.84375 65.90104Q348.57812 65.05729 349.70312 65.05729Q350.40625 65.05729 350.90625 65.33854Q351.42188 65.604164 351.64062 66.08854Q351.85938 66.55729 351.85938 67.479164L351.85938 71.416664L350.8125 71.416664L350.8125 67.479164Q350.8125 66.68229 350.46875 66.322914Q350.125 65.96354 349.5 65.96354Q349.03125 65.96354 348.60938 66.21354Q348.20312 66.447914 348.01562 66.86979Q347.84375 67.27604 347.84375 68.010414L347.84375 71.416664L346.79688 71.416664Z" fill-rule="nonzero"/><path fill="#ffd966" d="M369.0 62.416668C369.0 61.864384 369.44772 61.416668 370.0 61.416668L380.0 61.416668C380.55228 61.416668 381.0 61.864384 381.0 62.416668L381.0 72.416664C381.0 72.96895 380.55228 73.416664 380.0 73.416664L370.0 73.416664C369.44772 73.416664 369.0 72.96895 369.0 72.416664Z" fill-rule="nonzero"/><path fill="#1a1a1a" d="M393.46875 71.416664L392.42188 71.416664L392.42188 64.697914Q392.03125 65.05729 391.40625 65.43229Q390.79688 65.791664 390.3125 65.96354L390.3125 64.947914Q391.1875 64.52604 391.84375 63.947914Q392.51562 63.354164 392.79688 62.791664L393.46875 62.791664L393.46875 71.416664ZM396.375 69.55729L397.40625 69.40104Q397.5 70.02604 397.89062 70.354164Q398.29688 70.68229 399.03125 70.68229Q399.75 70.68229 400.09375 70.40104Q400.45312 70.104164 400.45312 69.697914Q400.45312 69.33854 400.14062 69.135414Q399.92188 68.99479 399.0625 68.77604Q397.90625 68.479164 397.45312 68.27604Q397.01562 68.05729 396.78125 67.68229Q396.54688 67.30729 396.54688 66.83854Q396.54688 66.43229 396.73438 66.072914Q396.92188 65.71354 397.25 65.479164Q397.5 65.30729 397.92188 65.18229Q398.34375 65.05729 398.84375 65.05729Q399.5625 65.05729 400.10938 65.27604Q400.67188 65.479164 400.9375 65.83854Q401.20312 66.197914 401.29688 66.791664L400.26562 66.93229Q400.20312 66.46354 399.85938 66.197914Q399.53125 65.916664 398.90625 65.916664Q398.1875 65.916664 397.875 66.166664Q397.5625 66.40104 397.5625 66.729164Q397.5625 66.93229 397.6875 67.08854Q397.82812 67.260414 398.09375 67.36979Q398.25 67.43229 399.03125 67.635414Q400.15625 67.947914 400.59375 68.135414Q401.03125 68.322914 401.28125 68.68229Q401.53125 69.041664 401.53125 69.58854Q401.53125 70.11979 401.21875 70.58854Q400.92188 71.041664 400.34375 71.30729Q399.76562 71.55729 399.03125 71.55729Q397.8125 71.55729 397.17188 71.05729Q396.54688 70.541664 396.375 69.55729ZM406.09375 70.479164L406.25 71.40104Q405.79688 71.49479 405.45312 71.49479Q404.875 71.49479 404.5625 71.322914Q404.25 71.135414 404.10938 70.83854Q403.98438 70.541664 403.98438 69.58854L403.98438 66.010414L403.21875 66.010414L403.21875 65.197914L403.98438 65.197914L403.98438 63.65104L405.03125 63.02604L405.03125 65.197914L406.09375 65.197914L406.09375 66.010414L405.03125 66.010414L405.03125 69.65104Q405.03125 70.104164 405.07812 70.229164Q405.14062 70.354164 405.26562 70.43229Q405.39062 70.510414 405.625 70.510414Q405.8125 70.510414 406.09375 70.479164ZM409.79688 73.80729L409.79688 65.197914L410.75 65.197914L410.75 65.99479Q411.09375 65.52604 411.51562 65.291664Q411.95312 65.05729 412.5625 65.05729Q413.35938 65.05729 413.96875 65.46354Q414.57812 65.86979 414.875 66.61979Q415.1875 67.36979 415.1875 68.260414Q415.1875 69.21354 414.84375 69.979164Q414.51562 70.74479 413.85938 71.15104Q413.20312 71.55729 412.48438 71.55729Q411.95312 71.55729 411.53125 71.33854Q411.10938 71.104164 410.84375 70.77604L410.84375 73.80729L409.79688 73.80729ZM410.75 68.33854Q410.75 69.541664 411.23438 70.11979Q411.71875 70.68229 412.40625 70.68229Q413.10938 70.68229 413.60938 70.08854Q414.10938 69.49479 414.10938 68.24479Q414.10938 67.05729 413.625 66.479164Q413.14062 65.885414 412.45312 65.885414Q411.78125 65.885414 411.26562 66.510414Q410.75 67.135414 410.75 68.33854ZM420.875 71.416664L420.875 70.49479Q420.14062 71.55729 418.89062 71.55729Q418.34375 71.55729 417.85938 71.354164Q417.39062 71.135414 417.15625 70.822914Q416.92188 70.49479 416.82812 70.02604Q416.76562 69.729164 416.76562 69.041664L416.76562 65.197914L417.82812 65.197914L417.82812 68.65104Q417.82812 69.46354 417.89062 69.760414Q417.98438 70.166664 418.29688 70.416664Q418.625 70.65104 419.10938 70.65104Q419.57812 70.65104 419.98438 70.416664Q420.40625 70.166664 420.57812 69.74479Q420.76562 69.322914 420.76562 68.52604L420.76562 65.197914L421.8125 65.197914L421.8125 71.416664L420.875 71.416664ZM423.76562 71.416664L423.76562 62.822914L424.82812 62.822914L424.82812 71.416664L423.76562 71.416664ZM426.76562 71.416664L426.76562 62.822914L427.82812 62.822914L427.82812 71.416664L426.76562 71.416664Z" fill-rule="nonzero"/><path fill="#93c47d" d="M445.0 62.416668C445.0 61.864384 445.44772 61.416668 446.0 61.416668L456.0 61.416668C456.55228 61.416668 457.0 61.864384 457.0 62.416668L457.0 72.416664C457.0 72.96895 456.55228 73.416664 456.0 73.416664L446.0 73.416664C445.44772 73.416664 445.0 72.96895 445.0 72.416664Z" fill-rule="nonzero"/><path fill="#1a1a1a" d="M471.04688 70.40104L471.04688 71.416664L465.35938 71.416664Q465.35938 71.041664 465.48438 70.68229Q465.70312 70.104164 466.17188 69.541664Q466.65625 68.979164 467.5625 68.24479Q468.96875 67.08854 469.45312 66.416664Q469.95312 65.74479 469.95312 65.15104Q469.95312 64.52604 469.5 64.104164Q469.04688 63.666664 468.32812 63.666664Q467.5625 63.666664 467.10938 64.11979Q466.65625 64.572914 466.64062 65.385414L465.5625 65.27604Q465.67188 64.05729 466.39062 63.43229Q467.125 62.791664 468.35938 62.791664Q469.59375 62.791664 470.3125 63.479164Q471.03125 64.166664 471.03125 65.18229Q471.03125 65.697914 470.8125 66.197914Q470.60938 66.68229 470.10938 67.24479Q469.625 67.791664 468.5 68.74479Q467.54688 69.541664 467.26562 69.83854Q467.0 70.11979 466.82812 70.40104L471.04688 70.40104ZM472.79688 71.416664L472.79688 65.197914L473.73438 65.197914L473.73438 66.072914Q474.42188 65.05729 475.71875 65.05729Q476.28125 65.05729 476.75 65.260414Q477.23438 65.46354 477.46875 65.791664Q477.70312 66.11979 477.79688 66.55729Q477.84375 66.854164 477.84375 67.58854L477.84375 71.416664L476.79688 71.416664L476.79688 67.635414Q476.79688 66.979164 476.67188 66.666664Q476.54688 66.354164 476.23438 66.166664Q475.92188 65.96354 475.5 65.96354Q474.82812 65.96354 474.32812 66.40104Q473.84375 66.822914 473.84375 68.010414L473.84375 71.416664L472.79688 71.416664ZM483.82812 71.416664L483.82812 70.635414Q483.23438 71.55729 482.09375 71.55729Q481.34375 71.55729 480.71875 71.15104Q480.09375 70.729164 479.75 69.99479Q479.40625 69.260414 479.40625 68.30729Q479.40625 67.385414 479.71875 66.61979Q480.03125 65.854164 480.65625 65.46354Q481.28125 65.05729 482.04688 65.05729Q482.60938 65.05729 483.04688 65.291664Q483.48438 65.52604 483.76562 65.90104L483.76562 62.822914L484.8125 62.822914L484.8125 71.416664L483.82812 71.416664ZM480.5 68.30729Q480.5 69.510414 481.0 70.104164Q481.5 70.68229 482.1875 70.68229Q482.875 70.68229 483.35938 70.11979Q483.84375 69.55729 483.84375 68.40104Q483.84375 67.11979 483.34375 66.52604Q482.85938 65.93229 482.14062 65.93229Q481.4375 65.93229 480.96875 66.510414Q480.5 67.072914 480.5 68.30729ZM489.79688 73.80729L489.79688 65.197914L490.75 65.197914L490.75 65.99479Q491.09375 65.52604 491.51562 65.291664Q491.95312 65.05729 492.5625 65.05729Q493.35938 65.05729 493.96875 65.46354Q494.57812 65.86979 494.875 66.61979Q495.1875 67.36979 495.1875 68.260414Q495.1875 69.21354 494.84375 69.979164Q494.51562 70.74479 493.85938 71.15104Q493.20312 71.55729 492.48438 71.55729Q491.95312 71.55729 491.53125 71.33854Q491.10938 71.104164 490.84375 70.77604L490.84375 73.80729L489.79688 73.80729ZM490.75 68.33854Q490.75 69.541664 491.23438 70.11979Q491.71875 70.68229 492.40625 70.68229Q493.10938 70.68229 493.60938 70.08854Q494.10938 69.49479 494.10938 68.24479Q494.10938 67.05729 493.625 66.479164Q493.14062 65.885414 492.45312 65.885414Q491.78125 65.885414 491.26562 66.510414Q490.75 67.135414 490.75 68.33854ZM500.875 71.416664L500.875 70.49479Q500.14062 71.55729 498.89062 71.55729Q498.34375 71.55729 497.85938 71.354164Q497.39062 71.135414 497.15625 70.822914Q496.92188 70.49479 496.82812 70.02604Q496.76562 69.729164 496.76562 69.041664L496.76562 65.197914L497.82812 65.197914L497.82812 68.65104Q497.82812 69.46354 497.89062 69.760414Q497.98438 70.166664 498.29688 70.416664Q498.625 70.65104 499.10938 70.65104Q499.57812 70.65104 499.98438 70.416664Q500.40625 70.166664 500.57812 69.74479Q500.76562 69.322914 500.76562 68.52604L500.76562 65.197914L501.8125 65.197914L501.8125 71.416664L500.875 71.416664ZM503.76562 71.416664L503.76562 62.822914L504.82812 62.822914L504.82812 71.416664L503.76562 71.416664ZM506.76562 71.416664L506.76562 62.822914L507.82812 62.822914L507.82812 71.416664L506.76562 71.416664Z" fill-rule="nonzero"/><path fill="#434343" d="M203.04688 40.85L203.04688 26.537498L207.96875 26.537498Q209.64062 26.537498 210.53125 26.740623Q211.75 27.021873 212.625 27.756248Q213.75 28.724998 214.3125 30.209373Q214.875 31.693748 214.875 33.615623Q214.875 35.240623 214.5 36.50625Q214.125 37.75625 213.51562 38.584373Q212.92188 39.4125 212.21875 39.896873Q211.51562 40.365623 210.51562 40.615623Q209.51562 40.85 208.20312 40.85L203.04688 40.85ZM204.9375 39.1625L208.0 39.1625Q209.40625 39.1625 210.20312 38.896873Q211.01562 38.63125 211.5 38.146873Q212.17188 37.475 212.54688 36.35Q212.92188 35.209373 212.92188 33.584373Q212.92188 31.334373 212.1875 30.131248Q211.45312 28.928123 210.39062 28.521873Q209.64062 28.224998 207.95312 28.224998L204.9375 28.224998L204.9375 39.1625ZM216.17188 35.6625Q216.17188 32.7875 217.76562 31.396873Q219.10938 30.240623 221.03125 30.240623Q223.17188 30.240623 224.51562 31.646873Q225.875 33.053123 225.875 35.521873Q225.875 37.521873 225.28125 38.678123Q224.6875 39.81875 223.53125 40.459373Q222.39062 41.084373 221.03125 41.084373Q218.84375 41.084373 217.5 39.69375Q216.17188 38.2875 216.17188 35.6625ZM217.96875 35.6625Q217.96875 37.6625 218.82812 38.646873Q219.70312 39.63125 221.03125 39.63125Q222.34375 39.63125 223.20312 38.646873Q224.07812 37.646873 224.07812 35.6Q224.07812 33.678123 223.20312 32.69375Q222.32812 31.693748 221.03125 31.693748Q219.70312 31.693748 218.82812 32.69375Q217.96875 33.678123 217.96875 35.6625ZM229.73438 40.85L226.5625 30.474998L228.375 30.474998L230.03125 36.459373L230.64062 38.69375Q230.6875 38.521873 231.17188 36.553123L232.82812 30.474998L234.64062 30.474998L236.1875 36.490623L236.70312 38.475L237.29688 36.475L239.07812 30.474998L240.78125 30.474998L237.54688 40.85L235.71875 40.85L234.0625 34.63125L233.67188 32.865623L231.5625 40.85L229.73438 40.85ZM242.8125 40.85L242.8125 30.474998L244.40625 30.474998L244.40625 31.959373Q245.54688 30.240623 247.70312 30.240623Q248.64062 30.240623 249.42188 30.584373Q250.21875 30.912498 250.60938 31.459373Q251.0 32.00625 251.15625 32.75625Q251.25 33.25625 251.25 34.475L251.25 40.85L249.48438 40.85L249.48438 34.5375Q249.48438 33.459373 249.28125 32.928123Q249.07812 32.396873 248.54688 32.084373Q248.03125 31.771873 247.32812 31.771873Q246.20312 31.771873 245.39062 32.490623Q244.57812 33.19375 244.57812 35.178123L244.57812 40.85L242.8125 40.85ZM252.78125 40.85L252.78125 26.537498L254.53125 26.537498L254.53125 40.85L252.78125 40.85ZM256.17188 35.6625Q256.17188 32.7875 257.76562 31.396873Q259.10938 30.240623 261.03125 30.240623Q263.17188 30.240623 264.51562 31.646873Q265.875 33.053123 265.875 35.521873Q265.875 37.521873 265.28125 38.678123Q264.6875 39.81875 263.53125 40.459373Q262.39062 41.084373 261.03125 41.084373Q258.84375 41.084373 257.5 39.69375Q256.17188 38.2875 256.17188 35.6625ZM257.96875 35.6625Q257.96875 37.6625 258.82812 38.646873Q259.70312 39.63125 261.03125 39.63125Q262.34375 39.63125 263.20312 38.646873Q264.07812 37.646873 264.07812 35.6Q264.07812 33.678123 263.20312 32.69375Q262.32812 31.693748 261.03125 31.693748Q259.70312 31.693748 258.82812 32.69375Q257.96875 33.678123 257.96875 35.6625ZM274.59375 39.56875Q273.60938 40.396873 272.70312 40.740623Q271.79688 41.084373 270.76562 41.084373Q269.0625 41.084373 268.14062 40.25625Q267.21875 39.4125 267.21875 38.115623Q267.21875 37.35 267.5625 36.725Q267.92188 36.1 268.48438 35.725Q269.04688 35.334373 269.75 35.13125Q270.26562 35.00625 271.3125 34.865623Q273.4375 34.615623 274.4375 34.271873Q274.45312 33.9125 274.45312 33.803123Q274.45312 32.740623 273.95312 32.2875Q273.28125 31.693748 271.95312 31.693748Q270.70312 31.693748 270.10938 32.13125Q269.53125 32.56875 269.25 33.678123L267.53125 33.44375Q267.76562 32.334373 268.29688 31.662498Q268.82812 30.974998 269.84375 30.615623Q270.85938 30.240623 272.20312 30.240623Q273.53125 30.240623 274.35938 30.553123Q275.1875 30.865623 275.57812 31.349998Q275.96875 31.818748 276.125 32.5375Q276.21875 32.990623 276.21875 34.1625L276.21875 36.50625Q276.21875 38.959373 276.32812 39.615623Q276.4375 40.25625 276.78125 40.85L274.9375 40.85Q274.67188 40.303123 274.59375 39.56875ZM274.4375 35.646873Q273.48438 36.0375 271.5625 36.303123Q270.48438 36.459373 270.03125 36.6625Q269.59375 36.85 269.34375 37.225Q269.09375 37.6 269.09375 38.06875Q269.09375 38.771873 269.625 39.240623Q270.15625 39.709373 271.1875 39.709373Q272.20312 39.709373 272.98438 39.271873Q273.78125 38.81875 274.15625 38.053123Q274.4375 37.44375 274.4375 36.2875L274.4375 35.646873ZM285.54688 40.85L285.54688 39.5375Q284.5625 41.084373 282.64062 41.084373Q281.40625 41.084373 280.35938 40.396873Q279.32812 39.709373 278.75 38.490623Q278.1875 37.271873 278.1875 35.678123Q278.1875 34.115623 278.70312 32.85Q279.21875 31.584373 280.25 30.912498Q281.29688 30.240623 282.5625 30.240623Q283.5 30.240623 284.23438 30.646873Q284.96875 31.037498 285.4375 31.662498L285.4375 26.537498L287.17188 26.537498L287.17188 40.85L285.54688 40.85ZM279.98438 35.678123Q279.98438 37.6625 280.82812 38.646873Q281.67188 39.63125 282.8125 39.63125Q283.96875 39.63125 284.76562 38.69375Q285.57812 37.75625 285.57812 35.81875Q285.57812 33.69375 284.75 32.69375Q283.9375 31.693748 282.73438 31.693748Q281.5625 31.693748 280.76562 32.6625Q279.98438 33.615623 279.98438 35.678123ZM288.5 41.1L292.65625 26.287498L294.0625 26.287498L289.92188 41.1L288.5 41.1ZM305.4375 26.537498L307.32812 26.537498L307.32812 34.803123Q307.32812 36.959373 306.84375 38.240623Q306.35938 39.50625 305.07812 40.303123Q303.8125 41.1 301.73438 41.1Q299.71875 41.1 298.4375 40.4125Q297.17188 39.709373 296.625 38.396873Q296.07812 37.084373 296.07812 34.803123L296.07812 26.537498L297.96875 26.537498L297.96875 34.7875Q297.96875 36.6625 298.3125 37.553123Q298.65625 38.428123 299.5 38.9125Q300.34375 39.38125 301.57812 39.38125Q303.65625 39.38125 304.54688 38.44375Q305.4375 37.490623 305.4375 34.7875L305.4375 26.537498ZM308.8125 44.81875L308.8125 30.474998L310.42188 30.474998L310.42188 31.818748Q310.98438 31.037498 311.6875 30.646873Q312.40625 30.240623 313.42188 30.240623Q314.75 30.240623 315.76562 30.928123Q316.78125 31.615623 317.29688 32.865623Q317.82812 34.1 317.82812 35.584373Q317.82812 37.178123 317.25 38.459373Q316.6875 39.725 315.59375 40.4125Q314.5 41.084373 313.29688 41.084373Q312.42188 41.084373 311.71875 40.709373Q311.03125 40.334373 310.57812 39.771873L310.57812 44.81875L308.8125 44.81875ZM310.40625 35.725Q310.40625 37.725 311.21875 38.678123Q312.03125 39.63125 313.1875 39.63125Q314.35938 39.63125 315.1875 38.646873Q316.03125 37.6625 316.03125 35.56875Q316.03125 33.6 315.20312 32.615623Q314.39062 31.615623 313.26562 31.615623Q312.14062 31.615623 311.26562 32.678123Q310.40625 33.725 310.40625 35.725ZM319.78125 40.85L319.78125 26.537498L321.53125 26.537498L321.53125 40.85L319.78125 40.85ZM323.17188 35.6625Q323.17188 32.7875 324.76562 31.396873Q326.10938 30.240623 328.03125 30.240623Q330.17188 30.240623 331.51562 31.646873Q332.875 33.053123 332.875 35.521873Q332.875 37.521873 332.28125 38.678123Q331.6875 39.81875 330.53125 40.459373Q329.39062 41.084373 328.03125 41.084373Q325.84375 41.084373 324.5 39.69375Q323.17188 38.2875 323.17188 35.6625ZM324.96875 35.6625Q324.96875 37.6625 325.82812 38.646873Q326.70312 39.63125 328.03125 39.63125Q329.34375 39.63125 330.20312 38.646873Q331.07812 37.646873 331.07812 35.6Q331.07812 33.678123 330.20312 32.69375Q329.32812 31.693748 328.03125 31.693748Q326.70312 31.693748 325.82812 32.69375Q324.96875 33.678123 324.96875 35.6625ZM341.59375 39.56875Q340.60938 40.396873 339.70312 40.740623Q338.79688 41.084373 337.76562 41.084373Q336.0625 41.084373 335.14062 40.25625Q334.21875 39.4125 334.21875 38.115623Q334.21875 37.35 334.5625 36.725Q334.92188 36.1 335.48438 35.725Q336.04688 35.334373 336.75 35.13125Q337.26562 35.00625 338.3125 34.865623Q340.4375 34.615623 341.4375 34.271873Q341.45312 33.9125 341.45312 33.803123Q341.45312 32.740623 340.95312 32.2875Q340.28125 31.693748 338.95312 31.693748Q337.70312 31.693748 337.10938 32.13125Q336.53125 32.56875 336.25 33.678123L334.53125 33.44375Q334.76562 32.334373 335.29688 31.662498Q335.82812 30.974998 336.84375 30.615623Q337.85938 30.240623 339.20312 30.240623Q340.53125 30.240623 341.35938 30.553123Q342.1875 30.865623 342.57812 31.349998Q342.96875 31.818748 343.125 32.5375Q343.21875 32.990623 343.21875 34.1625L343.21875 36.50625Q343.21875 38.959373 343.32812 39.615623Q343.4375 40.25625 343.78125 40.85L341.9375 40.85Q341.67188 40.303123 341.59375 39.56875ZM341.4375 35.646873Q340.48438 36.0375 338.5625 36.303123Q337.48438 36.459373 337.03125 36.6625Q336.59375 36.85 336.34375 37.225Q336.09375 37.6 336.09375 38.06875Q336.09375 38.771873 336.625 39.240623Q337.15625 39.709373 338.1875 39.709373Q339.20312 39.709373 339.98438 39.271873Q340.78125 38.81875 341.15625 38.053123Q341.4375 37.44375 341.4375 36.2875L341.4375 35.646873ZM352.54688 40.85L352.54688 39.5375Q351.5625 41.084373 349.64062 41.084373Q348.40625 41.084373 347.35938 40.396873Q346.32812 39.709373 345.75 38.490623Q345.1875 37.271873 345.1875 35.678123Q345.1875 34.115623 345.70312 32.85Q346.21875 31.584373 347.25 30.912498Q348.29688 30.240623 349.5625 30.240623Q350.5 30.240623 351.23438 30.646873Q351.96875 31.037498 352.4375 31.662498L352.4375 26.537498L354.17188 26.537498L354.17188 40.85L352.54688 40.85ZM346.98438 35.678123Q346.98438 37.6625 347.82812 38.646873Q348.67188 39.63125 349.8125 39.63125Q350.96875 39.63125 351.76562 38.69375Q352.57812 37.75625 352.57812 35.81875Q352.57812 33.69375 351.75 32.69375Q350.9375 31.693748 349.73438 31.693748Q348.5625 31.693748 347.76562 32.6625Q346.98438 33.615623 346.98438 35.678123ZM368.95312 40.85L367.1875 40.85L367.1875 29.646873Q366.5625 30.256248 365.53125 30.865623Q364.5 31.459373 363.67188 31.771873L363.67188 30.068748Q365.15625 29.381248 366.25 28.396873Q367.35938 27.396873 367.8125 26.474998L368.95312 26.474998L368.95312 40.85ZM373.32812 33.7875Q373.32812 31.256248 373.84375 29.709373Q374.375 28.146873 375.40625 27.318748Q376.4375 26.474998 378.0 26.474998Q379.15625 26.474998 380.01562 26.943748Q380.89062 27.396873 381.45312 28.271873Q382.01562 29.146873 382.34375 30.412498Q382.67188 31.662498 382.67188 33.7875Q382.67188 36.303123 382.14062 37.85Q381.625 39.396873 380.59375 40.25625Q379.57812 41.1 378.0 41.1Q375.92188 41.1 374.75 39.615623Q373.32812 37.81875 373.32812 33.7875ZM375.14062 33.7875Q375.14062 37.31875 375.95312 38.490623Q376.78125 39.646873 378.0 39.646873Q379.20312 39.646873 380.03125 38.475Q380.85938 37.303123 380.85938 33.7875Q380.85938 30.256248 380.03125 29.099998Q379.20312 27.928123 377.98438 27.928123Q376.76562 27.928123 376.04688 28.959373Q375.14062 30.256248 375.14062 33.7875ZM384.32812 33.7875Q384.32812 31.256248 384.84375 29.709373Q385.375 28.146873 386.40625 27.318748Q387.4375 26.474998 389.0 26.474998Q390.15625 26.474998 391.01562 26.943748Q391.89062 27.396873 392.45312 28.271873Q393.01562 29.146873 393.34375 30.412498Q393.67188 31.662498 393.67188 33.7875Q393.67188 36.303123 393.14062 37.85Q392.625 39.396873 391.59375 40.25625Q390.57812 41.1 389.0 41.1Q386.92188 41.1 385.75 39.615623Q384.32812 37.81875 384.32812 33.7875ZM386.14062 33.7875Q386.14062 37.31875 386.95312 38.490623Q387.78125 39.646873 389.0 39.646873Q390.20312 39.646873 391.03125 38.475Q391.85938 37.303123 391.85938 33.7875Q391.85938 30.256248 391.03125 29.099998Q390.20312 27.928123 388.98438 27.928123Q387.76562 27.928123 387.04688 28.959373Q386.14062 30.256248 386.14062 33.7875ZM395.32812 33.7875Q395.32812 31.256248 395.84375 29.709373Q396.375 28.146873 397.40625 27.318748Q398.4375 26.474998 400.0 26.474998Q401.15625 26.474998 402.01562 26.943748Q402.89062 27.396873 403.45312 28.271873Q404.01562 29.146873 404.34375 30.412498Q404.67188 31.662498 404.67188 33.7875Q404.67188 36.303123 404.14062 37.85Q403.625 39.396873 402.59375 40.25625Q401.57812 41.1 400.0 41.1Q397.92188 41.1 396.75 39.615623Q395.32812 37.81875 395.32812 33.7875ZM397.14062 33.7875Q397.14062 37.31875 397.95312 38.490623Q398.78125 39.646873 400.0 39.646873Q401.20312 39.646873 402.03125 38.475Q402.85938 37.303123 402.85938 33.7875Q402.85938 30.256248 402.03125 29.099998Q401.20312 27.928123 399.98438 27.928123Q398.76562 27.928123 398.04688 28.959373Q397.14062 30.256248 397.14062 33.7875ZM411.64062 40.85L415.4375 35.459373L411.9375 30.474998L414.125 30.474998L415.71875 32.9125Q416.17188 33.6 416.4375 34.06875Q416.875 33.428123 417.23438 32.928123L418.98438 30.474998L421.07812 30.474998L417.5 35.365623L421.35938 40.85L419.20312 40.85L417.0625 37.63125L416.5 36.75625L413.78125 40.85L411.64062 40.85ZM433.95312 40.85L432.1875 40.85L432.1875 29.646873Q431.5625 30.256248 430.53125 30.865623Q429.5 31.459373 428.67188 31.771873L428.67188 30.068748Q430.15625 29.381248 431.25 28.396873Q432.35938 27.396873 432.8125 26.474998L433.95312 26.474998L433.95312 40.85ZM438.96875 40.85L438.96875 26.537498L440.85938 26.537498L440.85938 33.63125L447.96875 26.537498L450.53125 26.537498L444.53125 32.334373L450.79688 40.85L448.29688 40.85L443.20312 33.6L440.85938 35.88125L440.85938 40.85L438.96875 40.85ZM451.96875 40.85L451.96875 26.537498L457.34375 26.537498Q458.98438 26.537498 459.96875 26.974998Q460.95312 27.396873 461.51562 28.303123Q462.07812 29.209373 462.07812 30.193748Q462.07812 31.115623 461.57812 31.928123Q461.09375 32.740623 460.07812 33.225Q461.375 33.615623 462.07812 34.5375Q462.78125 35.44375 462.78125 36.69375Q462.78125 37.709373 462.34375 38.56875Q461.92188 39.428123 461.29688 39.896873Q460.67188 40.365623 459.73438 40.615623Q458.79688 40.85 457.42188 40.85L451.96875 40.85ZM453.85938 32.553123L456.95312 32.553123Q458.21875 32.553123 458.76562 32.38125Q459.48438 32.1625 459.84375 31.678123Q460.21875 31.178123 460.21875 30.412498Q460.21875 29.709373 459.875 29.162498Q459.53125 28.615623 458.89062 28.428123Q458.26562 28.224998 456.71875 28.224998L453.85938 28.224998L453.85938 32.553123ZM453.85938 39.1625L457.42188 39.1625Q458.34375 39.1625 458.71875 39.084373Q459.375 38.975 459.8125 38.709373Q460.25 38.428123 460.53125 37.9125Q460.8125 37.38125 460.8125 36.69375Q460.8125 35.896873 460.40625 35.303123Q460.0 34.709373 459.26562 34.475Q458.53125 34.240623 457.17188 34.240623L453.85938 34.240623L453.85938 39.1625ZM471.23438 40.85L471.23438 31.849998L469.6875 31.849998L469.6875 30.474998L471.23438 30.474998L471.23438 29.381248Q471.23438 28.334373 471.42188 27.818748Q471.67188 27.131248 472.3125 26.709373Q472.95312 26.287498 474.10938 26.287498Q474.85938 26.287498 475.75 26.459373L475.48438 27.990623Q474.9375 27.896873 474.45312 27.896873Q473.65625 27.896873 473.3125 28.240623Q472.98438 28.584373 472.98438 29.521873L472.98438 30.474998L475.01562 30.474998L475.01562 31.849998L472.98438 31.849998L472.98438 40.85L471.23438 40.85ZM476.82812 28.553123L476.82812 26.537498L478.59375 26.537498L478.59375 28.553123L476.82812 28.553123ZM476.82812 40.85L476.82812 30.474998L478.59375 30.474998L478.59375 40.85L476.82812 40.85ZM480.78125 40.85L480.78125 26.537498L482.53125 26.537498L482.53125 40.85L480.78125 40.85ZM491.92188 37.50625L493.73438 37.740623Q493.3125 39.31875 492.14062 40.209373Q490.98438 41.084373 489.17188 41.084373Q486.90625 41.084373 485.5625 39.69375Q484.23438 38.2875 484.23438 35.75625Q484.23438 33.13125 485.57812 31.693748Q486.92188 30.240623 489.07812 30.240623Q491.15625 30.240623 492.46875 31.662498Q493.79688 33.06875 493.79688 35.646873Q493.79688 35.803123 493.78125 36.115623L486.04688 36.115623Q486.14062 37.81875 487.01562 38.725Q487.89062 39.63125 489.1875 39.63125Q490.15625 39.63125 490.82812 39.13125Q491.51562 38.615623 491.92188 37.50625ZM486.14062 34.6625L491.9375 34.6625Q491.82812 33.365623 491.28125 32.709373Q490.4375 31.693748 489.09375 31.693748Q487.89062 31.693748 487.0625 32.50625Q486.23438 33.303123 486.14062 34.6625ZM495.10938 37.75625L496.85938 37.475Q497.0 38.521873 497.67188 39.084373Q498.34375 39.63125 499.54688 39.63125Q500.75 39.63125 501.32812 39.146873Q501.92188 38.646873 501.92188 37.990623Q501.92188 37.396873 501.40625 37.053123Q501.04688 36.81875 499.60938 36.459373Q497.67188 35.959373 496.92188 35.615623Q496.1875 35.25625 495.79688 34.63125Q495.40625 33.990623 495.40625 33.225Q495.40625 32.5375 495.71875 31.943748Q496.04688 31.349998 496.59375 30.959373Q497.0 30.662498 497.70312 30.459373Q498.42188 30.240623 499.23438 30.240623Q500.45312 30.240623 501.375 30.599998Q502.29688 30.943748 502.73438 31.553123Q503.17188 32.146873 503.34375 33.146873L501.625 33.38125Q501.5 32.584373 500.9375 32.146873Q500.375 31.693748 499.35938 31.693748Q498.14062 31.693748 497.625 32.1Q497.10938 32.490623 497.10938 33.021873Q497.10938 33.365623 497.32812 33.646873Q497.53125 33.928123 498.0 34.115623Q498.26562 34.209373 499.54688 34.553123Q501.42188 35.053123 502.15625 35.38125Q502.89062 35.69375 503.3125 36.303123Q503.73438 36.896873 503.73438 37.803123Q503.73438 38.678123 503.21875 39.459373Q502.70312 40.240623 501.73438 40.6625Q500.76562 41.084373 499.54688 41.084373Q497.53125 41.084373 496.46875 40.240623Q495.40625 39.396873 495.10938 37.75625Z" fill-rule="nonzero"/></svg>