<svg id="圖層_1" data-name="圖層 1" xmlns="http://www.w3.org/2000/svg" viewBox="0 0 95.47 138.23"><defs><style>.cls-1{fill:#25a476;}.cls-2{fill:#fff;}</style></defs><rect class="cls-1" x="0.34" y="28.04" width="94.72" height="82.55"/><ellipse class="cls-1" cx="47.7" cy="27.81" rx="47.36" ry="27.52"/><ellipse class="cls-1" cx="47.7" cy="110.49" rx="47.36" ry="27.52"/><path class="cls-2" d="M34.29,92.62l-3.65,10.72q-2.05,5.93-7.19,5.93A7.93,7.93,0,0,1,18,107.21a6.3,6.3,0,0,1-2.34-4.9,12.57,12.57,0,0,1,.17-1.77,9.82,9.82,0,0,1,.51-2L37,36.51q2.85-8.2,10.49-8.21t10.38,8.21l20.64,62c.15.61.31,1.27.46,2a9.55,9.55,0,0,1,.23,1.89,6.18,6.18,0,0,1-2.34,4.78,8,8,0,0,1-5.42,2.06q-5.13,0-7.18-5.93L60.74,92.62ZM55.38,76.77l-7.87-26-8,26Z"/></svg>